<svg width="2560" height="1035" viewBox="0 0 2560 1035" fill="none" xmlns="http://www.w3.org/2000/svg">
<path d="M0 0H807L837 30H2560V1035H0V0Z" fill="white"/>
<path d="M1778 1005L1748 1035H2560V1005H1778Z" fill="#8A61F0"/>
<path d="M1827 82L1825 82L1825 80L1827 80L1827 82Z" fill="#ABAAB4"/>
<path d="M1816 82L1814 82L1814 80L1816 80L1816 82Z" fill="#ABAAB4"/>
<path d="M1805 82L1803 82L1803 80L1805 80L1805 82Z" fill="#ABAAB4"/>
<path d="M1794 82L1792 82L1792 80L1794 80L1794 82Z" fill="#ABAAB4"/>
<path d="M1783 82L1781 82L1781 80L1783 80L1783 82Z" fill="#ABAAB4"/>
<path d="M1772 82L1770 82L1770 80L1772 80L1772 82Z" fill="#ABAAB4"/>
<path d="M1761 82L1759 82L1759 80L1761 80L1761 82Z" fill="#ABAAB4"/>
<path d="M1750 82L1748 82L1748 80L1750 80L1750 82Z" fill="#ABAAB4"/>
<path d="M1827 71L1825 71L1825 69L1827 69L1827 71Z" fill="#ABAAB4"/>
<path d="M1816 71L1814 71L1814 69L1816 69L1816 71Z" fill="#ABAAB4"/>
<path d="M1805 71L1803 71L1803 69L1805 69L1805 71Z" fill="#ABAAB4"/>
<path d="M1794 71L1792 71L1792 69L1794 69L1794 71Z" fill="#ABAAB4"/>
<path d="M1783 71L1781 71L1781 69L1783 69L1783 71Z" fill="#ABAAB4"/>
<path d="M1772 71L1770 71L1770 69L1772 69L1772 71Z" fill="#ABAAB4"/>
<path d="M1761 71L1759 71L1759 69L1761 69L1761 71Z" fill="#ABAAB4"/>
<path d="M1750 71L1748 71L1748 69L1750 69L1750 71Z" fill="#ABAAB4"/>
<rect x="1827" y="60" width="2" height="2" transform="rotate(-180 1827 60)" fill="white"/>
<rect x="1816" y="60" width="2" height="2" transform="rotate(-180 1816 60)" fill="white"/>
<rect x="1805" y="60" width="2" height="2" transform="rotate(-180 1805 60)" fill="white"/>
<path d="M1794 60L1792 60L1792 58L1794 58L1794 60Z" fill="white"/>
<path d="M1783 60L1781 60L1781 58L1783 58L1783 60Z" fill="#ABAAB4"/>
<path d="M1772 60L1770 60L1770 58L1772 58L1772 60Z" fill="#ABAAB4"/>
<path d="M1761 60L1759 60L1759 58L1761 58L1761 60Z" fill="#ABAAB4"/>
<path d="M1750 60L1748 60L1748 58L1750 58L1750 60Z" fill="#ABAAB4"/>
<rect x="1827" y="49" width="2" height="2" transform="rotate(-180 1827 49)" fill="#ABAAB4"/>
<path d="M1816 49L1814 49L1814 47L1816 47L1816 49Z" fill="#ABAAB4"/>
<path d="M1805 49L1803 49L1803 47L1805 47L1805 49Z" fill="#ABAAB4"/>
<path d="M1794 49L1792 49L1792 47L1794 47L1794 49Z" fill="white"/>
<path d="M1783 49L1781 49L1781 47L1783 47L1783 49Z" fill="#ABAAB4"/>
<path d="M1772 49L1770 49L1770 47L1772 47L1772 49Z" fill="#ABAAB4"/>
<path d="M1761 49L1759 49L1759 47L1761 47L1761 49Z" fill="#ABAAB4"/>
<path d="M1750 49L1748 49L1748 47L1750 47L1750 49Z" fill="#ABAAB4"/>
<rect x="1827" y="38" width="2" height="2" transform="rotate(-180 1827 38)" fill="#ABAAB4"/>
<path d="M1816 38L1814 38L1814 36L1816 36L1816 38Z" fill="#ABAAB4"/>
<path d="M1805 38L1803 38L1803 36L1805 36L1805 38Z" fill="#ABAAB4"/>
<path d="M1794 38L1792 38L1792 36L1794 36L1794 38Z" fill="white"/>
<path d="M1783 38L1781 38L1781 36L1783 36L1783 38Z" fill="#ABAAB4"/>
<path d="M1772 38L1770 38L1770 36L1772 36L1772 38Z" fill="#ABAAB4"/>
<path d="M1761 38L1759 38L1759 36L1761 36L1761 38Z" fill="#ABAAB4"/>
<path d="M1750 38L1748 38L1748 36L1750 36L1750 38Z" fill="#ABAAB4"/>
<path d="M1915 82L1913 82L1913 80L1915 80L1915 82Z" fill="#ABAAB4"/>
<path d="M1904 82L1902 82L1902 80L1904 80L1904 82Z" fill="#ABAAB4"/>
<path d="M1893 82L1891 82L1891 80L1893 80L1893 82Z" fill="#ABAAB4"/>
<path d="M1882 82L1880 82L1880 80L1882 80L1882 82Z" fill="#ABAAB4"/>
<path d="M1871 82L1869 82L1869 80L1871 80L1871 82Z" fill="#ABAAB4"/>
<path d="M1860 82L1858 82L1858 80L1860 80L1860 82Z" fill="#ABAAB4"/>
<path d="M1849 82L1847 82L1847 80L1849 80L1849 82Z" fill="#ABAAB4"/>
<path d="M1838 82L1836 82L1836 80L1838 80L1838 82Z" fill="#ABAAB4"/>
<path d="M1915 71L1913 71L1913 69L1915 69L1915 71Z" fill="#ABAAB4"/>
<path d="M1904 71L1902 71L1902 69L1904 69L1904 71Z" fill="#ABAAB4"/>
<path d="M1893 71L1891 71L1891 69L1893 69L1893 71Z" fill="#ABAAB4"/>
<path d="M1882 71L1880 71L1880 69L1882 69L1882 71Z" fill="#ABAAB4"/>
<path d="M1871 71L1869 71L1869 69L1871 69L1871 71Z" fill="#ABAAB4"/>
<path d="M1860 71L1858 71L1858 69L1860 69L1860 71Z" fill="#ABAAB4"/>
<path d="M1849 71L1847 71L1847 69L1849 69L1849 71Z" fill="#ABAAB4"/>
<path d="M1838 71L1836 71L1836 69L1838 69L1838 71Z" fill="#ABAAB4"/>
<path d="M1915 60L1913 60L1913 58L1915 58L1915 60Z" fill="#ABAAB4"/>
<path d="M1904 60L1902 60L1902 58L1904 58L1904 60Z" fill="#ABAAB4"/>
<path d="M1893 60L1891 60L1891 58L1893 58L1893 60Z" fill="#ABAAB4"/>
<path d="M1882 60L1880 60L1880 58L1882 58L1882 60Z" fill="white"/>
<path d="M1871 60L1869 60L1869 58L1871 58L1871 60Z" fill="#ABAAB4"/>
<path d="M1860 60L1858 60L1858 58L1860 58L1860 60Z" fill="#ABAAB4"/>
<path d="M1849 60L1847 60L1847 58L1849 58L1849 60Z" fill="#ABAAB4"/>
<path d="M1838 60L1836 60L1836 58L1838 58L1838 60Z" fill="#ABAAB4"/>
<path d="M1915 49L1913 49L1913 47L1915 47L1915 49Z" fill="#ABAAB4"/>
<path d="M1904 49L1902 49L1902 47L1904 47L1904 49Z" fill="#ABAAB4"/>
<path d="M1893 49L1891 49L1891 47L1893 47L1893 49Z" fill="#ABAAB4"/>
<path d="M1882 49L1880 49L1880 47L1882 47L1882 49Z" fill="white"/>
<path d="M1871 49L1869 49L1869 47L1871 47L1871 49Z" fill="#ABAAB4"/>
<path d="M1860 49L1858 49L1858 47L1860 47L1860 49Z" fill="#ABAAB4"/>
<path d="M1849 49L1847 49L1847 47L1849 47L1849 49Z" fill="#ABAAB4"/>
<path d="M1838 49L1836 49L1836 47L1838 47L1838 49Z" fill="#ABAAB4"/>
<path d="M1915 38L1913 38L1913 36L1915 36L1915 38Z" fill="#ABAAB4"/>
<path d="M1904 38L1902 38L1902 36L1904 36L1904 38Z" fill="#ABAAB4"/>
<path d="M1893 38L1891 38L1891 36L1893 36L1893 38Z" fill="#ABAAB4"/>
<path d="M1882 38L1880 38L1880 36L1882 36L1882 38Z" fill="white"/>
<path d="M1871 38L1869 38L1869 36L1871 36L1871 38Z" fill="#ABAAB4"/>
<path d="M1860 38L1858 38L1858 36L1860 36L1860 38Z" fill="#ABAAB4"/>
<path d="M1849 38L1847 38L1847 36L1849 36L1849 38Z" fill="#ABAAB4"/>
<path d="M1838 38L1836 38L1836 36L1838 36L1838 38Z" fill="#ABAAB4"/>
<path d="M1827 137L1825 137L1825 135L1827 135L1827 137Z" fill="#ABAAB4"/>
<path d="M1816 137L1814 137L1814 135L1816 135L1816 137Z" fill="#ABAAB4"/>
<path d="M1805 137L1803 137L1803 135L1805 135L1805 137Z" fill="#ABAAB4"/>
<path d="M1794 137L1792 137L1792 135L1794 135L1794 137Z" fill="#ABAAB4"/>
<path d="M1783 137L1781 137L1781 135L1783 135L1783 137Z" fill="#ABAAB4"/>
<path d="M1772 137L1770 137L1770 135L1772 135L1772 137Z" fill="#ABAAB4"/>
<path d="M1761 137L1759 137L1759 135L1761 135L1761 137Z" fill="white"/>
<path d="M1750 137L1748 137L1748 135L1750 135L1750 137Z" fill="white"/>
<path d="M1827 126L1825 126L1825 124L1827 124L1827 126Z" fill="#ABAAB4"/>
<path d="M1816 126L1814 126L1814 124L1816 124L1816 126Z" fill="#ABAAB4"/>
<path d="M1805 126L1803 126L1803 124L1805 124L1805 126Z" fill="#ABAAB4"/>
<path d="M1794 126L1792 126L1792 124L1794 124L1794 126Z" fill="#ABAAB4"/>
<path d="M1783 126L1781 126L1781 124L1783 124L1783 126Z" fill="#ABAAB4"/>
<path d="M1772 126L1770 126L1770 124L1772 124L1772 126Z" fill="#ABAAB4"/>
<path d="M1761 126L1759 126L1759 124L1761 124L1761 126Z" fill="white"/>
<path d="M1750 126L1748 126L1748 124L1750 124L1750 126Z" fill="white"/>
<rect x="1827" y="115" width="2" height="2" transform="rotate(-180 1827 115)" fill="#ABAAB4"/>
<rect x="1816" y="115" width="2" height="2" transform="rotate(-180 1816 115)" fill="#ABAAB4"/>
<rect x="1805" y="115" width="2" height="2" transform="rotate(-180 1805 115)" fill="#ABAAB4"/>
<path d="M1794 115L1792 115L1792 113L1794 113L1794 115Z" fill="white"/>
<path d="M1783 115L1781 115L1781 113L1783 113L1783 115Z" fill="#ABAAB4"/>
<path d="M1772 115L1770 115L1770 113L1772 113L1772 115Z" fill="#ABAAB4"/>
<path d="M1761 115L1759 115L1759 113L1761 113L1761 115Z" fill="white"/>
<path d="M1750 115L1748 115L1748 113L1750 113L1750 115Z" fill="white"/>
<rect x="1827" y="104" width="2" height="2" transform="rotate(-180 1827 104)" fill="#ABAAB4"/>
<path d="M1816 104L1814 104L1814 102L1816 102L1816 104Z" fill="#ABAAB4"/>
<path d="M1805 104L1803 104L1803 102L1805 102L1805 104Z" fill="#ABAAB4"/>
<path d="M1794 104L1792 104L1792 102L1794 102L1794 104Z" fill="white"/>
<path d="M1783 104L1781 104L1781 102L1783 102L1783 104Z" fill="#ABAAB4"/>
<path d="M1772 104L1770 104L1770 102L1772 102L1772 104Z" fill="#ABAAB4"/>
<path d="M1761 104L1759 104L1759 102L1761 102L1761 104Z" fill="#ABAAB4"/>
<path d="M1750 104L1748 104L1748 102L1750 102L1750 104Z" fill="#ABAAB4"/>
<rect x="1827" y="93" width="2" height="2" transform="rotate(-180 1827 93)" fill="#ABAAB4"/>
<path d="M1816 93L1814 93L1814 91L1816 91L1816 93Z" fill="#ABAAB4"/>
<path d="M1805 93L1803 93L1803 91L1805 91L1805 93Z" fill="#ABAAB4"/>
<path d="M1794 93L1792 93L1792 91L1794 91L1794 93Z" fill="white"/>
<path d="M1783 93L1781 93L1781 91L1783 91L1783 93Z" fill="#ABAAB4"/>
<path d="M1772 93L1770 93L1770 91L1772 91L1772 93Z" fill="#ABAAB4"/>
<path d="M1761 93L1759 93L1759 91L1761 91L1761 93Z" fill="#ABAAB4"/>
<path d="M1750 93L1748 93L1748 91L1750 91L1750 93Z" fill="#ABAAB4"/>
<path d="M1915 137L1913 137L1913 135L1915 135L1915 137Z" fill="#ABAAB4"/>
<path d="M1904 137L1902 137L1902 135L1904 135L1904 137Z" fill="#ABAAB4"/>
<path d="M1893 137L1891 137L1891 135L1893 135L1893 137Z" fill="#ABAAB4"/>
<path d="M1882 137L1880 137L1880 135L1882 135L1882 137Z" fill="#ABAAB4"/>
<path d="M1871 137L1869 137L1869 135L1871 135L1871 137Z" fill="#ABAAB4"/>
<path d="M1860 137L1858 137L1858 135L1860 135L1860 137Z" fill="#ABAAB4"/>
<path d="M1849 137L1847 137L1847 135L1849 135L1849 137Z" fill="#ABAAB4"/>
<path d="M1838 137L1836 137L1836 135L1838 135L1838 137Z" fill="#ABAAB4"/>
<path d="M1915 126L1913 126L1913 124L1915 124L1915 126Z" fill="#ABAAB4"/>
<path d="M1904 126L1902 126L1902 124L1904 124L1904 126Z" fill="#ABAAB4"/>
<path d="M1893 126L1891 126L1891 124L1893 124L1893 126Z" fill="#ABAAB4"/>
<path d="M1882 126L1880 126L1880 124L1882 124L1882 126Z" fill="#ABAAB4"/>
<path d="M1871 126L1869 126L1869 124L1871 124L1871 126Z" fill="#ABAAB4"/>
<path d="M1860 126L1858 126L1858 124L1860 124L1860 126Z" fill="#ABAAB4"/>
<path d="M1849 126L1847 126L1847 124L1849 124L1849 126Z" fill="#ABAAB4"/>
<path d="M1838 126L1836 126L1836 124L1838 124L1838 126Z" fill="#ABAAB4"/>
<path d="M1915 115L1913 115L1913 113L1915 113L1915 115Z" fill="#ABAAB4"/>
<path d="M1904 115L1902 115L1902 113L1904 113L1904 115Z" fill="#ABAAB4"/>
<path d="M1893 115L1891 115L1891 113L1893 113L1893 115Z" fill="#ABAAB4"/>
<path d="M1882 115L1880 115L1880 113L1882 113L1882 115Z" fill="#ABAAB4"/>
<path d="M1871 115L1869 115L1869 113L1871 113L1871 115Z" fill="#ABAAB4"/>
<path d="M1860 115L1858 115L1858 113L1860 113L1860 115Z" fill="#ABAAB4"/>
<path d="M1849 115L1847 115L1847 113L1849 113L1849 115Z" fill="#ABAAB4"/>
<path d="M1838 115L1836 115L1836 113L1838 113L1838 115Z" fill="#ABAAB4"/>
<rect x="1915" y="104" width="2" height="2" transform="rotate(-180 1915 104)" fill="#ABAAB4"/>
<path d="M1904 104L1902 104L1902 102L1904 102L1904 104Z" fill="#ABAAB4"/>
<path d="M1893 104L1891 104L1891 102L1893 102L1893 104Z" fill="#ABAAB4"/>
<path d="M1882 104L1880 104L1880 102L1882 102L1882 104Z" fill="#ABAAB4"/>
<path d="M1871 104L1869 104L1869 102L1871 102L1871 104Z" fill="#ABAAB4"/>
<path d="M1860 104L1858 104L1858 102L1860 102L1860 104Z" fill="#ABAAB4"/>
<path d="M1849 104L1847 104L1847 102L1849 102L1849 104Z" fill="#ABAAB4"/>
<path d="M1838 104L1836 104L1836 102L1838 102L1838 104Z" fill="#ABAAB4"/>
<rect x="1915" y="93" width="2" height="2" transform="rotate(-180 1915 93)" fill="#ABAAB4"/>
<path d="M1904 93L1902 93L1902 91L1904 91L1904 93Z" fill="#ABAAB4"/>
<path d="M1893 93L1891 93L1891 91L1893 91L1893 93Z" fill="#ABAAB4"/>
<path d="M1882 93L1880 93L1880 91L1882 91L1882 93Z" fill="#ABAAB4"/>
<path d="M1871 93L1869 93L1869 91L1871 91L1871 93Z" fill="#ABAAB4"/>
<path d="M1860 93L1858 93L1858 91L1860 91L1860 93Z" fill="#ABAAB4"/>
<path d="M1849 93L1847 93L1847 91L1849 91L1849 93Z" fill="#ABAAB4"/>
<path d="M1838 93L1836 93L1836 91L1838 91L1838 93Z" fill="#ABAAB4"/>
<path d="M2003 137L2001 137L2001 135L2003 135L2003 137Z" fill="#ABAAB4"/>
<path d="M1992 137L1990 137L1990 135L1992 135L1992 137Z" fill="#ABAAB4"/>
<path d="M1981 137L1979 137L1979 135L1981 135L1981 137Z" fill="#ABAAB4"/>
<path d="M1970 137L1968 137L1968 135L1970 135L1970 137Z" fill="#ABAAB4"/>
<path d="M1959 137L1957 137L1957 135L1959 135L1959 137Z" fill="#ABAAB4"/>
<path d="M1948 137L1946 137L1946 135L1948 135L1948 137Z" fill="#ABAAB4"/>
<path d="M1937 137L1935 137L1935 135L1937 135L1937 137Z" fill="#ABAAB4"/>
<path d="M1926 137L1924 137L1924 135L1926 135L1926 137Z" fill="#ABAAB4"/>
<path d="M2003 126L2001 126L2001 124L2003 124L2003 126Z" fill="#ABAAB4"/>
<path d="M1992 126L1990 126L1990 124L1992 124L1992 126Z" fill="#ABAAB4"/>
<path d="M1981 126L1979 126L1979 124L1981 124L1981 126Z" fill="#ABAAB4"/>
<path d="M1970 126L1968 126L1968 124L1970 124L1970 126Z" fill="#ABAAB4"/>
<path d="M1959 126L1957 126L1957 124L1959 124L1959 126Z" fill="#ABAAB4"/>
<path d="M1948 126L1946 126L1946 124L1948 124L1948 126Z" fill="#ABAAB4"/>
<path d="M1937 126L1935 126L1935 124L1937 124L1937 126Z" fill="#ABAAB4"/>
<path d="M1926 126L1924 126L1924 124L1926 124L1926 126Z" fill="#ABAAB4"/>
<path d="M2003 115L2001 115L2001 113L2003 113L2003 115Z" fill="#ABAAB4"/>
<path d="M1992 115L1990 115L1990 113L1992 113L1992 115Z" fill="#ABAAB4"/>
<path d="M1981 115L1979 115L1979 113L1981 113L1981 115Z" fill="#ABAAB4"/>
<path d="M1970 115L1968 115L1968 113L1970 113L1970 115Z" fill="white"/>
<path d="M1959 115L1957 115L1957 113L1959 113L1959 115Z" fill="#ABAAB4"/>
<path d="M1948 115L1946 115L1946 113L1948 113L1948 115Z" fill="#ABAAB4"/>
<path d="M1937 115L1935 115L1935 113L1937 113L1937 115Z" fill="#ABAAB4"/>
<path d="M1926 115L1924 115L1924 113L1926 113L1926 115Z" fill="#ABAAB4"/>
<path d="M2003 104L2001 104L2001 102L2003 102L2003 104Z" fill="#ABAAB4"/>
<path d="M1992 104L1990 104L1990 102L1992 102L1992 104Z" fill="#ABAAB4"/>
<path d="M1981 104L1979 104L1979 102L1981 102L1981 104Z" fill="#ABAAB4"/>
<path d="M1970 104L1968 104L1968 102L1970 102L1970 104Z" fill="white"/>
<path d="M1959 104L1957 104L1957 102L1959 102L1959 104Z" fill="#ABAAB4"/>
<path d="M1948 104L1946 104L1946 102L1948 102L1948 104Z" fill="#ABAAB4"/>
<path d="M1937 104L1935 104L1935 102L1937 102L1937 104Z" fill="#ABAAB4"/>
<path d="M1926 104L1924 104L1924 102L1926 102L1926 104Z" fill="#ABAAB4"/>
<path d="M2003 93L2001 93L2001 91L2003 91L2003 93Z" fill="#ABAAB4"/>
<path d="M1992 93L1990 93L1990 91L1992 91L1992 93Z" fill="#ABAAB4"/>
<path d="M1981 93L1979 93L1979 91L1981 91L1981 93Z" fill="#ABAAB4"/>
<path d="M1970 93L1968 93L1968 91L1970 91L1970 93Z" fill="white"/>
<path d="M1959 93L1957 93L1957 91L1959 91L1959 93Z" fill="#ABAAB4"/>
<path d="M1948 93L1946 93L1946 91L1948 91L1948 93Z" fill="#ABAAB4"/>
<path d="M1937 93L1935 93L1935 91L1937 91L1937 93Z" fill="#ABAAB4"/>
<path d="M1926 93L1924 93L1924 91L1926 91L1926 93Z" fill="#ABAAB4"/>
<path d="M2003 192L2001 192L2001 190L2003 190L2003 192Z" fill="white"/>
<path d="M1992 192L1990 192L1990 190L1992 190L1992 192Z" fill="white"/>
<path d="M1981 192L1979 192L1979 190L1981 190L1981 192Z" fill="#ABAAB4"/>
<path d="M1970 192L1968 192L1968 190L1970 190L1970 192Z" fill="#ABAAB4"/>
<path d="M1959 192L1957 192L1957 190L1959 190L1959 192Z" fill="#ABAAB4"/>
<path d="M1948 192L1946 192L1946 190L1948 190L1948 192Z" fill="#ABAAB4"/>
<path d="M1937 192L1935 192L1935 190L1937 190L1937 192Z" fill="#ABAAB4"/>
<path d="M1926 192L1924 192L1924 190L1926 190L1926 192Z" fill="#ABAAB4"/>
<path d="M2003 181L2001 181L2001 179L2003 179L2003 181Z" fill="white"/>
<path d="M1992 181L1990 181L1990 179L1992 179L1992 181Z" fill="white"/>
<path d="M1981 181L1979 181L1979 179L1981 179L1981 181Z" fill="#ABAAB4"/>
<path d="M1970 181L1968 181L1968 179L1970 179L1970 181Z" fill="#ABAAB4"/>
<path d="M1959 181L1957 181L1957 179L1959 179L1959 181Z" fill="#ABAAB4"/>
<path d="M1948 181L1946 181L1946 179L1948 179L1948 181Z" fill="#ABAAB4"/>
<path d="M1937 181L1935 181L1935 179L1937 179L1937 181Z" fill="#ABAAB4"/>
<path d="M1926 181L1924 181L1924 179L1926 179L1926 181Z" fill="#ABAAB4"/>
<path d="M2003 170L2001 170L2001 168L2003 168L2003 170Z" fill="#ABAAB4"/>
<path d="M1992 170L1990 170L1990 168L1992 168L1992 170Z" fill="#ABAAB4"/>
<path d="M1981 170L1979 170L1979 168L1981 168L1981 170Z" fill="#ABAAB4"/>
<path d="M1970 170L1968 170L1968 168L1970 168L1970 170Z" fill="white"/>
<path d="M1959 170L1957 170L1957 168L1959 168L1959 170Z" fill="#ABAAB4"/>
<path d="M1948 170L1946 170L1946 168L1948 168L1948 170Z" fill="#ABAAB4"/>
<path d="M1937 170L1935 170L1935 168L1937 168L1937 170Z" fill="#ABAAB4"/>
<path d="M1926 170L1924 170L1924 168L1926 168L1926 170Z" fill="#ABAAB4"/>
<path d="M2003 159L2001 159L2001 157L2003 157L2003 159Z" fill="#ABAAB4"/>
<path d="M1992 159L1990 159L1990 157L1992 157L1992 159Z" fill="#ABAAB4"/>
<path d="M1981 159L1979 159L1979 157L1981 157L1981 159Z" fill="#ABAAB4"/>
<path d="M1970 159L1968 159L1968 157L1970 157L1970 159Z" fill="#ABAAB4"/>
<path d="M1959 159L1957 159L1957 157L1959 157L1959 159Z" fill="#ABAAB4"/>
<path d="M1948 159L1946 159L1946 157L1948 157L1948 159Z" fill="#ABAAB4"/>
<path d="M1937 159L1935 159L1935 157L1937 157L1937 159Z" fill="#ABAAB4"/>
<path d="M1926 159L1924 159L1924 157L1926 157L1926 159Z" fill="#ABAAB4"/>
<path d="M2003 148L2001 148L2001 146L2003 146L2003 148Z" fill="#ABAAB4"/>
<path d="M1992 148L1990 148L1990 146L1992 146L1992 148Z" fill="#ABAAB4"/>
<path d="M1981 148L1979 148L1979 146L1981 146L1981 148Z" fill="#ABAAB4"/>
<path d="M1970 148L1968 148L1968 146L1970 146L1970 148Z" fill="#ABAAB4"/>
<path d="M1959 148L1957 148L1957 146L1959 146L1959 148Z" fill="#ABAAB4"/>
<path d="M1948 148L1946 148L1946 146L1948 146L1948 148Z" fill="#ABAAB4"/>
<path d="M1937 148L1935 148L1935 146L1937 146L1937 148Z" fill="#ABAAB4"/>
<path d="M1926 148L1924 148L1924 146L1926 146L1926 148Z" fill="#ABAAB4"/>
<path d="M1915 192L1913 192L1913 190L1915 190L1915 192Z" fill="#ABAAB4"/>
<path d="M1904 192L1902 192L1902 190L1904 190L1904 192Z" fill="#ABAAB4"/>
<path d="M1893 192L1891 192L1891 190L1893 190L1893 192Z" fill="#ABAAB4"/>
<path d="M1882 192L1880 192L1880 190L1882 190L1882 192Z" fill="#ABAAB4"/>
<path d="M1871 192L1869 192L1869 190L1871 190L1871 192Z" fill="#ABAAB4"/>
<path d="M1860 192L1858 192L1858 190L1860 190L1860 192Z" fill="#ABAAB4"/>
<path d="M1849 192L1847 192L1847 190L1849 190L1849 192Z" fill="white"/>
<path d="M1838 192L1836 192L1836 190L1838 190L1838 192Z" fill="white"/>
<path d="M1915 181L1913 181L1913 179L1915 179L1915 181Z" fill="#ABAAB4"/>
<path d="M1904 181L1902 181L1902 179L1904 179L1904 181Z" fill="#ABAAB4"/>
<path d="M1893 181L1891 181L1891 179L1893 179L1893 181Z" fill="#ABAAB4"/>
<path d="M1882 181L1880 181L1880 179L1882 179L1882 181Z" fill="#ABAAB4"/>
<path d="M1871 181L1869 181L1869 179L1871 179L1871 181Z" fill="#ABAAB4"/>
<path d="M1860 181L1858 181L1858 179L1860 179L1860 181Z" fill="#ABAAB4"/>
<path d="M1849 181L1847 181L1847 179L1849 179L1849 181Z" fill="white"/>
<path d="M1838 181L1836 181L1836 179L1838 179L1838 181Z" fill="white"/>
<rect x="1915" y="170" width="2" height="2" transform="rotate(-180 1915 170)" fill="#ABAAB4"/>
<rect x="1904" y="170" width="2" height="2" transform="rotate(-180 1904 170)" fill="#ABAAB4"/>
<rect x="1893" y="170" width="2" height="2" transform="rotate(-180 1893 170)" fill="#ABAAB4"/>
<path d="M1882 170L1880 170L1880 168L1882 168L1882 170Z" fill="white"/>
<path d="M1871 170L1869 170L1869 168L1871 168L1871 170Z" fill="#ABAAB4"/>
<path d="M1860 170L1858 170L1858 168L1860 168L1860 170Z" fill="#ABAAB4"/>
<path d="M1849 170L1847 170L1847 168L1849 168L1849 170Z" fill="white"/>
<path d="M1838 170L1836 170L1836 168L1838 168L1838 170Z" fill="white"/>
<rect x="1915" y="159" width="2" height="2" transform="rotate(-180 1915 159)" fill="#ABAAB4"/>
<path d="M1904 159L1902 159L1902 157L1904 157L1904 159Z" fill="#ABAAB4"/>
<path d="M1893 159L1891 159L1891 157L1893 157L1893 159Z" fill="#ABAAB4"/>
<path d="M1882 159L1880 159L1880 157L1882 157L1882 159Z" fill="white"/>
<path d="M1871 159L1869 159L1869 157L1871 157L1871 159Z" fill="#ABAAB4"/>
<path d="M1860 159L1858 159L1858 157L1860 157L1860 159Z" fill="#ABAAB4"/>
<path d="M1849 159L1847 159L1847 157L1849 157L1849 159Z" fill="#ABAAB4"/>
<path d="M1838 159L1836 159L1836 157L1838 157L1838 159Z" fill="#ABAAB4"/>
<rect x="1915" y="148" width="2" height="2" transform="rotate(-180 1915 148)" fill="#ABAAB4"/>
<path d="M1904 148L1902 148L1902 146L1904 146L1904 148Z" fill="#ABAAB4"/>
<path d="M1893 148L1891 148L1891 146L1893 146L1893 148Z" fill="#ABAAB4"/>
<path d="M1882 148L1880 148L1880 146L1882 146L1882 148Z" fill="white"/>
<path d="M1871 148L1869 148L1869 146L1871 146L1871 148Z" fill="#ABAAB4"/>
<path d="M1860 148L1858 148L1858 146L1860 146L1860 148Z" fill="#ABAAB4"/>
<path d="M1849 148L1847 148L1847 146L1849 146L1849 148Z" fill="#ABAAB4"/>
<path d="M1838 148L1836 148L1836 146L1838 146L1838 148Z" fill="#ABAAB4"/>
<path d="M2091 137L2089 137L2089 135L2091 135L2091 137Z" fill="#ABAAB4"/>
<path d="M2080 137L2078 137L2078 135L2080 135L2080 137Z" fill="#ABAAB4"/>
<path d="M2069 137L2067 137L2067 135L2069 135L2069 137Z" fill="#ABAAB4"/>
<path d="M2058 137L2056 137L2056 135L2058 135L2058 137Z" fill="#ABAAB4"/>
<path d="M2047 137L2045 137L2045 135L2047 135L2047 137Z" fill="#ABAAB4"/>
<path d="M2036 137L2034 137L2034 135L2036 135L2036 137Z" fill="#ABAAB4"/>
<path d="M2025 137L2023 137L2023 135L2025 135L2025 137Z" fill="#ABAAB4"/>
<path d="M2014 137L2012 137L2012 135L2014 135L2014 137Z" fill="#ABAAB4"/>
<path d="M2091 126L2089 126L2089 124L2091 124L2091 126Z" fill="#ABAAB4"/>
<path d="M2080 126L2078 126L2078 124L2080 124L2080 126Z" fill="#ABAAB4"/>
<path d="M2069 126L2067 126L2067 124L2069 124L2069 126Z" fill="#ABAAB4"/>
<path d="M2058 126L2056 126L2056 124L2058 124L2058 126Z" fill="#ABAAB4"/>
<path d="M2047 126L2045 126L2045 124L2047 124L2047 126Z" fill="#ABAAB4"/>
<path d="M2036 126L2034 126L2034 124L2036 124L2036 126Z" fill="#ABAAB4"/>
<path d="M2025 126L2023 126L2023 124L2025 124L2025 126Z" fill="#ABAAB4"/>
<path d="M2014 126L2012 126L2012 124L2014 124L2014 126Z" fill="#ABAAB4"/>
<path d="M2091 115L2089 115L2089 113L2091 113L2091 115Z" fill="white"/>
<path d="M2080 115L2078 115L2078 113L2080 113L2080 115Z" fill="white"/>
<path d="M2069 115L2067 115L2067 113L2069 113L2069 115Z" fill="white"/>
<path d="M2058 115L2056 115L2056 113L2058 113L2058 115Z" fill="#ABAAB4"/>
<path d="M2047 115L2045 115L2045 113L2047 113L2047 115Z" fill="#ABAAB4"/>
<path d="M2036 115L2034 115L2034 113L2036 113L2036 115Z" fill="#ABAAB4"/>
<path d="M2025 115L2023 115L2023 113L2025 113L2025 115Z" fill="#ABAAB4"/>
<path d="M2014 115L2012 115L2012 113L2014 113L2014 115Z" fill="#ABAAB4"/>
<path d="M2091 104L2089 104L2089 102L2091 102L2091 104Z" fill="white"/>
<path d="M2080 104L2078 104L2078 102L2080 102L2080 104Z" fill="white"/>
<path d="M2069 104L2067 104L2067 102L2069 102L2069 104Z" fill="white"/>
<path d="M2058 104L2056 104L2056 102L2058 102L2058 104Z" fill="#ABAAB4"/>
<path d="M2047 104L2045 104L2045 102L2047 102L2047 104Z" fill="#ABAAB4"/>
<path d="M2036 104L2034 104L2034 102L2036 102L2036 104Z" fill="#ABAAB4"/>
<path d="M2025 104L2023 104L2023 102L2025 102L2025 104Z" fill="#ABAAB4"/>
<path d="M2014 104L2012 104L2012 102L2014 102L2014 104Z" fill="#ABAAB4"/>
<path d="M2091 93L2089 93L2089 91L2091 91L2091 93Z" fill="white"/>
<path d="M2080 93L2078 93L2078 91L2080 91L2080 93Z" fill="white"/>
<path d="M2069 93L2067 93L2067 91L2069 91L2069 93Z" fill="white"/>
<path d="M2058 93L2056 93L2056 91L2058 91L2058 93Z" fill="#ABAAB4"/>
<path d="M2047 93L2045 93L2045 91L2047 91L2047 93Z" fill="#ABAAB4"/>
<path d="M2036 93L2034 93L2034 91L2036 91L2036 93Z" fill="#ABAAB4"/>
<path d="M2025 93L2023 93L2023 91L2025 91L2025 93Z" fill="#ABAAB4"/>
<path d="M2014 93L2012 93L2012 91L2014 91L2014 93Z" fill="#ABAAB4"/>
<path d="M2091 192L2089 192L2089 190L2091 190L2091 192Z" fill="white"/>
<path d="M2080 192L2078 192L2078 190L2080 190L2080 192Z" fill="white"/>
<path d="M2069 192L2067 192L2067 190L2069 190L2069 192Z" fill="#ABAAB4"/>
<path d="M2058 192L2056 192L2056 190L2058 190L2058 192Z" fill="#ABAAB4"/>
<path d="M2047 192L2045 192L2045 190L2047 190L2047 192Z" fill="#ABAAB4"/>
<path d="M2036 192L2034 192L2034 190L2036 190L2036 192Z" fill="#ABAAB4"/>
<path d="M2025 192L2023 192L2023 190L2025 190L2025 192Z" fill="white"/>
<path d="M2014 192L2012 192L2012 190L2014 190L2014 192Z" fill="white"/>
<path d="M2091 181L2089 181L2089 179L2091 179L2091 181Z" fill="white"/>
<path d="M2080 181L2078 181L2078 179L2080 179L2080 181Z" fill="white"/>
<path d="M2069 181L2067 181L2067 179L2069 179L2069 181Z" fill="#ABAAB4"/>
<path d="M2058 181L2056 181L2056 179L2058 179L2058 181Z" fill="#ABAAB4"/>
<path d="M2047 181L2045 181L2045 179L2047 179L2047 181Z" fill="#ABAAB4"/>
<path d="M2036 181L2034 181L2034 179L2036 179L2036 181Z" fill="#ABAAB4"/>
<path d="M2025 181L2023 181L2023 179L2025 179L2025 181Z" fill="white"/>
<path d="M2014 181L2012 181L2012 179L2014 179L2014 181Z" fill="white"/>
<rect x="2091" y="170" width="2" height="2" transform="rotate(-180 2091 170)" fill="#ABAAB4"/>
<rect x="2080" y="170" width="2" height="2" transform="rotate(-180 2080 170)" fill="#ABAAB4"/>
<rect x="2069" y="170" width="2" height="2" transform="rotate(-180 2069 170)" fill="#ABAAB4"/>
<path d="M2058 170L2056 170L2056 168L2058 168L2058 170Z" fill="white"/>
<path d="M2047 170L2045 170L2045 168L2047 168L2047 170Z" fill="#ABAAB4"/>
<path d="M2036 170L2034 170L2034 168L2036 168L2036 170Z" fill="#ABAAB4"/>
<path d="M2025 170L2023 170L2023 168L2025 168L2025 170Z" fill="white"/>
<path d="M2014 170L2012 170L2012 168L2014 168L2014 170Z" fill="white"/>
<rect x="2091" y="159" width="2" height="2" transform="rotate(-180 2091 159)" fill="#ABAAB4"/>
<path d="M2080 159L2078 159L2078 157L2080 157L2080 159Z" fill="#ABAAB4"/>
<path d="M2069 159L2067 159L2067 157L2069 157L2069 159Z" fill="#ABAAB4"/>
<path d="M2058 159L2056 159L2056 157L2058 157L2058 159Z" fill="white"/>
<path d="M2047 159L2045 159L2045 157L2047 157L2047 159Z" fill="#ABAAB4"/>
<path d="M2036 159L2034 159L2034 157L2036 157L2036 159Z" fill="#ABAAB4"/>
<path d="M2025 159L2023 159L2023 157L2025 157L2025 159Z" fill="#ABAAB4"/>
<path d="M2014 159L2012 159L2012 157L2014 157L2014 159Z" fill="#ABAAB4"/>
<rect x="2091" y="148" width="2" height="2" transform="rotate(-180 2091 148)" fill="#ABAAB4"/>
<path d="M2080 148L2078 148L2078 146L2080 146L2080 148Z" fill="#ABAAB4"/>
<path d="M2069 148L2067 148L2067 146L2069 146L2069 148Z" fill="#ABAAB4"/>
<path d="M2058 148L2056 148L2056 146L2058 146L2058 148Z" fill="white"/>
<path d="M2047 148L2045 148L2045 146L2047 146L2047 148Z" fill="#ABAAB4"/>
<path d="M2036 148L2034 148L2034 146L2036 146L2036 148Z" fill="#ABAAB4"/>
<path d="M2025 148L2023 148L2023 146L2025 146L2025 148Z" fill="#ABAAB4"/>
<path d="M2014 148L2012 148L2012 146L2014 146L2014 148Z" fill="#ABAAB4"/>
<path d="M554 980L556 980L556 982L554 982L554 980Z" fill="#ABAAB4"/>
<path d="M565 980L567 980L567 982L565 982L565 980Z" fill="#ABAAB4"/>
<path d="M576 980L578 980L578 982L576 982L576 980Z" fill="#ABAAB4"/>
<path d="M587 980L589 980L589 982L587 982L587 980Z" fill="#ABAAB4"/>
<path d="M598 980L600 980L600 982L598 982L598 980Z" fill="#ABAAB4"/>
<path d="M609 980L611 980L611 982L609 982L609 980Z" fill="#ABAAB4"/>
<path d="M620 980L622 980L622 982L620 982L620 980Z" fill="#ABAAB4"/>
<path d="M631 980L633 980L633 982L631 982L631 980Z" fill="#ABAAB4"/>
<path d="M554 991L556 991L556 993L554 993L554 991Z" fill="#ABAAB4"/>
<path d="M565 991L567 991L567 993L565 993L565 991Z" fill="#ABAAB4"/>
<path d="M576 991L578 991L578 993L576 993L576 991Z" fill="#ABAAB4"/>
<path d="M587 991L589 991L589 993L587 993L587 991Z" fill="#ABAAB4"/>
<path d="M598 991L600 991L600 993L598 993L598 991Z" fill="#ABAAB4"/>
<path d="M609 991L611 991L611 993L609 993L609 991Z" fill="#ABAAB4"/>
<path d="M620 991L622 991L622 993L620 993L620 991Z" fill="#ABAAB4"/>
<path d="M631 991L633 991L633 993L631 993L631 991Z" fill="#ABAAB4"/>
<path d="M554 1002L556 1002L556 1004L554 1004L554 1002Z" fill="#ABAAB4"/>
<path d="M565 1002L567 1002L567 1004L565 1004L565 1002Z" fill="#ABAAB4"/>
<path d="M576 1002L578 1002L578 1004L576 1004L576 1002Z" fill="#ABAAB4"/>
<path d="M587 1002L589 1002L589 1004L587 1004L587 1002Z" fill="#ABAAB4"/>
<path d="M598 1002L600 1002L600 1004L598 1004L598 1002Z" fill="#ABAAB4"/>
<path d="M609 1002L611 1002L611 1004L609 1004L609 1002Z" fill="#ABAAB4"/>
<path d="M620 1002L622 1002L622 1004L620 1004L620 1002Z" fill="#ABAAB4"/>
<path d="M631 1002L633 1002L633 1004L631 1004L631 1002Z" fill="#ABAAB4"/>
<rect x="554" y="1013" width="2" height="2" fill="#ABAAB4"/>
<path d="M565 1013L567 1013L567 1015L565 1015L565 1013Z" fill="#ABAAB4"/>
<path d="M576 1013L578 1013L578 1015L576 1015L576 1013Z" fill="#ABAAB4"/>
<path d="M587 1013L589 1013L589 1015L587 1015L587 1013Z" fill="#ABAAB4"/>
<path d="M598 1013L600 1013L600 1015L598 1015L598 1013Z" fill="#ABAAB4"/>
<path d="M609 1013L611 1013L611 1015L609 1015L609 1013Z" fill="#ABAAB4"/>
<path d="M620 1013L622 1013L622 1015L620 1015L620 1013Z" fill="#ABAAB4"/>
<path d="M631 1013L633 1013L633 1015L631 1015L631 1013Z" fill="#ABAAB4"/>
<rect x="554" y="1024" width="2" height="2" fill="#ABAAB4"/>
<path d="M565 1024L567 1024L567 1026L565 1026L565 1024Z" fill="#ABAAB4"/>
<path d="M576 1024L578 1024L578 1026L576 1026L576 1024Z" fill="#ABAAB4"/>
<path d="M587 1024L589 1024L589 1026L587 1026L587 1024Z" fill="#ABAAB4"/>
<path d="M598 1024L600 1024L600 1026L598 1026L598 1024Z" fill="#ABAAB4"/>
<path d="M609 1024L611 1024L611 1026L609 1026L609 1024Z" fill="#ABAAB4"/>
<path d="M620 1024L622 1024L622 1026L620 1026L620 1024Z" fill="#ABAAB4"/>
<path d="M631 1024L633 1024L633 1026L631 1026L631 1024Z" fill="#ABAAB4"/>
<path d="M466 980L468 980L468 982L466 982L466 980Z" fill="#ABAAB4"/>
<path d="M477 980L479 980L479 982L477 982L477 980Z" fill="#ABAAB4"/>
<path d="M488 980L490 980L490 982L488 982L488 980Z" fill="#ABAAB4"/>
<path d="M499 980L501 980L501 982L499 982L499 980Z" fill="#ABAAB4"/>
<path d="M510 980L512 980L512 982L510 982L510 980Z" fill="#ABAAB4"/>
<path d="M521 980L523 980L523 982L521 982L521 980Z" fill="#ABAAB4"/>
<path d="M532 980L534 980L534 982L532 982L532 980Z" fill="#ABAAB4"/>
<path d="M543 980L545 980L545 982L543 982L543 980Z" fill="#ABAAB4"/>
<path d="M466 991L468 991L468 993L466 993L466 991Z" fill="#ABAAB4"/>
<path d="M477 991L479 991L479 993L477 993L477 991Z" fill="#ABAAB4"/>
<path d="M488 991L490 991L490 993L488 993L488 991Z" fill="#ABAAB4"/>
<path d="M499 991L501 991L501 993L499 993L499 991Z" fill="#ABAAB4"/>
<path d="M510 991L512 991L512 993L510 993L510 991Z" fill="#ABAAB4"/>
<path d="M521 991L523 991L523 993L521 993L521 991Z" fill="#ABAAB4"/>
<path d="M532 991L534 991L534 993L532 993L532 991Z" fill="#ABAAB4"/>
<path d="M543 991L545 991L545 993L543 993L543 991Z" fill="#ABAAB4"/>
<path d="M466 1002L468 1002L468 1004L466 1004L466 1002Z" fill="#ABAAB4"/>
<path d="M477 1002L479 1002L479 1004L477 1004L477 1002Z" fill="#ABAAB4"/>
<path d="M488 1002L490 1002L490 1004L488 1004L488 1002Z" fill="#ABAAB4"/>
<path d="M499 1002L501 1002L501 1004L499 1004L499 1002Z" fill="white"/>
<path d="M510 1002L512 1002L512 1004L510 1004L510 1002Z" fill="#ABAAB4"/>
<path d="M521 1002L523 1002L523 1004L521 1004L521 1002Z" fill="#ABAAB4"/>
<path d="M532 1002L534 1002L534 1004L532 1004L532 1002Z" fill="#ABAAB4"/>
<path d="M543 1002L545 1002L545 1004L543 1004L543 1002Z" fill="#ABAAB4"/>
<path d="M466 1013L468 1013L468 1015L466 1015L466 1013Z" fill="#ABAAB4"/>
<path d="M477 1013L479 1013L479 1015L477 1015L477 1013Z" fill="#ABAAB4"/>
<path d="M488 1013L490 1013L490 1015L488 1015L488 1013Z" fill="#ABAAB4"/>
<path d="M499 1013L501 1013L501 1015L499 1015L499 1013Z" fill="white"/>
<path d="M510 1013L512 1013L512 1015L510 1015L510 1013Z" fill="#ABAAB4"/>
<path d="M521 1013L523 1013L523 1015L521 1015L521 1013Z" fill="#ABAAB4"/>
<path d="M532 1013L534 1013L534 1015L532 1015L532 1013Z" fill="#ABAAB4"/>
<path d="M543 1013L545 1013L545 1015L543 1015L543 1013Z" fill="#ABAAB4"/>
<path d="M466 1024L468 1024L468 1026L466 1026L466 1024Z" fill="#ABAAB4"/>
<path d="M477 1024L479 1024L479 1026L477 1026L477 1024Z" fill="#ABAAB4"/>
<path d="M488 1024L490 1024L490 1026L488 1026L488 1024Z" fill="#ABAAB4"/>
<path d="M499 1024L501 1024L501 1026L499 1026L499 1024Z" fill="white"/>
<path d="M510 1024L512 1024L512 1026L510 1026L510 1024Z" fill="#ABAAB4"/>
<path d="M521 1024L523 1024L523 1026L521 1026L521 1024Z" fill="#ABAAB4"/>
<path d="M532 1024L534 1024L534 1026L532 1026L532 1024Z" fill="#ABAAB4"/>
<path d="M543 1024L545 1024L545 1026L543 1026L543 1024Z" fill="#ABAAB4"/>
<path d="M466 925L468 925L468 927L466 927L466 925Z" fill="white"/>
<path d="M477 925L479 925L479 927L477 927L477 925Z" fill="white"/>
<path d="M488 925L490 925L490 927L488 927L488 925Z" fill="white"/>
<path d="M499 925L501 925L501 927L499 927L499 925Z" fill="white"/>
<path d="M510 925L512 925L512 927L510 927L510 925Z" fill="white"/>
<path d="M521 925L523 925L523 927L521 927L521 925Z" fill="white"/>
<path d="M532 925L534 925L534 927L532 927L532 925Z" fill="#ABAAB4"/>
<path d="M543 925L545 925L545 927L543 927L543 925Z" fill="#ABAAB4"/>
<path d="M466 936L468 936L468 938L466 938L466 936Z" fill="white"/>
<path d="M477 936L479 936L479 938L477 938L477 936Z" fill="white"/>
<path d="M488 936L490 936L490 938L488 938L488 936Z" fill="white"/>
<path d="M499 936L501 936L501 938L499 938L499 936Z" fill="white"/>
<path d="M510 936L512 936L512 938L510 938L510 936Z" fill="white"/>
<path d="M521 936L523 936L523 938L521 938L521 936Z" fill="white"/>
<path d="M532 936L534 936L534 938L532 938L532 936Z" fill="#ABAAB4"/>
<path d="M543 936L545 936L545 938L543 938L543 936Z" fill="#ABAAB4"/>
<path d="M466 947L468 947L468 949L466 949L466 947Z" fill="#ABAAB4"/>
<path d="M477 947L479 947L479 949L477 949L477 947Z" fill="#ABAAB4"/>
<path d="M488 947L490 947L490 949L488 949L488 947Z" fill="#ABAAB4"/>
<path d="M499 947L501 947L501 949L499 949L499 947Z" fill="white"/>
<path d="M510 947L512 947L512 949L510 949L510 947Z" fill="#ABAAB4"/>
<path d="M521 947L523 947L523 949L521 949L521 947Z" fill="#ABAAB4"/>
<path d="M532 947L534 947L534 949L532 949L532 947Z" fill="#ABAAB4"/>
<path d="M543 947L545 947L545 949L543 949L543 947Z" fill="#ABAAB4"/>
<path d="M466 958L468 958L468 960L466 960L466 958Z" fill="#ABAAB4"/>
<path d="M477 958L479 958L479 960L477 960L477 958Z" fill="#ABAAB4"/>
<path d="M488 958L490 958L490 960L488 960L488 958Z" fill="#ABAAB4"/>
<path d="M499 958L501 958L501 960L499 960L499 958Z" fill="#ABAAB4"/>
<path d="M510 958L512 958L512 960L510 960L510 958Z" fill="#ABAAB4"/>
<path d="M521 958L523 958L523 960L521 960L521 958Z" fill="#ABAAB4"/>
<path d="M532 958L534 958L534 960L532 960L532 958Z" fill="#ABAAB4"/>
<path d="M543 958L545 958L545 960L543 960L543 958Z" fill="#ABAAB4"/>
<path d="M466 969L468 969L468 971L466 971L466 969Z" fill="#ABAAB4"/>
<path d="M477 969L479 969L479 971L477 971L477 969Z" fill="#ABAAB4"/>
<path d="M488 969L490 969L490 971L488 971L488 969Z" fill="#ABAAB4"/>
<path d="M499 969L501 969L501 971L499 971L499 969Z" fill="#ABAAB4"/>
<path d="M510 969L512 969L512 971L510 971L510 969Z" fill="#ABAAB4"/>
<path d="M521 969L523 969L523 971L521 971L521 969Z" fill="#ABAAB4"/>
<path d="M532 969L534 969L534 971L532 971L532 969Z" fill="#ABAAB4"/>
<path d="M543 969L545 969L545 971L543 971L543 969Z" fill="#ABAAB4"/>
<path d="M554 925L556 925L556 927L554 927L554 925Z" fill="white"/>
<path d="M565 925L567 925L567 927L565 927L565 925Z" fill="white"/>
<path d="M576 925L578 925L578 927L576 927L576 925Z" fill="white"/>
<path d="M587 925L589 925L589 927L587 927L587 925Z" fill="white"/>
<path d="M598 925L600 925L600 927L598 927L598 925Z" fill="white"/>
<path d="M609 925L611 925L611 927L609 927L609 925Z" fill="white"/>
<path d="M620 925L622 925L622 927L620 927L620 925Z" fill="white"/>
<path d="M631 925L633 925L633 927L631 927L631 925Z" fill="white"/>
<path d="M554 936L556 936L556 938L554 938L554 936Z" fill="#ABAAB4"/>
<path d="M565 936L567 936L567 938L565 938L565 936Z" fill="#ABAAB4"/>
<path d="M576 936L578 936L578 938L576 938L576 936Z" fill="#ABAAB4"/>
<path d="M587 936L589 936L589 938L587 938L587 936Z" fill="white"/>
<path d="M598 936L600 936L600 938L598 938L598 936Z" fill="white"/>
<path d="M609 936L611 936L611 938L609 938L609 936Z" fill="white"/>
<path d="M620 936L622 936L622 938L620 938L620 936Z" fill="white"/>
<path d="M631 936L633 936L633 938L631 938L631 936Z" fill="white"/>
<rect x="554" y="947" width="2" height="2" fill="#ABAAB4"/>
<rect x="565" y="947" width="2" height="2" fill="#ABAAB4"/>
<rect x="576" y="947" width="2" height="2" fill="#ABAAB4"/>
<path d="M587 947L589 947L589 949L587 949L587 947Z" fill="white"/>
<path d="M598 947L600 947L600 949L598 949L598 947Z" fill="white"/>
<path d="M609 947L611 947L611 949L609 949L609 947Z" fill="white"/>
<path d="M620 947L622 947L622 949L620 949L620 947Z" fill="white"/>
<path d="M631 947L633 947L633 949L631 949L631 947Z" fill="white"/>
<rect x="554" y="958" width="2" height="2" fill="#ABAAB4"/>
<path d="M565 958L567 958L567 960L565 960L565 958Z" fill="#ABAAB4"/>
<path d="M576 958L578 958L578 960L576 960L576 958Z" fill="#ABAAB4"/>
<path d="M587 958L589 958L589 960L587 960L587 958Z" fill="white"/>
<path d="M598 958L600 958L600 960L598 960L598 958Z" fill="#ABAAB4"/>
<path d="M609 958L611 958L611 960L609 960L609 958Z" fill="#ABAAB4"/>
<path d="M620 958L622 958L622 960L620 960L620 958Z" fill="#ABAAB4"/>
<path d="M631 958L633 958L633 960L631 960L631 958Z" fill="#ABAAB4"/>
<rect x="554" y="969" width="2" height="2" fill="#ABAAB4"/>
<path d="M565 969L567 969L567 971L565 971L565 969Z" fill="#ABAAB4"/>
<path d="M576 969L578 969L578 971L576 971L576 969Z" fill="#ABAAB4"/>
<path d="M587 969L589 969L589 971L587 971L587 969Z" fill="white"/>
<path d="M598 969L600 969L600 971L598 971L598 969Z" fill="#ABAAB4"/>
<path d="M609 969L611 969L611 971L609 971L609 969Z" fill="#ABAAB4"/>
<path d="M620 969L622 969L622 971L620 971L620 969Z" fill="#ABAAB4"/>
<path d="M631 969L633 969L633 971L631 971L631 969Z" fill="#ABAAB4"/>
</svg>
