<svg width="10" height="10" viewBox="0 0 10 10" fill="none" xmlns="http://www.w3.org/2000/svg">
<path d="M9.63559 5.36441C9.68345 5.36441 9.73083 5.35498 9.77504 5.33667C9.81926 5.31836 9.85943 5.29151 9.89327 5.25768C9.92711 5.22384 9.95395 5.18366 9.97226 5.13945C9.99057 5.09524 10 5.04785 10 5C10 4.95215 9.99057 4.90476 9.97226 4.86055C9.95395 4.81633 9.92711 4.77616 9.89327 4.74232C9.85943 4.70849 9.81926 4.68164 9.77504 4.66333C9.73083 4.64502 9.68345 4.63559 9.63559 4.63559L5.36409 4.63591L5.36441 0.364409C5.36441 0.267762 5.32602 0.175073 5.25768 0.106732C5.18934 0.038393 5.09665 0 5 0C4.90335 0 4.81066 0.038393 4.74232 0.106732C4.67398 0.175073 4.63559 0.267762 4.63559 0.364409L4.63591 4.63591L0.364409 4.63559C0.267762 4.63559 0.175073 4.67398 0.106733 4.74232C0.038393 4.81066 0 4.90335 0 5C0 5.09665 0.038393 5.18934 0.106733 5.25768C0.175073 5.32602 0.267762 5.36441 0.364409 5.36441L4.63591 5.36409L4.63559 9.63559C4.63559 9.73224 4.67398 9.82493 4.74232 9.89327C4.81066 9.96161 4.90335 10 5 10C5.09665 10 5.18934 9.96161 5.25768 9.89327C5.32602 9.82493 5.36441 9.73224 5.36441 9.63559L5.36409 5.36409L9.63559 5.36441Z" fill="white"/>
</svg>
