<svg width="40" height="40" viewBox="0 0 40 40" fill="none" xmlns="http://www.w3.org/2000/svg">
<path fill-rule="evenodd" clip-rule="evenodd" d="M22.2667 20C22.2667 26.0654 17.7209 31 12.1333 31C6.54575 31 2 26.0654 2 20C2 13.9346 6.54575 9 12.1333 9C17.7209 9 22.2667 13.9346 22.2667 20ZM29.8667 9.64706C28.9669 9.64706 27.2701 10.0936 26.0154 13.0847C25.2316 14.9531 24.8 17.4091 24.8 20C24.8 22.5909 25.2316 25.0469 26.0154 26.9153C27.2701 29.9064 28.9669 30.3529 29.8667 30.3529C30.7664 30.3529 32.4632 29.9064 33.7179 26.9153C34.5017 25.0469 34.9333 22.5909 34.9333 20C34.9333 17.4091 34.5017 14.9531 33.7179 13.0847C32.4632 10.0937 30.7664 9.64706 29.8667 9.64706ZM38.7333 9.64706C38.0338 9.64709 37.4667 10.2265 37.4667 10.9412V29.0588C37.4667 29.7735 38.0338 30.3529 38.7333 30.3529C39.4329 30.3529 40 29.7735 40 29.0588V10.9412C40 10.2265 39.4329 9.64709 38.7333 9.64706Z" fill="white"/>
</svg>
