<svg width="123" height="40" viewBox="0 0 123 40" fill="none" xmlns="http://www.w3.org/2000/svg">
<path fill-rule="evenodd" clip-rule="evenodd" d="M100.029 31.1889H104.12L105.838 27.7085H115.736L117.454 31.1889H121.545L110.787 8.76953L100.029 31.1889ZM113.838 23.9116H107.6L110.674 17.5158L113.838 23.9116Z" fill="white"/>
<path fill-rule="evenodd" clip-rule="evenodd" d="M51.4836 19.5945C52.2746 18.5322 52.7266 17.244 52.7266 15.8202C52.7266 12.3172 49.9016 9.49219 46.3986 9.49219H36.2285V31.1883H47.5286C51.0994 31.1883 53.9922 28.2955 53.9922 24.7247C53.9922 22.6229 53.0204 20.7697 51.4836 19.5945ZM46.3986 13.4246C47.732 13.4246 48.7942 14.5094 48.7942 15.8202C48.7942 17.1536 47.7094 18.2158 46.3986 18.2158H40.3191L40.2965 13.402L46.3986 13.4246ZM40.3191 27.2785H47.5286C48.9298 27.2785 50.0824 26.1259 50.0824 24.7247C50.0824 23.3235 48.9298 22.1709 47.5286 22.1709H40.3191V27.2785Z" fill="white"/>
<path fill-rule="evenodd" clip-rule="evenodd" d="M56.2754 20.3417C56.2754 14.3074 61.157 9.42578 67.1913 9.42578C73.2255 9.42578 78.1071 14.3074 78.1071 20.3417C78.1071 26.3759 73.2255 31.2575 67.1913 31.2575C61.157 31.2575 56.2754 26.3759 56.2754 20.3417ZM60.3886 20.3417C60.3886 24.0933 63.4396 27.1443 67.1913 27.1443C70.9655 27.1443 73.9939 24.0933 73.9939 20.3417C73.9939 16.59 70.9429 13.539 67.1913 13.539C63.4396 13.539 60.3886 16.59 60.3886 20.3417Z" fill="white"/>
<path fill-rule="evenodd" clip-rule="evenodd" d="M97.9035 16.7468C97.9035 19.7753 96.0277 22.3743 93.3835 23.4591L98.6719 31.1883H93.9259L88.8635 23.9789H85.157V31.1883H81.2246V9.49219H90.6489C94.6491 9.49219 97.9035 12.7466 97.9035 16.7468ZM85.157 20.0465H90.6489C92.4795 20.0465 93.9485 18.5548 93.9485 16.7468C93.9485 14.9162 92.4795 13.4472 90.6489 13.4472H85.157V20.0465Z" fill="white"/>
<path d="M27.0832 18.2472C27.0597 18.2066 27.0259 18.1722 26.9839 18.1479L18.2149 13.0851C18.131 13.0367 18.0277 13.0367 17.9438 13.0851L12.1616 16.4235L9.44612 17.9912C9.26535 18.0956 9.26535 18.3566 9.44612 18.461L12.4679 20.2056L18.0793 23.4454V33.4142C18.0793 33.6229 18.3053 33.7534 18.486 33.649L26.9837 28.7429C27.0676 28.6945 27.1193 28.6049 27.1193 28.5081V18.3825C27.1193 18.3341 27.1066 18.2877 27.0832 18.2472Z" fill="white"/>
<path d="M9.0401 18.227V1.60558C9.0401 1.39682 8.81426 1.26634 8.63339 1.37072L0.135411 6.27703C0.0516215 6.32552 0 6.415 0 6.51179V33.7284C0 33.7768 0.0129049 33.8234 0.0363433 33.864L9.0401 28.6657V18.227Z" fill="white"/>
<path d="M17.6742 33.6505L9.04086 28.666L0.0371094 33.8644C0.0604529 33.9048 0.0943307 33.9393 0.136083 33.9635L8.90536 39.0264C8.98924 39.0748 9.09258 39.0748 9.17646 39.0264L17.6742 34.1202C17.8549 34.0158 17.855 33.7549 17.6742 33.6505Z" fill="white"/>
<path d="M9.44623 18.4611L12.468 20.2056L18.0794 23.4455L27.0832 18.2472C27.0597 18.2066 27.0259 18.1722 26.9839 18.1479L18.2149 13.0851C18.131 13.0367 18.0277 13.0367 17.9438 13.0851L12.1616 16.4235L9.44612 17.9912C9.26535 18.0956 9.26546 18.3567 9.44623 18.4611Z" fill="#D1D1D1"/>
<path d="M0.0372035 33.8643C0.060547 33.9047 0.0944249 33.9392 0.136177 33.9634L8.90545 39.0263C8.98934 39.0747 9.09267 39.0747 9.17656 39.0263L17.6742 34.1201C17.855 34.0158 17.855 33.7549 17.6742 33.6505L9.04086 28.666L0.0372035 33.8643Z" fill="#D1D1D1"/>
</svg>
