<svg width="142" height="82" viewBox="0 0 142 82" fill="none" xmlns="http://www.w3.org/2000/svg">
<path d="M141.636 5.36441C141.683 5.36441 141.731 5.35498 141.775 5.33667C141.819 5.31836 141.859 5.29151 141.893 5.25768C141.927 5.22384 141.954 5.18366 141.972 5.13945C141.991 5.09524 142 5.04785 142 5C142 4.95215 141.991 4.90476 141.972 4.86055C141.954 4.81633 141.927 4.77616 141.893 4.74232C141.859 4.70849 141.819 4.68164 141.775 4.66333C141.731 4.64502 141.683 4.63559 141.636 4.63559L137.364 4.63591L137.364 0.364409C137.364 0.267762 137.326 0.175073 137.258 0.106732C137.189 0.038393 137.097 0 137 0C136.903 0 136.811 0.038393 136.742 0.106732C136.674 0.175073 136.636 0.267762 136.636 0.364409L136.636 4.63591L132.364 4.63559C132.268 4.63559 132.175 4.67398 132.107 4.74232C132.038 4.81066 132 4.90335 132 5C132 5.09665 132.038 5.18934 132.107 5.25768C132.175 5.32602 132.268 5.36441 132.364 5.36441L136.636 5.36409L136.636 9.63559C136.636 9.73224 136.674 9.82493 136.742 9.89327C136.811 9.96161 136.903 10 137 10C137.097 10 137.189 9.96161 137.258 9.89327C137.326 9.82493 137.364 9.73224 137.364 9.63559L137.364 5.36409L141.636 5.36441Z" fill="white"/>
<path d="M141.636 17.3644C141.683 17.3644 141.731 17.355 141.775 17.3367C141.819 17.3184 141.859 17.2915 141.893 17.2577C141.927 17.2238 141.954 17.1837 141.972 17.1395C141.991 17.0952 142 17.0479 142 17C142 16.9521 141.991 16.9048 141.972 16.8605C141.954 16.8163 141.927 16.7762 141.893 16.7423C141.859 16.7085 141.819 16.6816 141.775 16.6633C141.731 16.645 141.683 16.6356 141.636 16.6356L137.364 16.6359L137.364 12.3644C137.364 12.2678 137.326 12.1751 137.258 12.1067C137.189 12.0384 137.097 12 137 12C136.903 12 136.811 12.0384 136.742 12.1067C136.674 12.1751 136.636 12.2678 136.636 12.3644L136.636 16.6359L132.364 16.6356C132.268 16.6356 132.175 16.674 132.107 16.7423C132.038 16.8107 132 16.9034 132 17C132 17.0966 132.038 17.1893 132.107 17.2577C132.175 17.326 132.268 17.3644 132.364 17.3644L136.636 17.3641L136.636 21.6356C136.636 21.7322 136.674 21.8249 136.742 21.8933C136.811 21.9616 136.903 22 137 22C137.097 22 137.189 21.9616 137.258 21.8933C137.326 21.8249 137.364 21.7322 137.364 21.6356L137.364 17.3641L141.636 17.3644Z" fill="white"/>
<path d="M141.636 29.3644C141.683 29.3644 141.731 29.355 141.775 29.3367C141.819 29.3184 141.859 29.2915 141.893 29.2577C141.927 29.2238 141.954 29.1837 141.972 29.1395C141.991 29.0952 142 29.0479 142 29C142 28.9521 141.991 28.9048 141.972 28.8605C141.954 28.8163 141.927 28.7762 141.893 28.7423C141.859 28.7085 141.819 28.6816 141.775 28.6633C141.731 28.645 141.683 28.6356 141.636 28.6356L137.364 28.6359L137.364 24.3644C137.364 24.2678 137.326 24.1751 137.258 24.1067C137.189 24.0384 137.097 24 137 24C136.903 24 136.811 24.0384 136.742 24.1067C136.674 24.1751 136.636 24.2678 136.636 24.3644L136.636 28.6359L132.364 28.6356C132.268 28.6356 132.175 28.674 132.107 28.7423C132.038 28.8107 132 28.9034 132 29C132 29.0966 132.038 29.1893 132.107 29.2577C132.175 29.326 132.268 29.3644 132.364 29.3644L136.636 29.3641L136.636 33.6356C136.636 33.7322 136.674 33.8249 136.742 33.8933C136.811 33.9616 136.903 34 137 34C137.097 34 137.189 33.9616 137.258 33.8933C137.326 33.8249 137.364 33.7322 137.364 33.6356L137.364 29.3641L141.636 29.3644Z" fill="white"/>
<path d="M141.636 41.3644C141.683 41.3644 141.731 41.355 141.775 41.3367C141.819 41.3184 141.859 41.2915 141.893 41.2577C141.927 41.2238 141.954 41.1837 141.972 41.1395C141.991 41.0952 142 41.0479 142 41C142 40.9521 141.991 40.9048 141.972 40.8605C141.954 40.8163 141.927 40.7762 141.893 40.7423C141.859 40.7085 141.819 40.6816 141.775 40.6633C141.731 40.645 141.683 40.6356 141.636 40.6356L137.364 40.6359L137.364 36.3644C137.364 36.2678 137.326 36.1751 137.258 36.1067C137.189 36.0384 137.097 36 137 36C136.903 36 136.811 36.0384 136.742 36.1067C136.674 36.1751 136.636 36.2678 136.636 36.3644L136.636 40.6359L132.364 40.6356C132.268 40.6356 132.175 40.674 132.107 40.7423C132.038 40.8107 132 40.9034 132 41C132 41.0966 132.038 41.1893 132.107 41.2577C132.175 41.326 132.268 41.3644 132.364 41.3644L136.636 41.3641L136.636 45.6356C136.636 45.7322 136.674 45.8249 136.742 45.8933C136.811 45.9616 136.903 46 137 46C137.097 46 137.189 45.9616 137.258 45.8933C137.326 45.8249 137.364 45.7322 137.364 45.6356L137.364 41.3641L141.636 41.3644Z" fill="white"/>
<path d="M141.636 77.3644C141.683 77.3644 141.731 77.355 141.775 77.3367C141.819 77.3184 141.859 77.2915 141.893 77.2577C141.927 77.2238 141.954 77.1837 141.972 77.1395C141.991 77.0952 142 77.0479 142 77C142 76.9521 141.991 76.9048 141.972 76.8605C141.954 76.8163 141.927 76.7762 141.893 76.7423C141.859 76.7085 141.819 76.6816 141.775 76.6633C141.731 76.645 141.683 76.6356 141.636 76.6356L137.364 76.6359L137.364 72.3644C137.364 72.2678 137.326 72.1751 137.258 72.1067C137.189 72.0384 137.097 72 137 72C136.903 72 136.811 72.0384 136.742 72.1067C136.674 72.1751 136.636 72.2678 136.636 72.3644L136.636 76.6359L132.364 76.6356C132.268 76.6356 132.175 76.674 132.107 76.7423C132.038 76.8107 132 76.9034 132 77C132 77.0966 132.038 77.1893 132.107 77.2577C132.175 77.326 132.268 77.3644 132.364 77.3644L136.636 77.3641L136.636 81.6356C136.636 81.7322 136.674 81.8249 136.742 81.8933C136.811 81.9616 136.903 82 137 82C137.097 82 137.189 81.9616 137.258 81.8933C137.326 81.8249 137.364 81.7322 137.364 81.6356L137.364 77.3641L141.636 77.3644Z" fill="white"/>
<path d="M129.636 5.36441C129.683 5.36441 129.731 5.35498 129.775 5.33667C129.819 5.31836 129.859 5.29151 129.893 5.25768C129.927 5.22384 129.954 5.18366 129.972 5.13945C129.991 5.09524 130 5.04785 130 5C130 4.95215 129.991 4.90476 129.972 4.86055C129.954 4.81633 129.927 4.77616 129.893 4.74232C129.859 4.70849 129.819 4.68164 129.775 4.66333C129.731 4.64502 129.683 4.63559 129.636 4.63559L125.364 4.63591L125.364 0.364409C125.364 0.267762 125.326 0.175073 125.258 0.106732C125.189 0.038393 125.097 0 125 0C124.903 0 124.811 0.038393 124.742 0.106732C124.674 0.175073 124.636 0.267762 124.636 0.364409L124.636 4.63591L120.364 4.63559C120.268 4.63559 120.175 4.67398 120.107 4.74232C120.038 4.81066 120 4.90335 120 5C120 5.09665 120.038 5.18934 120.107 5.25768C120.175 5.32602 120.268 5.36441 120.364 5.36441L124.636 5.36409L124.636 9.63559C124.636 9.73224 124.674 9.82493 124.742 9.89327C124.811 9.96161 124.903 10 125 10C125.097 10 125.189 9.96161 125.258 9.89327C125.326 9.82493 125.364 9.73224 125.364 9.63559L125.364 5.36409L129.636 5.36441Z" fill="white"/>
<path d="M129.636 17.3644C129.683 17.3644 129.731 17.355 129.775 17.3367C129.819 17.3184 129.859 17.2915 129.893 17.2577C129.927 17.2238 129.954 17.1837 129.972 17.1395C129.991 17.0952 130 17.0479 130 17C130 16.9521 129.991 16.9048 129.972 16.8605C129.954 16.8163 129.927 16.7762 129.893 16.7423C129.859 16.7085 129.819 16.6816 129.775 16.6633C129.731 16.645 129.683 16.6356 129.636 16.6356L125.364 16.6359L125.364 12.3644C125.364 12.2678 125.326 12.1751 125.258 12.1067C125.189 12.0384 125.097 12 125 12C124.903 12 124.811 12.0384 124.742 12.1067C124.674 12.1751 124.636 12.2678 124.636 12.3644L124.636 16.6359L120.364 16.6356C120.268 16.6356 120.175 16.674 120.107 16.7423C120.038 16.8107 120 16.9034 120 17C120 17.0966 120.038 17.1893 120.107 17.2577C120.175 17.326 120.268 17.3644 120.364 17.3644L124.636 17.3641L124.636 21.6356C124.636 21.7322 124.674 21.8249 124.742 21.8933C124.811 21.9616 124.903 22 125 22C125.097 22 125.189 21.9616 125.258 21.8933C125.326 21.8249 125.364 21.7322 125.364 21.6356L125.364 17.3641L129.636 17.3644Z" fill="white"/>
<path d="M129.636 29.3644C129.683 29.3644 129.731 29.355 129.775 29.3367C129.819 29.3184 129.859 29.2915 129.893 29.2577C129.927 29.2238 129.954 29.1837 129.972 29.1395C129.991 29.0952 130 29.0479 130 29C130 28.9521 129.991 28.9048 129.972 28.8605C129.954 28.8163 129.927 28.7762 129.893 28.7423C129.859 28.7085 129.819 28.6816 129.775 28.6633C129.731 28.645 129.683 28.6356 129.636 28.6356L125.364 28.6359L125.364 24.3644C125.364 24.2678 125.326 24.1751 125.258 24.1067C125.189 24.0384 125.097 24 125 24C124.903 24 124.811 24.0384 124.742 24.1067C124.674 24.1751 124.636 24.2678 124.636 24.3644L124.636 28.6359L120.364 28.6356C120.268 28.6356 120.175 28.674 120.107 28.7423C120.038 28.8107 120 28.9034 120 29C120 29.0966 120.038 29.1893 120.107 29.2577C120.175 29.326 120.268 29.3644 120.364 29.3644L124.636 29.3641L124.636 33.6356C124.636 33.7322 124.674 33.8249 124.742 33.8933C124.811 33.9616 124.903 34 125 34C125.097 34 125.189 33.9616 125.258 33.8933C125.326 33.8249 125.364 33.7322 125.364 33.6356L125.364 29.3641L129.636 29.3644Z" fill="white"/>
<path d="M129.636 53.3644C129.683 53.3644 129.731 53.355 129.775 53.3367C129.819 53.3184 129.859 53.2915 129.893 53.2577C129.927 53.2238 129.954 53.1837 129.972 53.1395C129.991 53.0952 130 53.0479 130 53C130 52.9521 129.991 52.9048 129.972 52.8605C129.954 52.8163 129.927 52.7762 129.893 52.7423C129.859 52.7085 129.819 52.6816 129.775 52.6633C129.731 52.645 129.683 52.6356 129.636 52.6356L125.364 52.6359L125.364 48.3644C125.364 48.2678 125.326 48.1751 125.258 48.1067C125.189 48.0384 125.097 48 125 48C124.903 48 124.811 48.0384 124.742 48.1067C124.674 48.1751 124.636 48.2678 124.636 48.3644L124.636 52.6359L120.364 52.6356C120.268 52.6356 120.175 52.674 120.107 52.7423C120.038 52.8107 120 52.9034 120 53C120 53.0966 120.038 53.1893 120.107 53.2577C120.175 53.326 120.268 53.3644 120.364 53.3644L124.636 53.3641L124.636 57.6356C124.636 57.7322 124.674 57.8249 124.742 57.8933C124.811 57.9616 124.903 58 125 58C125.097 58 125.189 57.9616 125.258 57.8933C125.326 57.8249 125.364 57.7322 125.364 57.6356L125.364 53.3641L129.636 53.3644Z" fill="white"/>
<path d="M129.636 41.3644C129.683 41.3644 129.731 41.355 129.775 41.3367C129.819 41.3184 129.859 41.2915 129.893 41.2577C129.927 41.2238 129.954 41.1837 129.972 41.1395C129.991 41.0952 130 41.0479 130 41C130 40.9521 129.991 40.9048 129.972 40.8605C129.954 40.8163 129.927 40.7762 129.893 40.7423C129.859 40.7085 129.819 40.6816 129.775 40.6633C129.731 40.645 129.683 40.6356 129.636 40.6356L125.364 40.6359L125.364 36.3644C125.364 36.2678 125.326 36.1751 125.258 36.1067C125.189 36.0384 125.097 36 125 36C124.903 36 124.811 36.0384 124.742 36.1067C124.674 36.1751 124.636 36.2678 124.636 36.3644L124.636 40.6359L120.364 40.6356C120.268 40.6356 120.175 40.674 120.107 40.7423C120.038 40.8107 120 40.9034 120 41C120 41.0966 120.038 41.1893 120.107 41.2577C120.175 41.326 120.268 41.3644 120.364 41.3644L124.636 41.3641L124.636 45.6356C124.636 45.7322 124.674 45.8249 124.742 45.8933C124.811 45.9616 124.903 46 125 46C125.097 46 125.189 45.9616 125.258 45.8933C125.326 45.8249 125.364 45.7322 125.364 45.6356L125.364 41.3641L129.636 41.3644Z" fill="white"/>
<path d="M129.636 65.3644C129.683 65.3644 129.731 65.355 129.775 65.3367C129.819 65.3184 129.859 65.2915 129.893 65.2577C129.927 65.2238 129.954 65.1837 129.972 65.1395C129.991 65.0952 130 65.0479 130 65C130 64.9521 129.991 64.9048 129.972 64.8605C129.954 64.8163 129.927 64.7762 129.893 64.7423C129.859 64.7085 129.819 64.6816 129.775 64.6633C129.731 64.645 129.683 64.6356 129.636 64.6356L125.364 64.6359L125.364 60.3644C125.364 60.2678 125.326 60.1751 125.258 60.1067C125.189 60.0384 125.097 60 125 60C124.903 60 124.811 60.0384 124.742 60.1067C124.674 60.1751 124.636 60.2678 124.636 60.3644L124.636 64.6359L120.364 64.6356C120.268 64.6356 120.175 64.674 120.107 64.7423C120.038 64.8107 120 64.9034 120 65C120 65.0966 120.038 65.1893 120.107 65.2577C120.175 65.326 120.268 65.3644 120.364 65.3644L124.636 65.3641L124.636 69.6356C124.636 69.7322 124.674 69.8249 124.742 69.8933C124.811 69.9616 124.903 70 125 70C125.097 70 125.189 69.9616 125.258 69.8933C125.326 69.8249 125.364 69.7322 125.364 69.6356L125.364 65.3641L129.636 65.3644Z" fill="white"/>
<path d="M117.636 5.36441C117.683 5.36441 117.731 5.35498 117.775 5.33667C117.819 5.31836 117.859 5.29151 117.893 5.25768C117.927 5.22384 117.954 5.18366 117.972 5.13945C117.991 5.09524 118 5.04785 118 5C118 4.95215 117.991 4.90476 117.972 4.86055C117.954 4.81633 117.927 4.77616 117.893 4.74232C117.859 4.70849 117.819 4.68164 117.775 4.66333C117.731 4.64502 117.683 4.63559 117.636 4.63559L113.364 4.63591L113.364 0.364409C113.364 0.267762 113.326 0.175073 113.258 0.106732C113.189 0.038393 113.097 0 113 0C112.903 0 112.811 0.038393 112.742 0.106732C112.674 0.175073 112.636 0.267762 112.636 0.364409L112.636 4.63591L108.364 4.63559C108.268 4.63559 108.175 4.67398 108.107 4.74232C108.038 4.81066 108 4.90335 108 5C108 5.09665 108.038 5.18934 108.107 5.25768C108.175 5.32602 108.268 5.36441 108.364 5.36441L112.636 5.36409L112.636 9.63559C112.636 9.73224 112.674 9.82493 112.742 9.89327C112.811 9.96161 112.903 10 113 10C113.097 10 113.189 9.96161 113.258 9.89327C113.326 9.82493 113.364 9.73224 113.364 9.63559L113.364 5.36409L117.636 5.36441Z" fill="white"/>
<path d="M117.636 17.3644C117.683 17.3644 117.731 17.355 117.775 17.3367C117.819 17.3184 117.859 17.2915 117.893 17.2577C117.927 17.2238 117.954 17.1837 117.972 17.1395C117.991 17.0952 118 17.0479 118 17C118 16.9521 117.991 16.9048 117.972 16.8605C117.954 16.8163 117.927 16.7762 117.893 16.7423C117.859 16.7085 117.819 16.6816 117.775 16.6633C117.731 16.645 117.683 16.6356 117.636 16.6356L113.364 16.6359L113.364 12.3644C113.364 12.2678 113.326 12.1751 113.258 12.1067C113.189 12.0384 113.097 12 113 12C112.903 12 112.811 12.0384 112.742 12.1067C112.674 12.1751 112.636 12.2678 112.636 12.3644L112.636 16.6359L108.364 16.6356C108.268 16.6356 108.175 16.674 108.107 16.7423C108.038 16.8107 108 16.9034 108 17C108 17.0966 108.038 17.1893 108.107 17.2577C108.175 17.326 108.268 17.3644 108.364 17.3644L112.636 17.3641L112.636 21.6356C112.636 21.7322 112.674 21.8249 112.742 21.8933C112.811 21.9616 112.903 22 113 22C113.097 22 113.189 21.9616 113.258 21.8933C113.326 21.8249 113.364 21.7322 113.364 21.6356L113.364 17.3641L117.636 17.3644Z" fill="white"/>
<path d="M117.636 29.3644C117.683 29.3644 117.731 29.355 117.775 29.3367C117.819 29.3184 117.859 29.2915 117.893 29.2577C117.927 29.2238 117.954 29.1837 117.972 29.1395C117.991 29.0952 118 29.0479 118 29C118 28.9521 117.991 28.9048 117.972 28.8605C117.954 28.8163 117.927 28.7762 117.893 28.7423C117.859 28.7085 117.819 28.6816 117.775 28.6633C117.731 28.645 117.683 28.6356 117.636 28.6356L113.364 28.6359L113.364 24.3644C113.364 24.2678 113.326 24.1751 113.258 24.1067C113.189 24.0384 113.097 24 113 24C112.903 24 112.811 24.0384 112.742 24.1067C112.674 24.1751 112.636 24.2678 112.636 24.3644L112.636 28.6359L108.364 28.6356C108.268 28.6356 108.175 28.674 108.107 28.7423C108.038 28.8107 108 28.9034 108 29C108 29.0966 108.038 29.1893 108.107 29.2577C108.175 29.326 108.268 29.3644 108.364 29.3644L112.636 29.3641L112.636 33.6356C112.636 33.7322 112.674 33.8249 112.742 33.8933C112.811 33.9616 112.903 34 113 34C113.097 34 113.189 33.9616 113.258 33.8933C113.326 33.8249 113.364 33.7322 113.364 33.6356L113.364 29.3641L117.636 29.3644Z" fill="white"/>
<path d="M117.636 53.3644C117.683 53.3644 117.731 53.355 117.775 53.3367C117.819 53.3184 117.859 53.2915 117.893 53.2577C117.927 53.2238 117.954 53.1837 117.972 53.1395C117.991 53.0952 118 53.0479 118 53C118 52.9521 117.991 52.9048 117.972 52.8605C117.954 52.8163 117.927 52.7762 117.893 52.7423C117.859 52.7085 117.819 52.6816 117.775 52.6633C117.731 52.645 117.683 52.6356 117.636 52.6356L113.364 52.6359L113.364 48.3644C113.364 48.2678 113.326 48.1751 113.258 48.1067C113.189 48.0384 113.097 48 113 48C112.903 48 112.811 48.0384 112.742 48.1067C112.674 48.1751 112.636 48.2678 112.636 48.3644L112.636 52.6359L108.364 52.6356C108.268 52.6356 108.175 52.674 108.107 52.7423C108.038 52.8107 108 52.9034 108 53C108 53.0966 108.038 53.1893 108.107 53.2577C108.175 53.326 108.268 53.3644 108.364 53.3644L112.636 53.3641L112.636 57.6356C112.636 57.7322 112.674 57.8249 112.742 57.8933C112.811 57.9616 112.903 58 113 58C113.097 58 113.189 57.9616 113.258 57.8933C113.326 57.8249 113.364 57.7322 113.364 57.6356L113.364 53.3641L117.636 53.3644Z" fill="white"/>
<path d="M117.636 41.3644C117.683 41.3644 117.731 41.355 117.775 41.3367C117.819 41.3184 117.859 41.2915 117.893 41.2577C117.927 41.2238 117.954 41.1837 117.972 41.1395C117.991 41.0952 118 41.0479 118 41C118 40.9521 117.991 40.9048 117.972 40.8605C117.954 40.8163 117.927 40.7762 117.893 40.7423C117.859 40.7085 117.819 40.6816 117.775 40.6633C117.731 40.645 117.683 40.6356 117.636 40.6356L113.364 40.6359L113.364 36.3644C113.364 36.2678 113.326 36.1751 113.258 36.1067C113.189 36.0384 113.097 36 113 36C112.903 36 112.811 36.0384 112.742 36.1067C112.674 36.1751 112.636 36.2678 112.636 36.3644L112.636 40.6359L108.364 40.6356C108.268 40.6356 108.175 40.674 108.107 40.7423C108.038 40.8107 108 40.9034 108 41C108 41.0966 108.038 41.1893 108.107 41.2577C108.175 41.326 108.268 41.3644 108.364 41.3644L112.636 41.3641L112.636 45.6356C112.636 45.7322 112.674 45.8249 112.742 45.8933C112.811 45.9616 112.903 46 113 46C113.097 46 113.189 45.9616 113.258 45.8933C113.326 45.8249 113.364 45.7322 113.364 45.6356L113.364 41.3641L117.636 41.3644Z" fill="white"/>
<path d="M117.636 65.3644C117.683 65.3644 117.731 65.355 117.775 65.3367C117.819 65.3184 117.859 65.2915 117.893 65.2577C117.927 65.2238 117.954 65.1837 117.972 65.1395C117.991 65.0952 118 65.0479 118 65C118 64.9521 117.991 64.9048 117.972 64.8605C117.954 64.8163 117.927 64.7762 117.893 64.7423C117.859 64.7085 117.819 64.6816 117.775 64.6633C117.731 64.645 117.683 64.6356 117.636 64.6356L113.364 64.6359L113.364 60.3644C113.364 60.2678 113.326 60.1751 113.258 60.1067C113.189 60.0384 113.097 60 113 60C112.903 60 112.811 60.0384 112.742 60.1067C112.674 60.1751 112.636 60.2678 112.636 60.3644L112.636 64.6359L108.364 64.6356C108.268 64.6356 108.175 64.674 108.107 64.7423C108.038 64.8107 108 64.9034 108 65C108 65.0966 108.038 65.1893 108.107 65.2577C108.175 65.326 108.268 65.3644 108.364 65.3644L112.636 65.3641L112.636 69.6356C112.636 69.7322 112.674 69.8249 112.742 69.8933C112.811 69.9616 112.903 70 113 70C113.097 70 113.189 69.9616 113.258 69.8933C113.326 69.8249 113.364 69.7322 113.364 69.6356L113.364 65.3641L117.636 65.3644Z" fill="white"/>
<path d="M105.636 5.36441C105.683 5.36441 105.731 5.35498 105.775 5.33667C105.819 5.31836 105.859 5.29151 105.893 5.25768C105.927 5.22384 105.954 5.18366 105.972 5.13945C105.991 5.09524 106 5.04785 106 5C106 4.95215 105.991 4.90476 105.972 4.86055C105.954 4.81633 105.927 4.77616 105.893 4.74232C105.859 4.70849 105.819 4.68164 105.775 4.66333C105.731 4.64502 105.683 4.63559 105.636 4.63559L101.364 4.63591L101.364 0.364409C101.364 0.267762 101.326 0.175073 101.258 0.106732C101.189 0.038393 101.097 0 101 0C100.903 0 100.811 0.038393 100.742 0.106732C100.674 0.175073 100.636 0.267762 100.636 0.364409L100.636 4.63591L96.3644 4.63559C96.2678 4.63559 96.1751 4.67398 96.1067 4.74232C96.0384 4.81066 96 4.90335 96 5C96 5.09665 96.0384 5.18934 96.1067 5.25768C96.1751 5.32602 96.2678 5.36441 96.3644 5.36441L100.636 5.36409L100.636 9.63559C100.636 9.73224 100.674 9.82493 100.742 9.89327C100.811 9.96161 100.903 10 101 10C101.097 10 101.189 9.96161 101.258 9.89327C101.326 9.82493 101.364 9.73224 101.364 9.63559L101.364 5.36409L105.636 5.36441Z" fill="white"/>
<path d="M105.636 17.3644C105.683 17.3644 105.731 17.355 105.775 17.3367C105.819 17.3184 105.859 17.2915 105.893 17.2577C105.927 17.2238 105.954 17.1837 105.972 17.1395C105.991 17.0952 106 17.0479 106 17C106 16.9521 105.991 16.9048 105.972 16.8605C105.954 16.8163 105.927 16.7762 105.893 16.7423C105.859 16.7085 105.819 16.6816 105.775 16.6633C105.731 16.645 105.683 16.6356 105.636 16.6356L101.364 16.6359L101.364 12.3644C101.364 12.2678 101.326 12.1751 101.258 12.1067C101.189 12.0384 101.097 12 101 12C100.903 12 100.811 12.0384 100.742 12.1067C100.674 12.1751 100.636 12.2678 100.636 12.3644L100.636 16.6359L96.3644 16.6356C96.2678 16.6356 96.1751 16.674 96.1067 16.7423C96.0384 16.8107 96 16.9034 96 17C96 17.0966 96.0384 17.1893 96.1067 17.2577C96.1751 17.326 96.2678 17.3644 96.3644 17.3644L100.636 17.3641L100.636 21.6356C100.636 21.7322 100.674 21.8249 100.742 21.8933C100.811 21.9616 100.903 22 101 22C101.097 22 101.189 21.9616 101.258 21.8933C101.326 21.8249 101.364 21.7322 101.364 21.6356L101.364 17.3641L105.636 17.3644Z" fill="white"/>
<path d="M105.636 29.3644C105.683 29.3644 105.731 29.355 105.775 29.3367C105.819 29.3184 105.859 29.2915 105.893 29.2577C105.927 29.2238 105.954 29.1837 105.972 29.1395C105.991 29.0952 106 29.0479 106 29C106 28.9521 105.991 28.9048 105.972 28.8605C105.954 28.8163 105.927 28.7762 105.893 28.7423C105.859 28.7085 105.819 28.6816 105.775 28.6633C105.731 28.645 105.683 28.6356 105.636 28.6356L101.364 28.6359L101.364 24.3644C101.364 24.2678 101.326 24.1751 101.258 24.1067C101.189 24.0384 101.097 24 101 24C100.903 24 100.811 24.0384 100.742 24.1067C100.674 24.1751 100.636 24.2678 100.636 24.3644L100.636 28.6359L96.3644 28.6356C96.2678 28.6356 96.1751 28.674 96.1067 28.7423C96.0384 28.8107 96 28.9034 96 29C96 29.0966 96.0384 29.1893 96.1067 29.2577C96.1751 29.326 96.2678 29.3644 96.3644 29.3644L100.636 29.3641L100.636 33.6356C100.636 33.7322 100.674 33.8249 100.742 33.8933C100.811 33.9616 100.903 34 101 34C101.097 34 101.189 33.9616 101.258 33.8933C101.326 33.8249 101.364 33.7322 101.364 33.6356L101.364 29.3641L105.636 29.3644Z" fill="white"/>
<path d="M105.636 53.3644C105.683 53.3644 105.731 53.355 105.775 53.3367C105.819 53.3184 105.859 53.2915 105.893 53.2577C105.927 53.2238 105.954 53.1837 105.972 53.1395C105.991 53.0952 106 53.0479 106 53C106 52.9521 105.991 52.9048 105.972 52.8605C105.954 52.8163 105.927 52.7762 105.893 52.7423C105.859 52.7085 105.819 52.6816 105.775 52.6633C105.731 52.645 105.683 52.6356 105.636 52.6356L101.364 52.6359L101.364 48.3644C101.364 48.2678 101.326 48.1751 101.258 48.1067C101.189 48.0384 101.097 48 101 48C100.903 48 100.811 48.0384 100.742 48.1067C100.674 48.1751 100.636 48.2678 100.636 48.3644L100.636 52.6359L96.3644 52.6356C96.2678 52.6356 96.1751 52.674 96.1067 52.7423C96.0384 52.8107 96 52.9034 96 53C96 53.0966 96.0384 53.1893 96.1067 53.2577C96.1751 53.326 96.2678 53.3644 96.3644 53.3644L100.636 53.3641L100.636 57.6356C100.636 57.7322 100.674 57.8249 100.742 57.8933C100.811 57.9616 100.903 58 101 58C101.097 58 101.189 57.9616 101.258 57.8933C101.326 57.8249 101.364 57.7322 101.364 57.6356L101.364 53.3641L105.636 53.3644Z" fill="white"/>
<path d="M105.636 41.3644C105.683 41.3644 105.731 41.355 105.775 41.3367C105.819 41.3184 105.859 41.2915 105.893 41.2577C105.927 41.2238 105.954 41.1837 105.972 41.1395C105.991 41.0952 106 41.0479 106 41C106 40.9521 105.991 40.9048 105.972 40.8605C105.954 40.8163 105.927 40.7762 105.893 40.7423C105.859 40.7085 105.819 40.6816 105.775 40.6633C105.731 40.645 105.683 40.6356 105.636 40.6356L101.364 40.6359L101.364 36.3644C101.364 36.2678 101.326 36.1751 101.258 36.1067C101.189 36.0384 101.097 36 101 36C100.903 36 100.811 36.0384 100.742 36.1067C100.674 36.1751 100.636 36.2678 100.636 36.3644L100.636 40.6359L96.3644 40.6356C96.2678 40.6356 96.1751 40.674 96.1067 40.7423C96.0384 40.8107 96 40.9034 96 41C96 41.0966 96.0384 41.1893 96.1067 41.2577C96.1751 41.326 96.2678 41.3644 96.3644 41.3644L100.636 41.3641L100.636 45.6356C100.636 45.7322 100.674 45.8249 100.742 45.8933C100.811 45.9616 100.903 46 101 46C101.097 46 101.189 45.9616 101.258 45.8933C101.326 45.8249 101.364 45.7322 101.364 45.6356L101.364 41.3641L105.636 41.3644Z" fill="white"/>
<path d="M105.636 65.3644C105.683 65.3644 105.731 65.355 105.775 65.3367C105.819 65.3184 105.859 65.2915 105.893 65.2577C105.927 65.2238 105.954 65.1837 105.972 65.1395C105.991 65.0952 106 65.0479 106 65C106 64.9521 105.991 64.9048 105.972 64.8605C105.954 64.8163 105.927 64.7762 105.893 64.7423C105.859 64.7085 105.819 64.6816 105.775 64.6633C105.731 64.645 105.683 64.6356 105.636 64.6356L101.364 64.6359L101.364 60.3644C101.364 60.2678 101.326 60.1751 101.258 60.1067C101.189 60.0384 101.097 60 101 60C100.903 60 100.811 60.0384 100.742 60.1067C100.674 60.1751 100.636 60.2678 100.636 60.3644L100.636 64.6359L96.3644 64.6356C96.2678 64.6356 96.1751 64.674 96.1067 64.7423C96.0384 64.8107 96 64.9034 96 65C96 65.0966 96.0384 65.1893 96.1067 65.2577C96.1751 65.326 96.2678 65.3644 96.3644 65.3644L100.636 65.3641L100.636 69.6356C100.636 69.7322 100.674 69.8249 100.742 69.8933C100.811 69.9616 100.903 70 101 70C101.097 70 101.189 69.9616 101.258 69.8933C101.326 69.8249 101.364 69.7322 101.364 69.6356L101.364 65.3641L105.636 65.3644Z" fill="white"/>
<path d="M93.6356 5.36441C93.6834 5.36441 93.7308 5.35498 93.775 5.33667C93.8193 5.31836 93.8594 5.29151 93.8933 5.25768C93.9271 5.22384 93.9539 5.18366 93.9723 5.13945C93.9906 5.09524 94 5.04785 94 5C94 4.95215 93.9906 4.90476 93.9723 4.86055C93.9539 4.81633 93.9271 4.77616 93.8933 4.74232C93.8594 4.70849 93.8193 4.68164 93.775 4.66333C93.7308 4.64502 93.6834 4.63559 93.6356 4.63559L89.3641 4.63591L89.3644 0.364409C89.3644 0.267762 89.326 0.175073 89.2577 0.106732C89.1893 0.038393 89.0966 0 89 0C88.9034 0 88.8107 0.038393 88.7423 0.106732C88.674 0.175073 88.6356 0.267762 88.6356 0.364409L88.6359 4.63591L84.3644 4.63559C84.2678 4.63559 84.1751 4.67398 84.1067 4.74232C84.0384 4.81066 84 4.90335 84 5C84 5.09665 84.0384 5.18934 84.1067 5.25768C84.1751 5.32602 84.2678 5.36441 84.3644 5.36441L88.6359 5.36409L88.6356 9.63559C88.6356 9.73224 88.674 9.82493 88.7423 9.89327C88.8107 9.96161 88.9034 10 89 10C89.0966 10 89.1893 9.96161 89.2577 9.89327C89.326 9.82493 89.3644 9.73224 89.3644 9.63559L89.3641 5.36409L93.6356 5.36441Z" fill="white"/>
<path d="M93.6356 17.3644C93.6834 17.3644 93.7308 17.355 93.775 17.3367C93.8193 17.3184 93.8594 17.2915 93.8933 17.2577C93.9271 17.2238 93.9539 17.1837 93.9723 17.1395C93.9906 17.0952 94 17.0479 94 17C94 16.9521 93.9906 16.9048 93.9723 16.8605C93.9539 16.8163 93.9271 16.7762 93.8933 16.7423C93.8594 16.7085 93.8193 16.6816 93.775 16.6633C93.7308 16.645 93.6834 16.6356 93.6356 16.6356L89.3641 16.6359L89.3644 12.3644C89.3644 12.2678 89.326 12.1751 89.2577 12.1067C89.1893 12.0384 89.0966 12 89 12C88.9034 12 88.8107 12.0384 88.7423 12.1067C88.674 12.1751 88.6356 12.2678 88.6356 12.3644L88.6359 16.6359L84.3644 16.6356C84.2678 16.6356 84.1751 16.674 84.1067 16.7423C84.0384 16.8107 84 16.9034 84 17C84 17.0966 84.0384 17.1893 84.1067 17.2577C84.1751 17.326 84.2678 17.3644 84.3644 17.3644L88.6359 17.3641L88.6356 21.6356C88.6356 21.7322 88.674 21.8249 88.7423 21.8933C88.8107 21.9616 88.9034 22 89 22C89.0966 22 89.1893 21.9616 89.2577 21.8933C89.326 21.8249 89.3644 21.7322 89.3644 21.6356L89.3641 17.3641L93.6356 17.3644Z" fill="white"/>
<path d="M93.6356 29.3644C93.6834 29.3644 93.7308 29.355 93.775 29.3367C93.8193 29.3184 93.8594 29.2915 93.8933 29.2577C93.9271 29.2238 93.9539 29.1837 93.9723 29.1395C93.9906 29.0952 94 29.0479 94 29C94 28.9521 93.9906 28.9048 93.9723 28.8605C93.9539 28.8163 93.9271 28.7762 93.8933 28.7423C93.8594 28.7085 93.8193 28.6816 93.775 28.6633C93.7308 28.645 93.6834 28.6356 93.6356 28.6356L89.3641 28.6359L89.3644 24.3644C89.3644 24.2678 89.326 24.1751 89.2577 24.1067C89.1893 24.0384 89.0966 24 89 24C88.9034 24 88.8107 24.0384 88.7423 24.1067C88.674 24.1751 88.6356 24.2678 88.6356 24.3644L88.6359 28.6359L84.3644 28.6356C84.2678 28.6356 84.1751 28.674 84.1067 28.7423C84.0384 28.8107 84 28.9034 84 29C84 29.0966 84.0384 29.1893 84.1067 29.2577C84.1751 29.326 84.2678 29.3644 84.3644 29.3644L88.6359 29.3641L88.6356 33.6356C88.6356 33.7322 88.674 33.8249 88.7423 33.8933C88.8107 33.9616 88.9034 34 89 34C89.0966 34 89.1893 33.9616 89.2577 33.8933C89.326 33.8249 89.3644 33.7322 89.3644 33.6356L89.3641 29.3641L93.6356 29.3644Z" fill="white"/>
<path d="M93.6356 41.3644C93.6834 41.3644 93.7308 41.355 93.775 41.3367C93.8193 41.3184 93.8594 41.2915 93.8933 41.2577C93.9271 41.2238 93.9539 41.1837 93.9723 41.1395C93.9906 41.0952 94 41.0479 94 41C94 40.9521 93.9906 40.9048 93.9723 40.8605C93.9539 40.8163 93.9271 40.7762 93.8933 40.7423C93.8594 40.7085 93.8193 40.6816 93.775 40.6633C93.7308 40.645 93.6834 40.6356 93.6356 40.6356L89.3641 40.6359L89.3644 36.3644C89.3644 36.2678 89.326 36.1751 89.2577 36.1067C89.1893 36.0384 89.0966 36 89 36C88.9034 36 88.8107 36.0384 88.7423 36.1067C88.674 36.1751 88.6356 36.2678 88.6356 36.3644L88.6359 40.6359L84.3644 40.6356C84.2678 40.6356 84.1751 40.674 84.1067 40.7423C84.0384 40.8107 84 40.9034 84 41C84 41.0966 84.0384 41.1893 84.1067 41.2577C84.1751 41.326 84.2678 41.3644 84.3644 41.3644L88.6359 41.3641L88.6356 45.6356C88.6356 45.7322 88.674 45.8249 88.7423 45.8933C88.8107 45.9616 88.9034 46 89 46C89.0966 46 89.1893 45.9616 89.2577 45.8933C89.326 45.8249 89.3644 45.7322 89.3644 45.6356L89.3641 41.3641L93.6356 41.3644Z" fill="white"/>
<path d="M81.6356 5.36441C81.6834 5.36441 81.7308 5.35498 81.775 5.33667C81.8193 5.31836 81.8594 5.29151 81.8933 5.25768C81.9271 5.22384 81.9539 5.18366 81.9723 5.13945C81.9906 5.09524 82 5.04785 82 5C82 4.95215 81.9906 4.90476 81.9723 4.86055C81.9539 4.81633 81.9271 4.77616 81.8933 4.74232C81.8594 4.70849 81.8193 4.68164 81.775 4.66333C81.7308 4.64502 81.6834 4.63559 81.6356 4.63559L77.3641 4.63591L77.3644 0.364409C77.3644 0.267762 77.326 0.175073 77.2577 0.106732C77.1893 0.038393 77.0966 0 77 0C76.9034 0 76.8107 0.038393 76.7423 0.106732C76.674 0.175073 76.6356 0.267762 76.6356 0.364409L76.6359 4.63591L72.3644 4.63559C72.2678 4.63559 72.1751 4.67398 72.1067 4.74232C72.0384 4.81066 72 4.90335 72 5C72 5.09665 72.0384 5.18934 72.1067 5.25768C72.1751 5.32602 72.2678 5.36441 72.3644 5.36441L76.6359 5.36409L76.6356 9.63559C76.6356 9.73224 76.674 9.82493 76.7423 9.89327C76.8107 9.96161 76.9034 10 77 10C77.0966 10 77.1893 9.96161 77.2577 9.89327C77.326 9.82493 77.3644 9.73224 77.3644 9.63559L77.3641 5.36409L81.6356 5.36441Z" fill="white"/>
<path d="M81.6356 17.3644C81.6834 17.3644 81.7308 17.355 81.775 17.3367C81.8193 17.3184 81.8594 17.2915 81.8933 17.2577C81.9271 17.2238 81.9539 17.1837 81.9723 17.1395C81.9906 17.0952 82 17.0479 82 17C82 16.9521 81.9906 16.9048 81.9723 16.8605C81.9539 16.8163 81.9271 16.7762 81.8933 16.7423C81.8594 16.7085 81.8193 16.6816 81.775 16.6633C81.7308 16.645 81.6834 16.6356 81.6356 16.6356L77.3641 16.6359L77.3644 12.3644C77.3644 12.2678 77.326 12.1751 77.2577 12.1067C77.1893 12.0384 77.0966 12 77 12C76.9034 12 76.8107 12.0384 76.7423 12.1067C76.674 12.1751 76.6356 12.2678 76.6356 12.3644L76.6359 16.6359L72.3644 16.6356C72.2678 16.6356 72.1751 16.674 72.1067 16.7423C72.0384 16.8107 72 16.9034 72 17C72 17.0966 72.0384 17.1893 72.1067 17.2577C72.1751 17.326 72.2678 17.3644 72.3644 17.3644L76.6359 17.3641L76.6356 21.6356C76.6356 21.7322 76.674 21.8249 76.7423 21.8933C76.8107 21.9616 76.9034 22 77 22C77.0966 22 77.1893 21.9616 77.2577 21.8933C77.326 21.8249 77.3644 21.7322 77.3644 21.6356L77.3641 17.3641L81.6356 17.3644Z" fill="white"/>
<path d="M81.6356 29.3644C81.6834 29.3644 81.7308 29.355 81.775 29.3367C81.8193 29.3184 81.8594 29.2915 81.8933 29.2577C81.9271 29.2238 81.9539 29.1837 81.9723 29.1395C81.9906 29.0952 82 29.0479 82 29C82 28.9521 81.9906 28.9048 81.9723 28.8605C81.9539 28.8163 81.9271 28.7762 81.8933 28.7423C81.8594 28.7085 81.8193 28.6816 81.775 28.6633C81.7308 28.645 81.6834 28.6356 81.6356 28.6356L77.3641 28.6359L77.3644 24.3644C77.3644 24.2678 77.326 24.1751 77.2577 24.1067C77.1893 24.0384 77.0966 24 77 24C76.9034 24 76.8107 24.0384 76.7423 24.1067C76.674 24.1751 76.6356 24.2678 76.6356 24.3644L76.6359 28.6359L72.3644 28.6356C72.2678 28.6356 72.1751 28.674 72.1067 28.7423C72.0384 28.8107 72 28.9034 72 29C72 29.0966 72.0384 29.1893 72.1067 29.2577C72.1751 29.326 72.2678 29.3644 72.3644 29.3644L76.6359 29.3641L76.6356 33.6356C76.6356 33.7322 76.674 33.8249 76.7423 33.8933C76.8107 33.9616 76.9034 34 77 34C77.0966 34 77.1893 33.9616 77.2577 33.8933C77.326 33.8249 77.3644 33.7322 77.3644 33.6356L77.3641 29.3641L81.6356 29.3644Z" fill="white"/>
<path d="M81.6356 41.3644C81.6834 41.3644 81.7308 41.355 81.775 41.3367C81.8193 41.3184 81.8594 41.2915 81.8933 41.2577C81.9271 41.2238 81.9539 41.1837 81.9723 41.1395C81.9906 41.0952 82 41.0479 82 41C82 40.9521 81.9906 40.9048 81.9723 40.8605C81.9539 40.8163 81.9271 40.7762 81.8933 40.7423C81.8594 40.7085 81.8193 40.6816 81.775 40.6633C81.7308 40.645 81.6834 40.6356 81.6356 40.6356L77.3641 40.6359L77.3644 36.3644C77.3644 36.2678 77.326 36.1751 77.2577 36.1067C77.1893 36.0384 77.0966 36 77 36C76.9034 36 76.8107 36.0384 76.7423 36.1067C76.674 36.1751 76.6356 36.2678 76.6356 36.3644L76.6359 40.6359L72.3644 40.6356C72.2678 40.6356 72.1751 40.674 72.1067 40.7423C72.0384 40.8107 72 40.9034 72 41C72 41.0966 72.0384 41.1893 72.1067 41.2577C72.1751 41.326 72.2678 41.3644 72.3644 41.3644L76.6359 41.3641L76.6356 45.6356C76.6356 45.7322 76.674 45.8249 76.7423 45.8933C76.8107 45.9616 76.9034 46 77 46C77.0966 46 77.1893 45.9616 77.2577 45.8933C77.326 45.8249 77.3644 45.7322 77.3644 45.6356L77.3641 41.3641L81.6356 41.3644Z" fill="white"/>
<path d="M69.6356 5.36441C69.6834 5.36441 69.7308 5.35498 69.775 5.33667C69.8193 5.31836 69.8594 5.29151 69.8933 5.25768C69.9271 5.22384 69.9539 5.18366 69.9723 5.13945C69.9906 5.09524 70 5.04785 70 5C70 4.95215 69.9906 4.90476 69.9723 4.86055C69.9539 4.81633 69.9271 4.77616 69.8933 4.74232C69.8594 4.70849 69.8193 4.68164 69.775 4.66333C69.7308 4.64502 69.6834 4.63559 69.6356 4.63559L65.3641 4.63591L65.3644 0.364409C65.3644 0.267762 65.326 0.175073 65.2577 0.106732C65.1893 0.038393 65.0966 0 65 0C64.9034 0 64.8107 0.038393 64.7423 0.106732C64.674 0.175073 64.6356 0.267762 64.6356 0.364409L64.6359 4.63591L60.3644 4.63559C60.2678 4.63559 60.1751 4.67398 60.1067 4.74232C60.0384 4.81066 60 4.90335 60 5C60 5.09665 60.0384 5.18934 60.1067 5.25768C60.1751 5.32602 60.2678 5.36441 60.3644 5.36441L64.6359 5.36409L64.6356 9.63559C64.6356 9.73224 64.674 9.82493 64.7423 9.89327C64.8107 9.96161 64.9034 10 65 10C65.0966 10 65.1893 9.96161 65.2577 9.89327C65.326 9.82493 65.3644 9.73224 65.3644 9.63559L65.3641 5.36409L69.6356 5.36441Z" fill="white"/>
<path d="M69.6356 17.3644C69.6834 17.3644 69.7308 17.355 69.775 17.3367C69.8193 17.3184 69.8594 17.2915 69.8933 17.2577C69.9271 17.2238 69.9539 17.1837 69.9723 17.1395C69.9906 17.0952 70 17.0479 70 17C70 16.9521 69.9906 16.9048 69.9723 16.8605C69.9539 16.8163 69.9271 16.7762 69.8933 16.7423C69.8594 16.7085 69.8193 16.6816 69.775 16.6633C69.7308 16.645 69.6834 16.6356 69.6356 16.6356L65.3641 16.6359L65.3644 12.3644C65.3644 12.2678 65.326 12.1751 65.2577 12.1067C65.1893 12.0384 65.0966 12 65 12C64.9034 12 64.8107 12.0384 64.7423 12.1067C64.674 12.1751 64.6356 12.2678 64.6356 12.3644L64.6359 16.6359L60.3644 16.6356C60.2678 16.6356 60.1751 16.674 60.1067 16.7423C60.0384 16.8107 60 16.9034 60 17C60 17.0966 60.0384 17.1893 60.1067 17.2577C60.1751 17.326 60.2678 17.3644 60.3644 17.3644L64.6359 17.3641L64.6356 21.6356C64.6356 21.7322 64.674 21.8249 64.7423 21.8933C64.8107 21.9616 64.9034 22 65 22C65.0966 22 65.1893 21.9616 65.2577 21.8933C65.326 21.8249 65.3644 21.7322 65.3644 21.6356L65.3641 17.3641L69.6356 17.3644Z" fill="white"/>
<path d="M69.6356 29.3644C69.6834 29.3644 69.7308 29.355 69.775 29.3367C69.8193 29.3184 69.8594 29.2915 69.8933 29.2577C69.9271 29.2238 69.9539 29.1837 69.9723 29.1395C69.9906 29.0952 70 29.0479 70 29C70 28.9521 69.9906 28.9048 69.9723 28.8605C69.9539 28.8163 69.9271 28.7762 69.8933 28.7423C69.8594 28.7085 69.8193 28.6816 69.775 28.6633C69.7308 28.645 69.6834 28.6356 69.6356 28.6356L65.3641 28.6359L65.3644 24.3644C65.3644 24.2678 65.326 24.1751 65.2577 24.1067C65.1893 24.0384 65.0966 24 65 24C64.9034 24 64.8107 24.0384 64.7423 24.1067C64.674 24.1751 64.6356 24.2678 64.6356 24.3644L64.6359 28.6359L60.3644 28.6356C60.2678 28.6356 60.1751 28.674 60.1067 28.7423C60.0384 28.8107 60 28.9034 60 29C60 29.0966 60.0384 29.1893 60.1067 29.2577C60.1751 29.326 60.2678 29.3644 60.3644 29.3644L64.6359 29.3641L64.6356 33.6356C64.6356 33.7322 64.674 33.8249 64.7423 33.8933C64.8107 33.9616 64.9034 34 65 34C65.0966 34 65.1893 33.9616 65.2577 33.8933C65.326 33.8249 65.3644 33.7322 65.3644 33.6356L65.3641 29.3641L69.6356 29.3644Z" fill="white"/>
<path d="M69.6356 41.3644C69.6834 41.3644 69.7308 41.355 69.775 41.3367C69.8193 41.3184 69.8594 41.2915 69.8933 41.2577C69.9271 41.2238 69.9539 41.1837 69.9723 41.1395C69.9906 41.0952 70 41.0479 70 41C70 40.9521 69.9906 40.9048 69.9723 40.8605C69.9539 40.8163 69.9271 40.7762 69.8933 40.7423C69.8594 40.7085 69.8193 40.6816 69.775 40.6633C69.7308 40.645 69.6834 40.6356 69.6356 40.6356L65.3641 40.6359L65.3644 36.3644C65.3644 36.2678 65.326 36.1751 65.2577 36.1067C65.1893 36.0384 65.0966 36 65 36C64.9034 36 64.8107 36.0384 64.7423 36.1067C64.674 36.1751 64.6356 36.2678 64.6356 36.3644L64.6359 40.6359L60.3644 40.6356C60.2678 40.6356 60.1751 40.674 60.1067 40.7423C60.0384 40.8107 60 40.9034 60 41C60 41.0966 60.0384 41.1893 60.1067 41.2577C60.1751 41.326 60.2678 41.3644 60.3644 41.3644L64.6359 41.3641L64.6356 45.6356C64.6356 45.7322 64.674 45.8249 64.7423 45.8933C64.8107 45.9616 64.9034 46 65 46C65.0966 46 65.1893 45.9616 65.2577 45.8933C65.326 45.8249 65.3644 45.7322 65.3644 45.6356L65.3641 41.3641L69.6356 41.3644Z" fill="white"/>
<path d="M69.6356 53.3644C69.6834 53.3644 69.7308 53.355 69.775 53.3367C69.8193 53.3184 69.8594 53.2915 69.8933 53.2577C69.9271 53.2238 69.9539 53.1837 69.9723 53.1395C69.9906 53.0952 70 53.0479 70 53C70 52.9521 69.9906 52.9048 69.9723 52.8605C69.9539 52.8163 69.9271 52.7762 69.8933 52.7423C69.8594 52.7085 69.8193 52.6816 69.775 52.6633C69.7308 52.645 69.6834 52.6356 69.6356 52.6356L65.3641 52.6359L65.3644 48.3644C65.3644 48.2678 65.326 48.1751 65.2577 48.1067C65.1893 48.0384 65.0966 48 65 48C64.9034 48 64.8107 48.0384 64.7423 48.1067C64.674 48.1751 64.6356 48.2678 64.6356 48.3644L64.6359 52.6359L60.3644 52.6356C60.2678 52.6356 60.1751 52.674 60.1067 52.7423C60.0384 52.8107 60 52.9034 60 53C60 53.0966 60.0384 53.1893 60.1067 53.2577C60.1751 53.326 60.2678 53.3644 60.3644 53.3644L64.6359 53.3641L64.6356 57.6356C64.6356 57.7322 64.674 57.8249 64.7423 57.8933C64.8107 57.9616 64.9034 58 65 58C65.0966 58 65.1893 57.9616 65.2577 57.8933C65.326 57.8249 65.3644 57.7322 65.3644 57.6356L65.3641 53.3641L69.6356 53.3644Z" fill="white"/>
<path d="M57.6356 5.36441C57.6834 5.36441 57.7308 5.35498 57.775 5.33667C57.8193 5.31836 57.8594 5.29151 57.8933 5.25768C57.9271 5.22384 57.9539 5.18366 57.9723 5.13945C57.9906 5.09524 58 5.04785 58 5C58 4.95215 57.9906 4.90476 57.9723 4.86055C57.9539 4.81633 57.9271 4.77616 57.8933 4.74232C57.8594 4.70849 57.8193 4.68164 57.775 4.66333C57.7308 4.64502 57.6834 4.63559 57.6356 4.63559L53.3641 4.63591L53.3644 0.364409C53.3644 0.267762 53.326 0.175073 53.2577 0.106732C53.1893 0.038393 53.0966 0 53 0C52.9034 0 52.8107 0.038393 52.7423 0.106732C52.674 0.175073 52.6356 0.267762 52.6356 0.364409L52.6359 4.63591L48.3644 4.63559C48.2678 4.63559 48.1751 4.67398 48.1067 4.74232C48.0384 4.81066 48 4.90335 48 5C48 5.09665 48.0384 5.18934 48.1067 5.25768C48.1751 5.32602 48.2678 5.36441 48.3644 5.36441L52.6359 5.36409L52.6356 9.63559C52.6356 9.73224 52.674 9.82493 52.7423 9.89327C52.8107 9.96161 52.9034 10 53 10C53.0966 10 53.1893 9.96161 53.2577 9.89327C53.326 9.82493 53.3644 9.73224 53.3644 9.63559L53.3641 5.36409L57.6356 5.36441Z" fill="white"/>
<path d="M57.6356 17.3644C57.6834 17.3644 57.7308 17.355 57.775 17.3367C57.8193 17.3184 57.8594 17.2915 57.8933 17.2577C57.9271 17.2238 57.9539 17.1837 57.9723 17.1395C57.9906 17.0952 58 17.0479 58 17C58 16.9521 57.9906 16.9048 57.9723 16.8605C57.9539 16.8163 57.9271 16.7762 57.8933 16.7423C57.8594 16.7085 57.8193 16.6816 57.775 16.6633C57.7308 16.645 57.6834 16.6356 57.6356 16.6356L53.3641 16.6359L53.3644 12.3644C53.3644 12.2678 53.326 12.1751 53.2577 12.1067C53.1893 12.0384 53.0966 12 53 12C52.9034 12 52.8107 12.0384 52.7423 12.1067C52.674 12.1751 52.6356 12.2678 52.6356 12.3644L52.6359 16.6359L48.3644 16.6356C48.2678 16.6356 48.1751 16.674 48.1067 16.7423C48.0384 16.8107 48 16.9034 48 17C48 17.0966 48.0384 17.1893 48.1067 17.2577C48.1751 17.326 48.2678 17.3644 48.3644 17.3644L52.6359 17.3641L52.6356 21.6356C52.6356 21.7322 52.674 21.8249 52.7423 21.8933C52.8107 21.9616 52.9034 22 53 22C53.0966 22 53.1893 21.9616 53.2577 21.8933C53.326 21.8249 53.3644 21.7322 53.3644 21.6356L53.3641 17.3641L57.6356 17.3644Z" fill="white"/>
<path d="M57.6356 29.3644C57.6834 29.3644 57.7308 29.355 57.775 29.3367C57.8193 29.3184 57.8594 29.2915 57.8933 29.2577C57.9271 29.2238 57.9539 29.1837 57.9723 29.1395C57.9906 29.0952 58 29.0479 58 29C58 28.9521 57.9906 28.9048 57.9723 28.8605C57.9539 28.8163 57.9271 28.7762 57.8933 28.7423C57.8594 28.7085 57.8193 28.6816 57.775 28.6633C57.7308 28.645 57.6834 28.6356 57.6356 28.6356L53.3641 28.6359L53.3644 24.3644C53.3644 24.2678 53.326 24.1751 53.2577 24.1067C53.1893 24.0384 53.0966 24 53 24C52.9034 24 52.8107 24.0384 52.7423 24.1067C52.674 24.1751 52.6356 24.2678 52.6356 24.3644L52.6359 28.6359L48.3644 28.6356C48.2678 28.6356 48.1751 28.674 48.1067 28.7423C48.0384 28.8107 48 28.9034 48 29C48 29.0966 48.0384 29.1893 48.1067 29.2577C48.1751 29.326 48.2678 29.3644 48.3644 29.3644L52.6359 29.3641L52.6356 33.6356C52.6356 33.7322 52.674 33.8249 52.7423 33.8933C52.8107 33.9616 52.9034 34 53 34C53.0966 34 53.1893 33.9616 53.2577 33.8933C53.326 33.8249 53.3644 33.7322 53.3644 33.6356L53.3641 29.3641L57.6356 29.3644Z" fill="white"/>
<path d="M57.6356 41.3644C57.6834 41.3644 57.7308 41.355 57.775 41.3367C57.8193 41.3184 57.8594 41.2915 57.8933 41.2577C57.9271 41.2238 57.9539 41.1837 57.9723 41.1395C57.9906 41.0952 58 41.0479 58 41C58 40.9521 57.9906 40.9048 57.9723 40.8605C57.9539 40.8163 57.9271 40.7762 57.8933 40.7423C57.8594 40.7085 57.8193 40.6816 57.775 40.6633C57.7308 40.645 57.6834 40.6356 57.6356 40.6356L53.3641 40.6359L53.3644 36.3644C53.3644 36.2678 53.326 36.1751 53.2577 36.1067C53.1893 36.0384 53.0966 36 53 36C52.9034 36 52.8107 36.0384 52.7423 36.1067C52.674 36.1751 52.6356 36.2678 52.6356 36.3644L52.6359 40.6359L48.3644 40.6356C48.2678 40.6356 48.1751 40.674 48.1067 40.7423C48.0384 40.8107 48 40.9034 48 41C48 41.0966 48.0384 41.1893 48.1067 41.2577C48.1751 41.326 48.2678 41.3644 48.3644 41.3644L52.6359 41.3641L52.6356 45.6356C52.6356 45.7322 52.674 45.8249 52.7423 45.8933C52.8107 45.9616 52.9034 46 53 46C53.0966 46 53.1893 45.9616 53.2577 45.8933C53.326 45.8249 53.3644 45.7322 53.3644 45.6356L53.3641 41.3641L57.6356 41.3644Z" fill="white"/>
<path d="M45.6356 5.36441C45.6834 5.36441 45.7308 5.35498 45.775 5.33667C45.8193 5.31836 45.8594 5.29151 45.8933 5.25768C45.9271 5.22384 45.9539 5.18366 45.9723 5.13945C45.9906 5.09524 46 5.04785 46 5C46 4.95215 45.9906 4.90476 45.9723 4.86055C45.9539 4.81633 45.9271 4.77616 45.8933 4.74232C45.8594 4.70849 45.8193 4.68164 45.775 4.66333C45.7308 4.64502 45.6834 4.63559 45.6356 4.63559L41.3641 4.63591L41.3644 0.364409C41.3644 0.267762 41.326 0.175073 41.2577 0.106732C41.1893 0.038393 41.0966 0 41 0C40.9034 0 40.8107 0.038393 40.7423 0.106732C40.674 0.175073 40.6356 0.267762 40.6356 0.364409L40.6359 4.63591L36.3644 4.63559C36.2678 4.63559 36.1751 4.67398 36.1067 4.74232C36.0384 4.81066 36 4.90335 36 5C36 5.09665 36.0384 5.18934 36.1067 5.25768C36.1751 5.32602 36.2678 5.36441 36.3644 5.36441L40.6359 5.36409L40.6356 9.63559C40.6356 9.73224 40.674 9.82493 40.7423 9.89327C40.8107 9.96161 40.9034 10 41 10C41.0966 10 41.1893 9.96161 41.2577 9.89327C41.326 9.82493 41.3644 9.73224 41.3644 9.63559L41.3641 5.36409L45.6356 5.36441Z" fill="white"/>
<path d="M45.6356 17.3644C45.6834 17.3644 45.7308 17.355 45.775 17.3367C45.8193 17.3184 45.8594 17.2915 45.8933 17.2577C45.9271 17.2238 45.9539 17.1837 45.9723 17.1395C45.9906 17.0952 46 17.0479 46 17C46 16.9521 45.9906 16.9048 45.9723 16.8605C45.9539 16.8163 45.9271 16.7762 45.8933 16.7423C45.8594 16.7085 45.8193 16.6816 45.775 16.6633C45.7308 16.645 45.6834 16.6356 45.6356 16.6356L41.3641 16.6359L41.3644 12.3644C41.3644 12.2678 41.326 12.1751 41.2577 12.1067C41.1893 12.0384 41.0966 12 41 12C40.9034 12 40.8107 12.0384 40.7423 12.1067C40.674 12.1751 40.6356 12.2678 40.6356 12.3644L40.6359 16.6359L36.3644 16.6356C36.2678 16.6356 36.1751 16.674 36.1067 16.7423C36.0384 16.8107 36 16.9034 36 17C36 17.0966 36.0384 17.1893 36.1067 17.2577C36.1751 17.326 36.2678 17.3644 36.3644 17.3644L40.6359 17.3641L40.6356 21.6356C40.6356 21.7322 40.674 21.8249 40.7423 21.8933C40.8107 21.9616 40.9034 22 41 22C41.0966 22 41.1893 21.9616 41.2577 21.8933C41.326 21.8249 41.3644 21.7322 41.3644 21.6356L41.3641 17.3641L45.6356 17.3644Z" fill="white"/>
<path d="M45.6356 29.3644C45.6834 29.3644 45.7308 29.355 45.775 29.3367C45.8193 29.3184 45.8594 29.2915 45.8933 29.2577C45.9271 29.2238 45.9539 29.1837 45.9723 29.1395C45.9906 29.0952 46 29.0479 46 29C46 28.9521 45.9906 28.9048 45.9723 28.8605C45.9539 28.8163 45.9271 28.7762 45.8933 28.7423C45.8594 28.7085 45.8193 28.6816 45.775 28.6633C45.7308 28.645 45.6834 28.6356 45.6356 28.6356L41.3641 28.6359L41.3644 24.3644C41.3644 24.2678 41.326 24.1751 41.2577 24.1067C41.1893 24.0384 41.0966 24 41 24C40.9034 24 40.8107 24.0384 40.7423 24.1067C40.674 24.1751 40.6356 24.2678 40.6356 24.3644L40.6359 28.6359L36.3644 28.6356C36.2678 28.6356 36.1751 28.674 36.1067 28.7423C36.0384 28.8107 36 28.9034 36 29C36 29.0966 36.0384 29.1893 36.1067 29.2577C36.1751 29.326 36.2678 29.3644 36.3644 29.3644L40.6359 29.3641L40.6356 33.6356C40.6356 33.7322 40.674 33.8249 40.7423 33.8933C40.8107 33.9616 40.9034 34 41 34C41.0966 34 41.1893 33.9616 41.2577 33.8933C41.326 33.8249 41.3644 33.7322 41.3644 33.6356L41.3641 29.3641L45.6356 29.3644Z" fill="white"/>
<path d="M33.6356 5.36441C33.6834 5.36441 33.7308 5.35498 33.775 5.33667C33.8193 5.31836 33.8594 5.29151 33.8933 5.25768C33.9271 5.22384 33.9539 5.18366 33.9723 5.13945C33.9906 5.09524 34 5.04785 34 5C34 4.95215 33.9906 4.90476 33.9723 4.86055C33.9539 4.81633 33.9271 4.77616 33.8933 4.74232C33.8594 4.70849 33.8193 4.68164 33.775 4.66333C33.7308 4.64502 33.6834 4.63559 33.6356 4.63559L29.3641 4.63591L29.3644 0.364409C29.3644 0.267762 29.326 0.175073 29.2577 0.106732C29.1893 0.038393 29.0966 0 29 0C28.9034 0 28.8107 0.038393 28.7423 0.106732C28.674 0.175073 28.6356 0.267762 28.6356 0.364409L28.6359 4.63591L24.3644 4.63559C24.2678 4.63559 24.1751 4.67398 24.1067 4.74232C24.0384 4.81066 24 4.90335 24 5C24 5.09665 24.0384 5.18934 24.1067 5.25768C24.1751 5.32602 24.2678 5.36441 24.3644 5.36441L28.6359 5.36409L28.6356 9.63559C28.6356 9.73224 28.674 9.82493 28.7423 9.89327C28.8107 9.96161 28.9034 10 29 10C29.0966 10 29.1893 9.96161 29.2577 9.89327C29.326 9.82493 29.3644 9.73224 29.3644 9.63559L29.3641 5.36409L33.6356 5.36441Z" fill="white"/>
<path d="M33.6356 17.3644C33.6834 17.3644 33.7308 17.355 33.775 17.3367C33.8193 17.3184 33.8594 17.2915 33.8933 17.2577C33.9271 17.2238 33.9539 17.1837 33.9723 17.1395C33.9906 17.0952 34 17.0479 34 17C34 16.9521 33.9906 16.9048 33.9723 16.8605C33.9539 16.8163 33.9271 16.7762 33.8933 16.7423C33.8594 16.7085 33.8193 16.6816 33.775 16.6633C33.7308 16.645 33.6834 16.6356 33.6356 16.6356L29.3641 16.6359L29.3644 12.3644C29.3644 12.2678 29.326 12.1751 29.2577 12.1067C29.1893 12.0384 29.0966 12 29 12C28.9034 12 28.8107 12.0384 28.7423 12.1067C28.674 12.1751 28.6356 12.2678 28.6356 12.3644L28.6359 16.6359L24.3644 16.6356C24.2678 16.6356 24.1751 16.674 24.1067 16.7423C24.0384 16.8107 24 16.9034 24 17C24 17.0966 24.0384 17.1893 24.1067 17.2577C24.1751 17.326 24.2678 17.3644 24.3644 17.3644L28.6359 17.3641L28.6356 21.6356C28.6356 21.7322 28.674 21.8249 28.7423 21.8933C28.8107 21.9616 28.9034 22 29 22C29.0966 22 29.1893 21.9616 29.2577 21.8933C29.326 21.8249 29.3644 21.7322 29.3644 21.6356L29.3641 17.3641L33.6356 17.3644Z" fill="white"/>
<path d="M33.6356 29.3644C33.6834 29.3644 33.7308 29.355 33.775 29.3367C33.8193 29.3184 33.8594 29.2915 33.8933 29.2577C33.9271 29.2238 33.9539 29.1837 33.9723 29.1395C33.9906 29.0952 34 29.0479 34 29C34 28.9521 33.9906 28.9048 33.9723 28.8605C33.9539 28.8163 33.9271 28.7762 33.8933 28.7423C33.8594 28.7085 33.8193 28.6816 33.775 28.6633C33.7308 28.645 33.6834 28.6356 33.6356 28.6356L29.3641 28.6359L29.3644 24.3644C29.3644 24.2678 29.326 24.1751 29.2577 24.1067C29.1893 24.0384 29.0966 24 29 24C28.9034 24 28.8107 24.0384 28.7423 24.1067C28.674 24.1751 28.6356 24.2678 28.6356 24.3644L28.6359 28.6359L24.3644 28.6356C24.2678 28.6356 24.1751 28.674 24.1067 28.7423C24.0384 28.8107 24 28.9034 24 29C24 29.0966 24.0384 29.1893 24.1067 29.2577C24.1751 29.326 24.2678 29.3644 24.3644 29.3644L28.6359 29.3641L28.6356 33.6356C28.6356 33.7322 28.674 33.8249 28.7423 33.8933C28.8107 33.9616 28.9034 34 29 34C29.0966 34 29.1893 33.9616 29.2577 33.8933C29.326 33.8249 29.3644 33.7322 29.3644 33.6356L29.3641 29.3641L33.6356 29.3644Z" fill="white"/>
<path d="M21.6356 5.36441C21.6834 5.36441 21.7308 5.35498 21.775 5.33667C21.8193 5.31836 21.8594 5.29151 21.8933 5.25768C21.9271 5.22384 21.9539 5.18366 21.9723 5.13945C21.9906 5.09524 22 5.04785 22 5C22 4.95215 21.9906 4.90476 21.9723 4.86055C21.9539 4.81633 21.9271 4.77616 21.8933 4.74232C21.8594 4.70849 21.8193 4.68164 21.775 4.66333C21.7308 4.64502 21.6834 4.63559 21.6356 4.63559L17.3641 4.63591L17.3644 0.364409C17.3644 0.267762 17.326 0.175073 17.2577 0.106732C17.1893 0.038393 17.0966 0 17 0C16.9034 0 16.8107 0.038393 16.7423 0.106732C16.674 0.175073 16.6356 0.267762 16.6356 0.364409L16.6359 4.63591L12.3644 4.63559C12.2678 4.63559 12.1751 4.67398 12.1067 4.74232C12.0384 4.81066 12 4.90335 12 5C12 5.09665 12.0384 5.18934 12.1067 5.25768C12.1751 5.32602 12.2678 5.36441 12.3644 5.36441L16.6359 5.36409L16.6356 9.63559C16.6356 9.73224 16.674 9.82493 16.7423 9.89327C16.8107 9.96161 16.9034 10 17 10C17.0966 10 17.1893 9.96161 17.2577 9.89327C17.326 9.82493 17.3644 9.73224 17.3644 9.63559L17.3641 5.36409L21.6356 5.36441Z" fill="white"/>
<path d="M21.6356 17.3644C21.6834 17.3644 21.7308 17.355 21.775 17.3367C21.8193 17.3184 21.8594 17.2915 21.8933 17.2577C21.9271 17.2238 21.9539 17.1837 21.9723 17.1395C21.9906 17.0952 22 17.0479 22 17C22 16.9521 21.9906 16.9048 21.9723 16.8605C21.9539 16.8163 21.9271 16.7762 21.8933 16.7423C21.8594 16.7085 21.8193 16.6816 21.775 16.6633C21.7308 16.645 21.6834 16.6356 21.6356 16.6356L17.3641 16.6359L17.3644 12.3644C17.3644 12.2678 17.326 12.1751 17.2577 12.1067C17.1893 12.0384 17.0966 12 17 12C16.9034 12 16.8107 12.0384 16.7423 12.1067C16.674 12.1751 16.6356 12.2678 16.6356 12.3644L16.6359 16.6359L12.3644 16.6356C12.2678 16.6356 12.1751 16.674 12.1067 16.7423C12.0384 16.8107 12 16.9034 12 17C12 17.0966 12.0384 17.1893 12.1067 17.2577C12.1751 17.326 12.2678 17.3644 12.3644 17.3644L16.6359 17.3641L16.6356 21.6356C16.6356 21.7322 16.674 21.8249 16.7423 21.8933C16.8107 21.9616 16.9034 22 17 22C17.0966 22 17.1893 21.9616 17.2577 21.8933C17.326 21.8249 17.3644 21.7322 17.3644 21.6356L17.3641 17.3641L21.6356 17.3644Z" fill="white"/>
<path d="M9.63559 17.3644C9.68345 17.3644 9.73083 17.355 9.77504 17.3367C9.81926 17.3184 9.85943 17.2915 9.89327 17.2577C9.92711 17.2238 9.95395 17.1837 9.97226 17.1395C9.99057 17.0952 10 17.0479 10 17C10 16.9521 9.99057 16.9048 9.97226 16.8605C9.95395 16.8163 9.92711 16.7762 9.89327 16.7423C9.85943 16.7085 9.81926 16.6816 9.77504 16.6633C9.73083 16.645 9.68345 16.6356 9.63559 16.6356L5.36409 16.6359L5.36441 12.3644C5.36441 12.2678 5.32602 12.1751 5.25768 12.1067C5.18934 12.0384 5.09665 12 5 12C4.90335 12 4.81066 12.0384 4.74232 12.1067C4.67398 12.1751 4.63559 12.2678 4.63559 12.3644L4.63591 16.6359L0.364409 16.6356C0.267762 16.6356 0.175073 16.674 0.106733 16.7423C0.038393 16.8107 0 16.9034 0 17C0 17.0966 0.038393 17.1893 0.106733 17.2577C0.175073 17.326 0.267762 17.3644 0.364409 17.3644L4.63591 17.3641L4.63559 21.6356C4.63559 21.7322 4.67398 21.8249 4.74232 21.8933C4.81066 21.9616 4.90335 22 5 22C5.09665 22 5.18934 21.9616 5.25768 21.8933C5.32602 21.8249 5.36441 21.7322 5.36441 21.6356L5.36409 17.3641L9.63559 17.3644Z" fill="white"/>
</svg>
