<svg width="116" height="394" viewBox="0 0 116 394" fill="none" xmlns="http://www.w3.org/2000/svg">
<path d="M99.3644 381.636C99.3644 381.683 99.355 381.731 99.3367 381.775C99.3184 381.819 99.2915 381.859 99.2577 381.893C99.2238 381.927 99.1837 381.954 99.1395 381.972C99.0952 381.991 99.0479 382 99 382C98.9521 382 98.9048 381.991 98.8605 381.972C98.8163 381.954 98.7762 381.927 98.7423 381.893C98.7085 381.859 98.6816 381.819 98.6633 381.775C98.645 381.731 98.6356 381.683 98.6356 381.636L98.6359 377.364L94.3644 377.364C94.2678 377.364 94.1751 377.326 94.1067 377.258C94.0384 377.189 94 377.097 94 377C94 376.903 94.0384 376.811 94.1067 376.742C94.1751 376.674 94.2678 376.636 94.3644 376.636L98.6359 376.636L98.6356 372.364C98.6356 372.268 98.674 372.175 98.7423 372.107C98.8107 372.038 98.9034 372 99 372C99.0966 372 99.1893 372.038 99.2577 372.107C99.326 372.175 99.3644 372.268 99.3644 372.364L99.3641 376.636L103.636 376.636C103.732 376.636 103.825 376.674 103.893 376.742C103.962 376.811 104 376.903 104 377C104 377.097 103.962 377.189 103.893 377.258C103.825 377.326 103.732 377.364 103.636 377.364L99.3641 377.364L99.3644 381.636Z" fill="#13131A"/>
<path d="M99.3644 393.636C99.3644 393.683 99.355 393.731 99.3367 393.775C99.3184 393.819 99.2915 393.859 99.2577 393.893C99.2238 393.927 99.1837 393.954 99.1395 393.972C99.0952 393.991 99.0479 394 99 394C98.9521 394 98.9048 393.991 98.8605 393.972C98.8163 393.954 98.7762 393.927 98.7423 393.893C98.7085 393.859 98.6816 393.819 98.6633 393.775C98.645 393.731 98.6356 393.683 98.6356 393.636L98.6359 389.364L94.3644 389.364C94.2678 389.364 94.1751 389.326 94.1067 389.258C94.0384 389.189 94 389.097 94 389C94 388.903 94.0384 388.811 94.1067 388.742C94.1751 388.674 94.2678 388.636 94.3644 388.636L98.6359 388.636L98.6356 384.364C98.6356 384.268 98.674 384.175 98.7423 384.107C98.8107 384.038 98.9034 384 99 384C99.0966 384 99.1893 384.038 99.2577 384.107C99.326 384.175 99.3644 384.268 99.3644 384.364L99.3641 388.636L103.636 388.636C103.732 388.636 103.825 388.674 103.893 388.742C103.962 388.811 104 388.903 104 389C104 389.097 103.962 389.189 103.893 389.258C103.825 389.326 103.732 389.364 103.636 389.364L99.3641 389.364L99.3644 393.636Z" fill="#13131A"/>
<path d="M99.3644 369.636C99.3644 369.683 99.355 369.731 99.3367 369.775C99.3184 369.819 99.2915 369.859 99.2577 369.893C99.2238 369.927 99.1837 369.954 99.1395 369.972C99.0952 369.991 99.0479 370 99 370C98.9521 370 98.9048 369.991 98.8605 369.972C98.8163 369.954 98.7762 369.927 98.7423 369.893C98.7085 369.859 98.6816 369.819 98.6633 369.775C98.645 369.731 98.6356 369.683 98.6356 369.636L98.6359 365.364L94.3644 365.364C94.2678 365.364 94.1751 365.326 94.1067 365.258C94.0384 365.189 94 365.097 94 365C94 364.903 94.0384 364.811 94.1067 364.742C94.1751 364.674 94.2678 364.636 94.3644 364.636L98.6359 364.636L98.6356 360.364C98.6356 360.268 98.674 360.175 98.7423 360.107C98.8107 360.038 98.9034 360 99 360C99.0966 360 99.1893 360.038 99.2577 360.107C99.326 360.175 99.3644 360.268 99.3644 360.364L99.3641 364.636L103.636 364.636C103.732 364.636 103.825 364.674 103.893 364.742C103.962 364.811 104 364.903 104 365C104 365.097 103.962 365.189 103.893 365.258C103.825 365.326 103.732 365.364 103.636 365.364L99.3641 365.364L99.3644 369.636Z" fill="#13131A"/>
<path d="M111.364 381.636C111.364 381.683 111.355 381.731 111.337 381.775C111.318 381.819 111.292 381.859 111.258 381.893C111.224 381.927 111.184 381.954 111.139 381.972C111.095 381.991 111.048 382 111 382C110.952 382 110.905 381.991 110.861 381.972C110.816 381.954 110.776 381.927 110.742 381.893C110.708 381.859 110.682 381.819 110.663 381.775C110.645 381.731 110.636 381.683 110.636 381.636L110.636 377.364L106.364 377.364C106.268 377.364 106.175 377.326 106.107 377.258C106.038 377.189 106 377.097 106 377C106 376.903 106.038 376.811 106.107 376.742C106.175 376.674 106.268 376.636 106.364 376.636L110.636 376.636L110.636 372.364C110.636 372.268 110.674 372.175 110.742 372.107C110.811 372.038 110.903 372 111 372C111.097 372 111.189 372.038 111.258 372.107C111.326 372.175 111.364 372.268 111.364 372.364L111.364 376.636L115.636 376.636C115.732 376.636 115.825 376.674 115.893 376.742C115.962 376.811 116 376.903 116 377C116 377.097 115.962 377.189 115.893 377.258C115.825 377.326 115.732 377.364 115.636 377.364L111.364 377.364L111.364 381.636Z" fill="#13131A"/>
<path d="M5.36441 129.636C5.36441 129.683 5.35498 129.731 5.33667 129.775C5.31836 129.819 5.29151 129.859 5.25768 129.893C5.22384 129.927 5.18366 129.954 5.13945 129.972C5.09524 129.991 5.04785 130 5 130C4.95214 130 4.90476 129.991 4.86055 129.972C4.81633 129.954 4.77616 129.927 4.74232 129.893C4.70848 129.859 4.68164 129.819 4.66333 129.775C4.64502 129.731 4.63559 129.683 4.63559 129.636L4.63591 125.364L0.364409 125.364C0.267762 125.364 0.175072 125.326 0.106732 125.258C0.0383928 125.189 -2.22782e-07 125.097 -2.18557e-07 125C-2.14332e-07 124.903 0.0383928 124.811 0.106732 124.742C0.175072 124.674 0.267762 124.636 0.364409 124.636L4.63591 124.636L4.63559 120.364C4.63559 120.268 4.67398 120.175 4.74232 120.107C4.81066 120.038 4.90335 120 5 120C5.09665 120 5.18934 120.038 5.25768 120.107C5.32602 120.175 5.36441 120.268 5.36441 120.364L5.36409 124.636L9.63559 124.636C9.73224 124.636 9.82493 124.674 9.89327 124.742C9.96161 124.811 10 124.903 10 125C10 125.097 9.96161 125.189 9.89327 125.258C9.82493 125.326 9.73224 125.364 9.63559 125.364L5.36409 125.364L5.36441 129.636Z" fill="#13131A"/>
<path d="M17.3644 129.636C17.3644 129.683 17.355 129.731 17.3367 129.775C17.3184 129.819 17.2915 129.859 17.2577 129.893C17.2238 129.927 17.1837 129.954 17.1395 129.972C17.0952 129.991 17.0479 130 17 130C16.9521 130 16.9048 129.991 16.8605 129.972C16.8163 129.954 16.7762 129.927 16.7423 129.893C16.7085 129.859 16.6816 129.819 16.6633 129.775C16.645 129.731 16.6356 129.683 16.6356 129.636L16.6359 125.364L12.3644 125.364C12.2678 125.364 12.1751 125.326 12.1067 125.258C12.0384 125.189 12 125.097 12 125C12 124.903 12.0384 124.811 12.1067 124.742C12.1751 124.674 12.2678 124.636 12.3644 124.636L16.6359 124.636L16.6356 120.364C16.6356 120.268 16.674 120.175 16.7423 120.107C16.8107 120.038 16.9034 120 17 120C17.0966 120 17.1893 120.038 17.2577 120.107C17.326 120.175 17.3644 120.268 17.3644 120.364L17.3641 124.636L21.6356 124.636C21.7322 124.636 21.8249 124.674 21.8933 124.742C21.9616 124.811 22 124.903 22 125C22 125.097 21.9616 125.189 21.8933 125.258C21.8249 125.326 21.7322 125.364 21.6356 125.364L17.3641 125.364L17.3644 129.636Z" fill="#13131A"/>
<path d="M29.3644 129.636C29.3644 129.683 29.355 129.731 29.3367 129.775C29.3184 129.819 29.2915 129.859 29.2577 129.893C29.2238 129.927 29.1837 129.954 29.1395 129.972C29.0952 129.991 29.0479 130 29 130C28.9521 130 28.9048 129.991 28.8605 129.972C28.8163 129.954 28.7762 129.927 28.7423 129.893C28.7085 129.859 28.6816 129.819 28.6633 129.775C28.645 129.731 28.6356 129.683 28.6356 129.636L28.6359 125.364L24.3644 125.364C24.2678 125.364 24.1751 125.326 24.1067 125.258C24.0384 125.189 24 125.097 24 125C24 124.903 24.0384 124.811 24.1067 124.742C24.1751 124.674 24.2678 124.636 24.3644 124.636L28.6359 124.636L28.6356 120.364C28.6356 120.268 28.674 120.175 28.7423 120.107C28.8107 120.038 28.9034 120 29 120C29.0966 120 29.1893 120.038 29.2577 120.107C29.326 120.175 29.3644 120.268 29.3644 120.364L29.3641 124.636L33.6356 124.636C33.7322 124.636 33.8249 124.674 33.8933 124.742C33.9616 124.811 34 124.903 34 125C34 125.097 33.9616 125.189 33.8933 125.258C33.8249 125.326 33.7322 125.364 33.6356 125.364L29.3641 125.364L29.3644 129.636Z" fill="#13131A"/>
<path d="M77.3644 129.636C77.3644 129.683 77.355 129.731 77.3367 129.775C77.3184 129.819 77.2915 129.859 77.2577 129.893C77.2238 129.927 77.1837 129.954 77.1395 129.972C77.0952 129.991 77.0479 130 77 130C76.9521 130 76.9048 129.991 76.8605 129.972C76.8163 129.954 76.7762 129.927 76.7423 129.893C76.7085 129.859 76.6816 129.819 76.6633 129.775C76.645 129.731 76.6356 129.683 76.6356 129.636L76.6359 125.364L72.3644 125.364C72.2678 125.364 72.1751 125.326 72.1067 125.258C72.0384 125.189 72 125.097 72 125C72 124.903 72.0384 124.811 72.1067 124.742C72.1751 124.674 72.2678 124.636 72.3644 124.636L76.6359 124.636L76.6356 120.364C76.6356 120.268 76.674 120.175 76.7423 120.107C76.8107 120.038 76.9034 120 77 120C77.0966 120 77.1893 120.038 77.2577 120.107C77.326 120.175 77.3644 120.268 77.3644 120.364L77.3641 124.636L81.6356 124.636C81.7322 124.636 81.8249 124.674 81.8933 124.742C81.9616 124.811 82 124.903 82 125C82 125.097 81.9616 125.189 81.8933 125.258C81.8249 125.326 81.7322 125.364 81.6356 125.364L77.3641 125.364L77.3644 129.636Z" fill="#13131A"/>
<path d="M5.36441 117.636C5.36441 117.683 5.35498 117.731 5.33667 117.775C5.31836 117.819 5.29151 117.859 5.25768 117.893C5.22384 117.927 5.18366 117.954 5.13945 117.972C5.09524 117.991 5.04785 118 5 118C4.95214 118 4.90476 117.991 4.86055 117.972C4.81633 117.954 4.77616 117.927 4.74232 117.893C4.70848 117.859 4.68164 117.819 4.66333 117.775C4.64502 117.731 4.63559 117.683 4.63559 117.636L4.63591 113.364L0.364409 113.364C0.267762 113.364 0.175072 113.326 0.106732 113.258C0.0383928 113.189 -2.22782e-07 113.097 -2.18557e-07 113C-2.14332e-07 112.903 0.0383928 112.811 0.106732 112.742C0.175072 112.674 0.267762 112.636 0.364409 112.636L4.63591 112.636L4.63559 108.364C4.63559 108.268 4.67398 108.175 4.74232 108.107C4.81066 108.038 4.90335 108 5 108C5.09665 108 5.18934 108.038 5.25768 108.107C5.32602 108.175 5.36441 108.268 5.36441 108.364L5.36409 112.636L9.63559 112.636C9.73224 112.636 9.82493 112.674 9.89327 112.742C9.96161 112.811 10 112.903 10 113C10 113.097 9.96161 113.189 9.89327 113.258C9.82493 113.326 9.73224 113.364 9.63559 113.364L5.36409 113.364L5.36441 117.636Z" fill="#13131A"/>
<path d="M17.3644 117.636C17.3644 117.683 17.355 117.731 17.3367 117.775C17.3184 117.819 17.2915 117.859 17.2577 117.893C17.2238 117.927 17.1837 117.954 17.1395 117.972C17.0952 117.991 17.0479 118 17 118C16.9521 118 16.9048 117.991 16.8605 117.972C16.8163 117.954 16.7762 117.927 16.7423 117.893C16.7085 117.859 16.6816 117.819 16.6633 117.775C16.645 117.731 16.6356 117.683 16.6356 117.636L16.6359 113.364L12.3644 113.364C12.2678 113.364 12.1751 113.326 12.1067 113.258C12.0384 113.189 12 113.097 12 113C12 112.903 12.0384 112.811 12.1067 112.742C12.1751 112.674 12.2678 112.636 12.3644 112.636L16.6359 112.636L16.6356 108.364C16.6356 108.268 16.674 108.175 16.7423 108.107C16.8107 108.038 16.9034 108 17 108C17.0966 108 17.1893 108.038 17.2577 108.107C17.326 108.175 17.3644 108.268 17.3644 108.364L17.3641 112.636L21.6356 112.636C21.7322 112.636 21.8249 112.674 21.8933 112.742C21.9616 112.811 22 112.903 22 113C22 113.097 21.9616 113.189 21.8933 113.258C21.8249 113.326 21.7322 113.364 21.6356 113.364L17.3641 113.364L17.3644 117.636Z" fill="#13131A"/>
<path d="M29.3644 117.636C29.3644 117.683 29.355 117.731 29.3367 117.775C29.3184 117.819 29.2915 117.859 29.2577 117.893C29.2238 117.927 29.1837 117.954 29.1395 117.972C29.0952 117.991 29.0479 118 29 118C28.9521 118 28.9048 117.991 28.8605 117.972C28.8163 117.954 28.7762 117.927 28.7423 117.893C28.7085 117.859 28.6816 117.819 28.6633 117.775C28.645 117.731 28.6356 117.683 28.6356 117.636L28.6359 113.364L24.3644 113.364C24.2678 113.364 24.1751 113.326 24.1067 113.258C24.0384 113.189 24 113.097 24 113C24 112.903 24.0384 112.811 24.1067 112.742C24.1751 112.674 24.2678 112.636 24.3644 112.636L28.6359 112.636L28.6356 108.364C28.6356 108.268 28.674 108.175 28.7423 108.107C28.8107 108.038 28.9034 108 29 108C29.0966 108 29.1893 108.038 29.2577 108.107C29.326 108.175 29.3644 108.268 29.3644 108.364L29.3641 112.636L33.6356 112.636C33.7322 112.636 33.8249 112.674 33.8933 112.742C33.9616 112.811 34 112.903 34 113C34 113.097 33.9616 113.189 33.8933 113.258C33.8249 113.326 33.7322 113.364 33.6356 113.364L29.3641 113.364L29.3644 117.636Z" fill="#13131A"/>
<path d="M5.36441 105.636C5.36441 105.683 5.35498 105.731 5.33667 105.775C5.31836 105.819 5.29151 105.859 5.25768 105.893C5.22384 105.927 5.18366 105.954 5.13945 105.972C5.09524 105.991 5.04785 106 5 106C4.95214 106 4.90476 105.991 4.86055 105.972C4.81633 105.954 4.77616 105.927 4.74232 105.893C4.70848 105.859 4.68164 105.819 4.66333 105.775C4.64502 105.731 4.63559 105.683 4.63559 105.636L4.63591 101.364L0.364409 101.364C0.267762 101.364 0.175072 101.326 0.106732 101.258C0.0383928 101.189 -2.22782e-07 101.097 -2.18557e-07 101C-2.14332e-07 100.903 0.0383928 100.811 0.106732 100.742C0.175072 100.674 0.267762 100.636 0.364409 100.636L4.63591 100.636L4.63559 96.3644C4.63559 96.2678 4.67398 96.1751 4.74232 96.1067C4.81066 96.0384 4.90335 96 5 96C5.09665 96 5.18934 96.0384 5.25768 96.1067C5.32602 96.1751 5.36441 96.2678 5.36441 96.3644L5.36409 100.636L9.63559 100.636C9.73224 100.636 9.82493 100.674 9.89327 100.742C9.96161 100.811 10 100.903 10 101C10 101.097 9.96161 101.189 9.89327 101.258C9.82493 101.326 9.73224 101.364 9.63559 101.364L5.36409 101.364L5.36441 105.636Z" fill="#13131A"/>
<path d="M17.3644 105.636C17.3644 105.683 17.355 105.731 17.3367 105.775C17.3184 105.819 17.2915 105.859 17.2577 105.893C17.2238 105.927 17.1837 105.954 17.1395 105.972C17.0952 105.991 17.0479 106 17 106C16.9521 106 16.9048 105.991 16.8605 105.972C16.8163 105.954 16.7762 105.927 16.7423 105.893C16.7085 105.859 16.6816 105.819 16.6633 105.775C16.645 105.731 16.6356 105.683 16.6356 105.636L16.6359 101.364L12.3644 101.364C12.2678 101.364 12.1751 101.326 12.1067 101.258C12.0384 101.189 12 101.097 12 101C12 100.903 12.0384 100.811 12.1067 100.742C12.1751 100.674 12.2678 100.636 12.3644 100.636L16.6359 100.636L16.6356 96.3644C16.6356 96.2678 16.674 96.1751 16.7423 96.1067C16.8107 96.0384 16.9034 96 17 96C17.0966 96 17.1893 96.0384 17.2577 96.1067C17.326 96.1751 17.3644 96.2678 17.3644 96.3644L17.3641 100.636L21.6356 100.636C21.7322 100.636 21.8249 100.674 21.8933 100.742C21.9616 100.811 22 100.903 22 101C22 101.097 21.9616 101.189 21.8933 101.258C21.8249 101.326 21.7322 101.364 21.6356 101.364L17.3641 101.364L17.3644 105.636Z" fill="#13131A"/>
<path d="M29.3644 105.636C29.3644 105.683 29.355 105.731 29.3367 105.775C29.3184 105.819 29.2915 105.859 29.2577 105.893C29.2238 105.927 29.1837 105.954 29.1395 105.972C29.0952 105.991 29.0479 106 29 106C28.9521 106 28.9048 105.991 28.8605 105.972C28.8163 105.954 28.7762 105.927 28.7423 105.893C28.7085 105.859 28.6816 105.819 28.6633 105.775C28.645 105.731 28.6356 105.683 28.6356 105.636L28.6359 101.364L24.3644 101.364C24.2678 101.364 24.1751 101.326 24.1067 101.258C24.0384 101.189 24 101.097 24 101C24 100.903 24.0384 100.811 24.1067 100.742C24.1751 100.674 24.2678 100.636 24.3644 100.636L28.6359 100.636L28.6356 96.3644C28.6356 96.2678 28.674 96.1751 28.7423 96.1067C28.8107 96.0384 28.9034 96 29 96C29.0966 96 29.1893 96.0384 29.2577 96.1067C29.326 96.1751 29.3644 96.2678 29.3644 96.3644L29.3641 100.636L33.6356 100.636C33.7322 100.636 33.8249 100.674 33.8933 100.742C33.9616 100.811 34 100.903 34 101C34 101.097 33.9616 101.189 33.8933 101.258C33.8249 101.326 33.7322 101.364 33.6356 101.364L29.3641 101.364L29.3644 105.636Z" fill="#13131A"/>
<path d="M53.3644 105.636C53.3644 105.683 53.355 105.731 53.3367 105.775C53.3184 105.819 53.2915 105.859 53.2577 105.893C53.2238 105.927 53.1837 105.954 53.1395 105.972C53.0952 105.991 53.0479 106 53 106C52.9521 106 52.9048 105.991 52.8605 105.972C52.8163 105.954 52.7762 105.927 52.7423 105.893C52.7085 105.859 52.6816 105.819 52.6633 105.775C52.645 105.731 52.6356 105.683 52.6356 105.636L52.6359 101.364L48.3644 101.364C48.2678 101.364 48.1751 101.326 48.1067 101.258C48.0384 101.189 48 101.097 48 101C48 100.903 48.0384 100.811 48.1067 100.742C48.1751 100.674 48.2678 100.636 48.3644 100.636L52.6359 100.636L52.6356 96.3644C52.6356 96.2678 52.674 96.1751 52.7423 96.1067C52.8107 96.0384 52.9034 96 53 96C53.0966 96 53.1893 96.0384 53.2577 96.1067C53.326 96.1751 53.3644 96.2678 53.3644 96.3644L53.3641 100.636L57.6356 100.636C57.7322 100.636 57.8249 100.674 57.8933 100.742C57.9616 100.811 58 100.903 58 101C58 101.097 57.9616 101.189 57.8933 101.258C57.8249 101.326 57.7322 101.364 57.6356 101.364L53.3641 101.364L53.3644 105.636Z" fill="#13131A"/>
<path d="M53.3644 117.636C53.3644 117.683 53.355 117.731 53.3367 117.775C53.3184 117.819 53.2915 117.859 53.2577 117.893C53.2238 117.927 53.1837 117.954 53.1395 117.972C53.0952 117.991 53.0479 118 53 118C52.9521 118 52.9048 117.991 52.8605 117.972C52.8163 117.954 52.7762 117.927 52.7423 117.893C52.7085 117.859 52.6816 117.819 52.6633 117.775C52.645 117.731 52.6356 117.683 52.6356 117.636L52.6359 113.364L48.3644 113.364C48.2678 113.364 48.1751 113.326 48.1067 113.258C48.0384 113.189 48 113.097 48 113C48 112.903 48.0384 112.811 48.1067 112.742C48.1751 112.674 48.2678 112.636 48.3644 112.636L52.6359 112.636L52.6356 108.364C52.6356 108.268 52.674 108.175 52.7423 108.107C52.8107 108.038 52.9034 108 53 108C53.0966 108 53.1893 108.038 53.2577 108.107C53.326 108.175 53.3644 108.268 53.3644 108.364L53.3641 112.636L57.6356 112.636C57.7322 112.636 57.8249 112.674 57.8933 112.742C57.9616 112.811 58 112.903 58 113C58 113.097 57.9616 113.189 57.8933 113.258C57.8249 113.326 57.7322 113.364 57.6356 113.364L53.3641 113.364L53.3644 117.636Z" fill="#13131A"/>
<path d="M41.3644 105.636C41.3644 105.683 41.355 105.731 41.3367 105.775C41.3184 105.819 41.2915 105.859 41.2577 105.893C41.2238 105.927 41.1837 105.954 41.1395 105.972C41.0952 105.991 41.0479 106 41 106C40.9521 106 40.9048 105.991 40.8605 105.972C40.8163 105.954 40.7762 105.927 40.7423 105.893C40.7085 105.859 40.6816 105.819 40.6633 105.775C40.645 105.731 40.6356 105.683 40.6356 105.636L40.6359 101.364L36.3644 101.364C36.2678 101.364 36.1751 101.326 36.1067 101.258C36.0384 101.189 36 101.097 36 101C36 100.903 36.0384 100.811 36.1067 100.742C36.1751 100.674 36.2678 100.636 36.3644 100.636L40.6359 100.636L40.6356 96.3644C40.6356 96.2678 40.674 96.1751 40.7423 96.1067C40.8107 96.0384 40.9034 96 41 96C41.0966 96 41.1893 96.0384 41.2577 96.1067C41.326 96.1751 41.3644 96.2678 41.3644 96.3644L41.3641 100.636L45.6356 100.636C45.7322 100.636 45.8249 100.674 45.8933 100.742C45.9616 100.811 46 100.903 46 101C46 101.097 45.9616 101.189 45.8933 101.258C45.8249 101.326 45.7322 101.364 45.6356 101.364L41.3641 101.364L41.3644 105.636Z" fill="#13131A"/>
<path d="M65.3644 105.636C65.3644 105.683 65.355 105.731 65.3367 105.775C65.3184 105.819 65.2915 105.859 65.2577 105.893C65.2238 105.927 65.1837 105.954 65.1395 105.972C65.0952 105.991 65.0479 106 65 106C64.9521 106 64.9048 105.991 64.8605 105.972C64.8163 105.954 64.7762 105.927 64.7423 105.893C64.7085 105.859 64.6816 105.819 64.6633 105.775C64.645 105.731 64.6356 105.683 64.6356 105.636L64.6359 101.364L60.3644 101.364C60.2678 101.364 60.1751 101.326 60.1067 101.258C60.0384 101.189 60 101.097 60 101C60 100.903 60.0384 100.811 60.1067 100.742C60.1751 100.674 60.2678 100.636 60.3644 100.636L64.6359 100.636L64.6356 96.3644C64.6356 96.2678 64.674 96.1751 64.7423 96.1067C64.8107 96.0384 64.9034 96 65 96C65.0966 96 65.1893 96.0384 65.2577 96.1067C65.326 96.1751 65.3644 96.2678 65.3644 96.3644L65.3641 100.636L69.6356 100.636C69.7322 100.636 69.8249 100.674 69.8933 100.742C69.9616 100.811 70 100.903 70 101C70 101.097 69.9616 101.189 69.8933 101.258C69.8249 101.326 69.7322 101.364 69.6356 101.364L65.3641 101.364L65.3644 105.636Z" fill="#13131A"/>
<path d="M5.36441 93.6356C5.36441 93.6834 5.35498 93.7308 5.33667 93.775C5.31836 93.8193 5.29151 93.8594 5.25768 93.8933C5.22384 93.9271 5.18366 93.9539 5.13945 93.9723C5.09524 93.9906 5.04785 94 5 94C4.95214 94 4.90476 93.9906 4.86055 93.9723C4.81633 93.9539 4.77616 93.9271 4.74232 93.8933C4.70848 93.8594 4.68164 93.8193 4.66333 93.775C4.64502 93.7308 4.63559 93.6834 4.63559 93.6356L4.63591 89.3641L0.364409 89.3644C0.267762 89.3644 0.175072 89.326 0.106732 89.2577C0.0383928 89.1893 -2.22782e-07 89.0966 -2.18557e-07 89C-2.14332e-07 88.9034 0.0383928 88.8107 0.106732 88.7423C0.175072 88.674 0.267762 88.6356 0.364409 88.6356L4.63591 88.6359L4.63559 84.3644C4.63559 84.2678 4.67398 84.1751 4.74232 84.1067C4.81066 84.0384 4.90335 84 5 84C5.09665 84 5.18934 84.0384 5.25768 84.1067C5.32602 84.1751 5.36441 84.2678 5.36441 84.3644L5.36409 88.6359L9.63559 88.6356C9.73224 88.6356 9.82493 88.674 9.89327 88.7423C9.96161 88.8107 10 88.9034 10 89C10 89.0966 9.96161 89.1893 9.89327 89.2577C9.82493 89.326 9.73224 89.3644 9.63559 89.3644L5.36409 89.3641L5.36441 93.6356Z" fill="#13131A"/>
<path d="M17.3644 93.6356C17.3644 93.6834 17.355 93.7308 17.3367 93.775C17.3184 93.8193 17.2915 93.8594 17.2577 93.8933C17.2238 93.9271 17.1837 93.9539 17.1395 93.9723C17.0952 93.9906 17.0479 94 17 94C16.9521 94 16.9048 93.9906 16.8605 93.9723C16.8163 93.9539 16.7762 93.9271 16.7423 93.8933C16.7085 93.8594 16.6816 93.8193 16.6633 93.775C16.645 93.7308 16.6356 93.6834 16.6356 93.6356L16.6359 89.3641L12.3644 89.3644C12.2678 89.3644 12.1751 89.326 12.1067 89.2577C12.0384 89.1893 12 89.0966 12 89C12 88.9034 12.0384 88.8107 12.1067 88.7423C12.1751 88.674 12.2678 88.6356 12.3644 88.6356L16.6359 88.6359L16.6356 84.3644C16.6356 84.2678 16.674 84.1751 16.7423 84.1067C16.8107 84.0384 16.9034 84 17 84C17.0966 84 17.1893 84.0384 17.2577 84.1067C17.326 84.1751 17.3644 84.2678 17.3644 84.3644L17.3641 88.6359L21.6356 88.6356C21.7322 88.6356 21.8249 88.674 21.8933 88.7423C21.9616 88.8107 22 88.9034 22 89C22 89.0966 21.9616 89.1893 21.8933 89.2577C21.8249 89.326 21.7322 89.3644 21.6356 89.3644L17.3641 89.3641L17.3644 93.6356Z" fill="#13131A"/>
<path d="M29.3644 93.6356C29.3644 93.6834 29.355 93.7308 29.3367 93.775C29.3184 93.8193 29.2915 93.8594 29.2577 93.8933C29.2238 93.9271 29.1837 93.9539 29.1395 93.9723C29.0952 93.9906 29.0479 94 29 94C28.9521 94 28.9048 93.9906 28.8605 93.9723C28.8163 93.9539 28.7762 93.9271 28.7423 93.8933C28.7085 93.8594 28.6816 93.8193 28.6633 93.775C28.645 93.7308 28.6356 93.6834 28.6356 93.6356L28.6359 89.3641L24.3644 89.3644C24.2678 89.3644 24.1751 89.326 24.1067 89.2577C24.0384 89.1893 24 89.0966 24 89C24 88.9034 24.0384 88.8107 24.1067 88.7423C24.1751 88.674 24.2678 88.6356 24.3644 88.6356L28.6359 88.6359L28.6356 84.3644C28.6356 84.2678 28.674 84.1751 28.7423 84.1067C28.8107 84.0384 28.9034 84 29 84C29.0966 84 29.1893 84.0384 29.2577 84.1067C29.326 84.1751 29.3644 84.2678 29.3644 84.3644L29.3641 88.6359L33.6356 88.6356C33.7322 88.6356 33.8249 88.674 33.8933 88.7423C33.9616 88.8107 34 88.9034 34 89C34 89.0966 33.9616 89.1893 33.8933 89.2577C33.8249 89.326 33.7322 89.3644 33.6356 89.3644L29.3641 89.3641L29.3644 93.6356Z" fill="#13131A"/>
<path d="M53.3644 93.6356C53.3644 93.6834 53.355 93.7308 53.3367 93.775C53.3184 93.8193 53.2915 93.8594 53.2577 93.8933C53.2238 93.9271 53.1837 93.9539 53.1395 93.9723C53.0952 93.9906 53.0479 94 53 94C52.9521 94 52.9048 93.9906 52.8605 93.9723C52.8163 93.9539 52.7762 93.9271 52.7423 93.8933C52.7085 93.8594 52.6816 93.8193 52.6633 93.775C52.645 93.7308 52.6356 93.6834 52.6356 93.6356L52.6359 89.3641L48.3644 89.3644C48.2678 89.3644 48.1751 89.326 48.1067 89.2577C48.0384 89.1893 48 89.0966 48 89C48 88.9034 48.0384 88.8107 48.1067 88.7423C48.1751 88.674 48.2678 88.6356 48.3644 88.6356L52.6359 88.6359L52.6356 84.3644C52.6356 84.2678 52.674 84.1751 52.7423 84.1067C52.8107 84.0384 52.9034 84 53 84C53.0966 84 53.1893 84.0384 53.2577 84.1067C53.326 84.1751 53.3644 84.2678 53.3644 84.3644L53.3641 88.6359L57.6356 88.6356C57.7322 88.6356 57.8249 88.674 57.8933 88.7423C57.9616 88.8107 58 88.9034 58 89C58 89.0966 57.9616 89.1893 57.8933 89.2577C57.8249 89.326 57.7322 89.3644 57.6356 89.3644L53.3641 89.3641L53.3644 93.6356Z" fill="#13131A"/>
<path d="M41.3644 93.6356C41.3644 93.6834 41.355 93.7308 41.3367 93.775C41.3184 93.8193 41.2915 93.8594 41.2577 93.8933C41.2238 93.9271 41.1837 93.9539 41.1395 93.9723C41.0952 93.9906 41.0479 94 41 94C40.9521 94 40.9048 93.9906 40.8605 93.9723C40.8163 93.9539 40.7762 93.9271 40.7423 93.8933C40.7085 93.8594 40.6816 93.8193 40.6633 93.775C40.645 93.7308 40.6356 93.6834 40.6356 93.6356L40.6359 89.3641L36.3644 89.3644C36.2678 89.3644 36.1751 89.326 36.1067 89.2577C36.0384 89.1893 36 89.0966 36 89C36 88.9034 36.0384 88.8107 36.1067 88.7423C36.1751 88.674 36.2678 88.6356 36.3644 88.6356L40.6359 88.6359L40.6356 84.3644C40.6356 84.2678 40.674 84.1751 40.7423 84.1067C40.8107 84.0384 40.9034 84 41 84C41.0966 84 41.1893 84.0384 41.2577 84.1067C41.326 84.1751 41.3644 84.2678 41.3644 84.3644L41.3641 88.6359L45.6356 88.6356C45.7322 88.6356 45.8249 88.674 45.8933 88.7423C45.9616 88.8107 46 88.9034 46 89C46 89.0966 45.9616 89.1893 45.8933 89.2577C45.8249 89.326 45.7322 89.3644 45.6356 89.3644L41.3641 89.3641L41.3644 93.6356Z" fill="#13131A"/>
<path d="M65.3644 93.6356C65.3644 93.6834 65.355 93.7308 65.3367 93.775C65.3184 93.8193 65.2915 93.8594 65.2577 93.8933C65.2238 93.9271 65.1837 93.9539 65.1395 93.9723C65.0952 93.9906 65.0479 94 65 94C64.9521 94 64.9048 93.9906 64.8605 93.9723C64.8163 93.9539 64.7762 93.9271 64.7423 93.8933C64.7085 93.8594 64.6816 93.8193 64.6633 93.775C64.645 93.7308 64.6356 93.6834 64.6356 93.6356L64.6359 89.3641L60.3644 89.3644C60.2678 89.3644 60.1751 89.326 60.1067 89.2577C60.0384 89.1893 60 89.0966 60 89C60 88.9034 60.0384 88.8107 60.1067 88.7423C60.1751 88.674 60.2678 88.6356 60.3644 88.6356L64.6359 88.6359L64.6356 84.3644C64.6356 84.2678 64.674 84.1751 64.7423 84.1067C64.8107 84.0384 64.9034 84 65 84C65.0966 84 65.1893 84.0384 65.2577 84.1067C65.326 84.1751 65.3644 84.2678 65.3644 84.3644L65.3641 88.6359L69.6356 88.6356C69.7322 88.6356 69.8249 88.674 69.8933 88.7423C69.9616 88.8107 70 88.9034 70 89C70 89.0966 69.9616 89.1893 69.8933 89.2577C69.8249 89.326 69.7322 89.3644 69.6356 89.3644L65.3641 89.3641L65.3644 93.6356Z" fill="#13131A"/>
<path d="M5.36441 81.6356C5.36441 81.6834 5.35498 81.7308 5.33667 81.775C5.31836 81.8193 5.29151 81.8594 5.25768 81.8933C5.22384 81.9271 5.18366 81.9539 5.13945 81.9723C5.09524 81.9906 5.04785 82 5 82C4.95214 82 4.90476 81.9906 4.86055 81.9723C4.81633 81.9539 4.77616 81.9271 4.74232 81.8933C4.70848 81.8594 4.68164 81.8193 4.66333 81.775C4.64502 81.7308 4.63559 81.6834 4.63559 81.6356L4.63591 77.3641L0.364409 77.3644C0.267762 77.3644 0.175072 77.326 0.106732 77.2577C0.0383928 77.1893 -2.22782e-07 77.0966 -2.18557e-07 77C-2.14332e-07 76.9034 0.0383928 76.8107 0.106732 76.7423C0.175072 76.674 0.267762 76.6356 0.364409 76.6356L4.63591 76.6359L4.63559 72.3644C4.63559 72.2678 4.67398 72.1751 4.74232 72.1067C4.81066 72.0384 4.90335 72 5 72C5.09665 72 5.18934 72.0384 5.25768 72.1067C5.32602 72.1751 5.36441 72.2678 5.36441 72.3644L5.36409 76.6359L9.63559 76.6356C9.73224 76.6356 9.82493 76.674 9.89327 76.7423C9.96161 76.8107 10 76.9034 10 77C10 77.0966 9.96161 77.1893 9.89327 77.2577C9.82493 77.326 9.73224 77.3644 9.63559 77.3644L5.36409 77.3641L5.36441 81.6356Z" fill="#13131A"/>
<path d="M17.3644 81.6356C17.3644 81.6834 17.355 81.7308 17.3367 81.775C17.3184 81.8193 17.2915 81.8594 17.2577 81.8933C17.2238 81.9271 17.1837 81.9539 17.1395 81.9723C17.0952 81.9906 17.0479 82 17 82C16.9521 82 16.9048 81.9906 16.8605 81.9723C16.8163 81.9539 16.7762 81.9271 16.7423 81.8933C16.7085 81.8594 16.6816 81.8193 16.6633 81.775C16.645 81.7308 16.6356 81.6834 16.6356 81.6356L16.6359 77.3641L12.3644 77.3644C12.2678 77.3644 12.1751 77.326 12.1067 77.2577C12.0384 77.1893 12 77.0966 12 77C12 76.9034 12.0384 76.8107 12.1067 76.7423C12.1751 76.674 12.2678 76.6356 12.3644 76.6356L16.6359 76.6359L16.6356 72.3644C16.6356 72.2678 16.674 72.1751 16.7423 72.1067C16.8107 72.0384 16.9034 72 17 72C17.0966 72 17.1893 72.0384 17.2577 72.1067C17.326 72.1751 17.3644 72.2678 17.3644 72.3644L17.3641 76.6359L21.6356 76.6356C21.7322 76.6356 21.8249 76.674 21.8933 76.7423C21.9616 76.8107 22 76.9034 22 77C22 77.0966 21.9616 77.1893 21.8933 77.2577C21.8249 77.326 21.7322 77.3644 21.6356 77.3644L17.3641 77.3641L17.3644 81.6356Z" fill="#13131A"/>
<path d="M29.3644 81.6356C29.3644 81.6834 29.355 81.7308 29.3367 81.775C29.3184 81.8193 29.2915 81.8594 29.2577 81.8933C29.2238 81.9271 29.1837 81.9539 29.1395 81.9723C29.0952 81.9906 29.0479 82 29 82C28.9521 82 28.9048 81.9906 28.8605 81.9723C28.8163 81.9539 28.7762 81.9271 28.7423 81.8933C28.7085 81.8594 28.6816 81.8193 28.6633 81.775C28.645 81.7308 28.6356 81.6834 28.6356 81.6356L28.6359 77.3641L24.3644 77.3644C24.2678 77.3644 24.1751 77.326 24.1067 77.2577C24.0384 77.1893 24 77.0966 24 77C24 76.9034 24.0384 76.8107 24.1067 76.7423C24.1751 76.674 24.2678 76.6356 24.3644 76.6356L28.6359 76.6359L28.6356 72.3644C28.6356 72.2678 28.674 72.1751 28.7423 72.1067C28.8107 72.0384 28.9034 72 29 72C29.0966 72 29.1893 72.0384 29.2577 72.1067C29.326 72.1751 29.3644 72.2678 29.3644 72.3644L29.3641 76.6359L33.6356 76.6356C33.7322 76.6356 33.8249 76.674 33.8933 76.7423C33.9616 76.8107 34 76.9034 34 77C34 77.0966 33.9616 77.1893 33.8933 77.2577C33.8249 77.326 33.7322 77.3644 33.6356 77.3644L29.3641 77.3641L29.3644 81.6356Z" fill="#13131A"/>
<path d="M41.3644 81.6356C41.3644 81.6834 41.355 81.7308 41.3367 81.775C41.3184 81.8193 41.2915 81.8594 41.2577 81.8933C41.2238 81.9271 41.1837 81.9539 41.1395 81.9723C41.0952 81.9906 41.0479 82 41 82C40.9521 82 40.9048 81.9906 40.8605 81.9723C40.8163 81.9539 40.7762 81.9271 40.7423 81.8933C40.7085 81.8594 40.6816 81.8193 40.6633 81.775C40.645 81.7308 40.6356 81.6834 40.6356 81.6356L40.6359 77.3641L36.3644 77.3644C36.2678 77.3644 36.1751 77.326 36.1067 77.2577C36.0384 77.1893 36 77.0966 36 77C36 76.9034 36.0384 76.8107 36.1067 76.7423C36.1751 76.674 36.2678 76.6356 36.3644 76.6356L40.6359 76.6359L40.6356 72.3644C40.6356 72.2678 40.674 72.1751 40.7423 72.1067C40.8107 72.0384 40.9034 72 41 72C41.0966 72 41.1893 72.0384 41.2577 72.1067C41.326 72.1751 41.3644 72.2678 41.3644 72.3644L41.3641 76.6359L45.6356 76.6356C45.7322 76.6356 45.8249 76.674 45.8933 76.7423C45.9616 76.8107 46 76.9034 46 77C46 77.0966 45.9616 77.1893 45.8933 77.2577C45.8249 77.326 45.7322 77.3644 45.6356 77.3644L41.3641 77.3641L41.3644 81.6356Z" fill="#13131A"/>
<path d="M5.36441 69.6356C5.36441 69.6834 5.35498 69.7308 5.33667 69.775C5.31836 69.8193 5.29151 69.8594 5.25768 69.8933C5.22384 69.9271 5.18366 69.9539 5.13945 69.9723C5.09524 69.9906 5.04785 70 5 70C4.95214 70 4.90476 69.9906 4.86055 69.9723C4.81633 69.9539 4.77616 69.9271 4.74232 69.8933C4.70848 69.8594 4.68164 69.8193 4.66333 69.775C4.64502 69.7308 4.63559 69.6834 4.63559 69.6356L4.63591 65.3641L0.364409 65.3644C0.267762 65.3644 0.175072 65.326 0.106732 65.2577C0.0383928 65.1893 -2.22782e-07 65.0966 -2.18557e-07 65C-2.14332e-07 64.9034 0.0383928 64.8107 0.106732 64.7423C0.175072 64.674 0.267762 64.6356 0.364409 64.6356L4.63591 64.6359L4.63559 60.3644C4.63559 60.2678 4.67398 60.1751 4.74232 60.1067C4.81066 60.0384 4.90335 60 5 60C5.09665 60 5.18934 60.0384 5.25768 60.1067C5.32602 60.1751 5.36441 60.2678 5.36441 60.3644L5.36409 64.6359L9.63559 64.6356C9.73224 64.6356 9.82493 64.674 9.89327 64.7423C9.96161 64.8107 10 64.9034 10 65C10 65.0966 9.96161 65.1893 9.89327 65.2577C9.82493 65.326 9.73224 65.3644 9.63559 65.3644L5.36409 65.3641L5.36441 69.6356Z" fill="#13131A"/>
<path d="M17.3644 69.6356C17.3644 69.6834 17.355 69.7308 17.3367 69.775C17.3184 69.8193 17.2915 69.8594 17.2577 69.8933C17.2238 69.9271 17.1837 69.9539 17.1395 69.9723C17.0952 69.9906 17.0479 70 17 70C16.9521 70 16.9048 69.9906 16.8605 69.9723C16.8163 69.9539 16.7762 69.9271 16.7423 69.8933C16.7085 69.8594 16.6816 69.8193 16.6633 69.775C16.645 69.7308 16.6356 69.6834 16.6356 69.6356L16.6359 65.3641L12.3644 65.3644C12.2678 65.3644 12.1751 65.326 12.1067 65.2577C12.0384 65.1893 12 65.0966 12 65C12 64.9034 12.0384 64.8107 12.1067 64.7423C12.1751 64.674 12.2678 64.6356 12.3644 64.6356L16.6359 64.6359L16.6356 60.3644C16.6356 60.2678 16.674 60.1751 16.7423 60.1067C16.8107 60.0384 16.9034 60 17 60C17.0966 60 17.1893 60.0384 17.2577 60.1067C17.326 60.1751 17.3644 60.2678 17.3644 60.3644L17.3641 64.6359L21.6356 64.6356C21.7322 64.6356 21.8249 64.674 21.8933 64.7423C21.9616 64.8107 22 64.9034 22 65C22 65.0966 21.9616 65.1893 21.8933 65.2577C21.8249 65.326 21.7322 65.3644 21.6356 65.3644L17.3641 65.3641L17.3644 69.6356Z" fill="#13131A"/>
<path d="M29.3644 69.6356C29.3644 69.6834 29.355 69.7308 29.3367 69.775C29.3184 69.8193 29.2915 69.8594 29.2577 69.8933C29.2238 69.9271 29.1837 69.9539 29.1395 69.9723C29.0952 69.9906 29.0479 70 29 70C28.9521 70 28.9048 69.9906 28.8605 69.9723C28.8163 69.9539 28.7762 69.9271 28.7423 69.8933C28.7085 69.8594 28.6816 69.8193 28.6633 69.775C28.645 69.7308 28.6356 69.6834 28.6356 69.6356L28.6359 65.3641L24.3644 65.3644C24.2678 65.3644 24.1751 65.326 24.1067 65.2577C24.0384 65.1893 24 65.0966 24 65C24 64.9034 24.0384 64.8107 24.1067 64.7423C24.1751 64.674 24.2678 64.6356 24.3644 64.6356L28.6359 64.6359L28.6356 60.3644C28.6356 60.2678 28.674 60.1751 28.7423 60.1067C28.8107 60.0384 28.9034 60 29 60C29.0966 60 29.1893 60.0384 29.2577 60.1067C29.326 60.1751 29.3644 60.2678 29.3644 60.3644L29.3641 64.6359L33.6356 64.6356C33.7322 64.6356 33.8249 64.674 33.8933 64.7423C33.9616 64.8107 34 64.9034 34 65C34 65.0966 33.9616 65.1893 33.8933 65.2577C33.8249 65.326 33.7322 65.3644 33.6356 65.3644L29.3641 65.3641L29.3644 69.6356Z" fill="#13131A"/>
<path d="M41.3644 69.6356C41.3644 69.6834 41.355 69.7308 41.3367 69.775C41.3184 69.8193 41.2915 69.8594 41.2577 69.8933C41.2238 69.9271 41.1837 69.9539 41.1395 69.9723C41.0952 69.9906 41.0479 70 41 70C40.9521 70 40.9048 69.9906 40.8605 69.9723C40.8163 69.9539 40.7762 69.9271 40.7423 69.8933C40.7085 69.8594 40.6816 69.8193 40.6633 69.775C40.645 69.7308 40.6356 69.6834 40.6356 69.6356L40.6359 65.3641L36.3644 65.3644C36.2678 65.3644 36.1751 65.326 36.1067 65.2577C36.0384 65.1893 36 65.0966 36 65C36 64.9034 36.0384 64.8107 36.1067 64.7423C36.1751 64.674 36.2678 64.6356 36.3644 64.6356L40.6359 64.6359L40.6356 60.3644C40.6356 60.2678 40.674 60.1751 40.7423 60.1067C40.8107 60.0384 40.9034 60 41 60C41.0966 60 41.1893 60.0384 41.2577 60.1067C41.326 60.1751 41.3644 60.2678 41.3644 60.3644L41.3641 64.6359L45.6356 64.6356C45.7322 64.6356 45.8249 64.674 45.8933 64.7423C45.9616 64.8107 46 64.9034 46 65C46 65.0966 45.9616 65.1893 45.8933 65.2577C45.8249 65.326 45.7322 65.3644 45.6356 65.3644L41.3641 65.3641L41.3644 69.6356Z" fill="#13131A"/>
<path d="M5.36441 57.6356C5.36441 57.6834 5.35498 57.7308 5.33667 57.775C5.31836 57.8193 5.29151 57.8594 5.25768 57.8933C5.22384 57.9271 5.18366 57.9539 5.13945 57.9723C5.09524 57.9906 5.04785 58 5 58C4.95214 58 4.90476 57.9906 4.86055 57.9723C4.81633 57.9539 4.77616 57.9271 4.74232 57.8933C4.70848 57.8594 4.68164 57.8193 4.66333 57.775C4.64502 57.7308 4.63559 57.6834 4.63559 57.6356L4.63591 53.3641L0.364409 53.3644C0.267762 53.3644 0.175072 53.326 0.106732 53.2577C0.0383928 53.1893 -2.22782e-07 53.0966 -2.18557e-07 53C-2.14332e-07 52.9034 0.0383928 52.8107 0.106732 52.7423C0.175072 52.674 0.267762 52.6356 0.364409 52.6356L4.63591 52.6359L4.63559 48.3644C4.63559 48.2678 4.67398 48.1751 4.74232 48.1067C4.81066 48.0384 4.90335 48 5 48C5.09665 48 5.18934 48.0384 5.25768 48.1067C5.32602 48.1751 5.36441 48.2678 5.36441 48.3644L5.36409 52.6359L9.63559 52.6356C9.73224 52.6356 9.82493 52.674 9.89327 52.7423C9.96161 52.8107 10 52.9034 10 53C10 53.0966 9.96161 53.1893 9.89327 53.2577C9.82493 53.326 9.73224 53.3644 9.63559 53.3644L5.36409 53.3641L5.36441 57.6356Z" fill="#13131A"/>
<path d="M17.3644 57.6356C17.3644 57.6834 17.355 57.7308 17.3367 57.775C17.3184 57.8193 17.2915 57.8594 17.2577 57.8933C17.2238 57.9271 17.1837 57.9539 17.1395 57.9723C17.0952 57.9906 17.0479 58 17 58C16.9521 58 16.9048 57.9906 16.8605 57.9723C16.8163 57.9539 16.7762 57.9271 16.7423 57.8933C16.7085 57.8594 16.6816 57.8193 16.6633 57.775C16.645 57.7308 16.6356 57.6834 16.6356 57.6356L16.6359 53.3641L12.3644 53.3644C12.2678 53.3644 12.1751 53.326 12.1067 53.2577C12.0384 53.1893 12 53.0966 12 53C12 52.9034 12.0384 52.8107 12.1067 52.7423C12.1751 52.674 12.2678 52.6356 12.3644 52.6356L16.6359 52.6359L16.6356 48.3644C16.6356 48.2678 16.674 48.1751 16.7423 48.1067C16.8107 48.0384 16.9034 48 17 48C17.0966 48 17.1893 48.0384 17.2577 48.1067C17.326 48.1751 17.3644 48.2678 17.3644 48.3644L17.3641 52.6359L21.6356 52.6356C21.7322 52.6356 21.8249 52.674 21.8933 52.7423C21.9616 52.8107 22 52.9034 22 53C22 53.0966 21.9616 53.1893 21.8933 53.2577C21.8249 53.326 21.7322 53.3644 21.6356 53.3644L17.3641 53.3641L17.3644 57.6356Z" fill="#13131A"/>
<path d="M29.3644 57.6356C29.3644 57.6834 29.355 57.7308 29.3367 57.775C29.3184 57.8193 29.2915 57.8594 29.2577 57.8933C29.2238 57.9271 29.1837 57.9539 29.1395 57.9723C29.0952 57.9906 29.0479 58 29 58C28.9521 58 28.9048 57.9906 28.8605 57.9723C28.8163 57.9539 28.7762 57.9271 28.7423 57.8933C28.7085 57.8594 28.6816 57.8193 28.6633 57.775C28.645 57.7308 28.6356 57.6834 28.6356 57.6356L28.6359 53.3641L24.3644 53.3644C24.2678 53.3644 24.1751 53.326 24.1067 53.2577C24.0384 53.1893 24 53.0966 24 53C24 52.9034 24.0384 52.8107 24.1067 52.7423C24.1751 52.674 24.2678 52.6356 24.3644 52.6356L28.6359 52.6359L28.6356 48.3644C28.6356 48.2678 28.674 48.1751 28.7423 48.1067C28.8107 48.0384 28.9034 48 29 48C29.0966 48 29.1893 48.0384 29.2577 48.1067C29.326 48.1751 29.3644 48.2678 29.3644 48.3644L29.3641 52.6359L33.6356 52.6356C33.7322 52.6356 33.8249 52.674 33.8933 52.7423C33.9616 52.8107 34 52.9034 34 53C34 53.0966 33.9616 53.1893 33.8933 53.2577C33.8249 53.326 33.7322 53.3644 33.6356 53.3644L29.3641 53.3641L29.3644 57.6356Z" fill="#13131A"/>
<path d="M41.3644 57.6356C41.3644 57.6834 41.355 57.7308 41.3367 57.775C41.3184 57.8193 41.2915 57.8594 41.2577 57.8933C41.2238 57.9271 41.1837 57.9539 41.1395 57.9723C41.0952 57.9906 41.0479 58 41 58C40.9521 58 40.9048 57.9906 40.8605 57.9723C40.8163 57.9539 40.7762 57.9271 40.7423 57.8933C40.7085 57.8594 40.6816 57.8193 40.6633 57.775C40.645 57.7308 40.6356 57.6834 40.6356 57.6356L40.6359 53.3641L36.3644 53.3644C36.2678 53.3644 36.1751 53.326 36.1067 53.2577C36.0384 53.1893 36 53.0966 36 53C36 52.9034 36.0384 52.8107 36.1067 52.7423C36.1751 52.674 36.2678 52.6356 36.3644 52.6356L40.6359 52.6359L40.6356 48.3644C40.6356 48.2678 40.674 48.1751 40.7423 48.1067C40.8107 48.0384 40.9034 48 41 48C41.0966 48 41.1893 48.0384 41.2577 48.1067C41.326 48.1751 41.3644 48.2678 41.3644 48.3644L41.3641 52.6359L45.6356 52.6356C45.7322 52.6356 45.8249 52.674 45.8933 52.7423C45.9616 52.8107 46 52.9034 46 53C46 53.0966 45.9616 53.1893 45.8933 53.2577C45.8249 53.326 45.7322 53.3644 45.6356 53.3644L41.3641 53.3641L41.3644 57.6356Z" fill="#13131A"/>
<path d="M53.3644 57.6356C53.3644 57.6834 53.355 57.7308 53.3367 57.775C53.3184 57.8193 53.2915 57.8594 53.2577 57.8933C53.2238 57.9271 53.1837 57.9539 53.1395 57.9723C53.0952 57.9906 53.0479 58 53 58C52.9521 58 52.9048 57.9906 52.8605 57.9723C52.8163 57.9539 52.7762 57.9271 52.7423 57.8933C52.7085 57.8594 52.6816 57.8193 52.6633 57.775C52.645 57.7308 52.6356 57.6834 52.6356 57.6356L52.6359 53.3641L48.3644 53.3644C48.2678 53.3644 48.1751 53.326 48.1067 53.2577C48.0384 53.1893 48 53.0966 48 53C48 52.9034 48.0384 52.8107 48.1067 52.7423C48.1751 52.674 48.2678 52.6356 48.3644 52.6356L52.6359 52.6359L52.6356 48.3644C52.6356 48.2678 52.674 48.1751 52.7423 48.1067C52.8107 48.0384 52.9034 48 53 48C53.0966 48 53.1893 48.0384 53.2577 48.1067C53.326 48.1751 53.3644 48.2678 53.3644 48.3644L53.3641 52.6359L57.6356 52.6356C57.7322 52.6356 57.8249 52.674 57.8933 52.7423C57.9616 52.8107 58 52.9034 58 53C58 53.0966 57.9616 53.1893 57.8933 53.2577C57.8249 53.326 57.7322 53.3644 57.6356 53.3644L53.3641 53.3641L53.3644 57.6356Z" fill="#13131A"/>
<path d="M5.36441 45.6356C5.36441 45.6834 5.35498 45.7308 5.33667 45.775C5.31836 45.8193 5.29151 45.8594 5.25768 45.8933C5.22384 45.9271 5.18366 45.9539 5.13945 45.9723C5.09524 45.9906 5.04785 46 5 46C4.95214 46 4.90476 45.9906 4.86055 45.9723C4.81633 45.9539 4.77616 45.9271 4.74232 45.8933C4.70848 45.8594 4.68164 45.8193 4.66333 45.775C4.64502 45.7308 4.63559 45.6834 4.63559 45.6356L4.63591 41.3641L0.364409 41.3644C0.267762 41.3644 0.175072 41.326 0.106732 41.2577C0.0383928 41.1893 -2.22782e-07 41.0966 -2.18557e-07 41C-2.14332e-07 40.9034 0.0383928 40.8107 0.106732 40.7423C0.175072 40.674 0.267762 40.6356 0.364409 40.6356L4.63591 40.6359L4.63559 36.3644C4.63559 36.2678 4.67398 36.1751 4.74232 36.1067C4.81066 36.0384 4.90335 36 5 36C5.09665 36 5.18934 36.0384 5.25768 36.1067C5.32602 36.1751 5.36441 36.2678 5.36441 36.3644L5.36409 40.6359L9.63559 40.6356C9.73224 40.6356 9.82493 40.674 9.89327 40.7423C9.96161 40.8107 10 40.9034 10 41C10 41.0966 9.96161 41.1893 9.89327 41.2577C9.82493 41.326 9.73224 41.3644 9.63559 41.3644L5.36409 41.3641L5.36441 45.6356Z" fill="#13131A"/>
<path d="M17.3644 45.6356C17.3644 45.6834 17.355 45.7308 17.3367 45.775C17.3184 45.8193 17.2915 45.8594 17.2577 45.8933C17.2238 45.9271 17.1837 45.9539 17.1395 45.9723C17.0952 45.9906 17.0479 46 17 46C16.9521 46 16.9048 45.9906 16.8605 45.9723C16.8163 45.9539 16.7762 45.9271 16.7423 45.8933C16.7085 45.8594 16.6816 45.8193 16.6633 45.775C16.645 45.7308 16.6356 45.6834 16.6356 45.6356L16.6359 41.3641L12.3644 41.3644C12.2678 41.3644 12.1751 41.326 12.1067 41.2577C12.0384 41.1893 12 41.0966 12 41C12 40.9034 12.0384 40.8107 12.1067 40.7423C12.1751 40.674 12.2678 40.6356 12.3644 40.6356L16.6359 40.6359L16.6356 36.3644C16.6356 36.2678 16.674 36.1751 16.7423 36.1067C16.8107 36.0384 16.9034 36 17 36C17.0966 36 17.1893 36.0384 17.2577 36.1067C17.326 36.1751 17.3644 36.2678 17.3644 36.3644L17.3641 40.6359L21.6356 40.6356C21.7322 40.6356 21.8249 40.674 21.8933 40.7423C21.9616 40.8107 22 40.9034 22 41C22 41.0966 21.9616 41.1893 21.8933 41.2577C21.8249 41.326 21.7322 41.3644 21.6356 41.3644L17.3641 41.3641L17.3644 45.6356Z" fill="#13131A"/>
<path d="M29.3644 45.6356C29.3644 45.6834 29.355 45.7308 29.3367 45.775C29.3184 45.8193 29.2915 45.8594 29.2577 45.8933C29.2238 45.9271 29.1837 45.9539 29.1395 45.9723C29.0952 45.9906 29.0479 46 29 46C28.9521 46 28.9048 45.9906 28.8605 45.9723C28.8163 45.9539 28.7762 45.9271 28.7423 45.8933C28.7085 45.8594 28.6816 45.8193 28.6633 45.775C28.645 45.7308 28.6356 45.6834 28.6356 45.6356L28.6359 41.3641L24.3644 41.3644C24.2678 41.3644 24.1751 41.326 24.1067 41.2577C24.0384 41.1893 24 41.0966 24 41C24 40.9034 24.0384 40.8107 24.1067 40.7423C24.1751 40.674 24.2678 40.6356 24.3644 40.6356L28.6359 40.6359L28.6356 36.3644C28.6356 36.2678 28.674 36.1751 28.7423 36.1067C28.8107 36.0384 28.9034 36 29 36C29.0966 36 29.1893 36.0384 29.2577 36.1067C29.326 36.1751 29.3644 36.2678 29.3644 36.3644L29.3641 40.6359L33.6356 40.6356C33.7322 40.6356 33.8249 40.674 33.8933 40.7423C33.9616 40.8107 34 40.9034 34 41C34 41.0966 33.9616 41.1893 33.8933 41.2577C33.8249 41.326 33.7322 41.3644 33.6356 41.3644L29.3641 41.3641L29.3644 45.6356Z" fill="#13131A"/>
<path d="M41.3644 45.6356C41.3644 45.6834 41.355 45.7308 41.3367 45.775C41.3184 45.8193 41.2915 45.8594 41.2577 45.8933C41.2238 45.9271 41.1837 45.9539 41.1395 45.9723C41.0952 45.9906 41.0479 46 41 46C40.9521 46 40.9048 45.9906 40.8605 45.9723C40.8163 45.9539 40.7762 45.9271 40.7423 45.8933C40.7085 45.8594 40.6816 45.8193 40.6633 45.775C40.645 45.7308 40.6356 45.6834 40.6356 45.6356L40.6359 41.3641L36.3644 41.3644C36.2678 41.3644 36.1751 41.326 36.1067 41.2577C36.0384 41.1893 36 41.0966 36 41C36 40.9034 36.0384 40.8107 36.1067 40.7423C36.1751 40.674 36.2678 40.6356 36.3644 40.6356L40.6359 40.6359L40.6356 36.3644C40.6356 36.2678 40.674 36.1751 40.7423 36.1067C40.8107 36.0384 40.9034 36 41 36C41.0966 36 41.1893 36.0384 41.2577 36.1067C41.326 36.1751 41.3644 36.2678 41.3644 36.3644L41.3641 40.6359L45.6356 40.6356C45.7322 40.6356 45.8249 40.674 45.8933 40.7423C45.9616 40.8107 46 40.9034 46 41C46 41.0966 45.9616 41.1893 45.8933 41.2577C45.8249 41.326 45.7322 41.3644 45.6356 41.3644L41.3641 41.3641L41.3644 45.6356Z" fill="#13131A"/>
<path d="M5.36441 33.6356C5.36441 33.6834 5.35498 33.7308 5.33667 33.775C5.31836 33.8193 5.29151 33.8594 5.25768 33.8933C5.22384 33.9271 5.18366 33.9539 5.13945 33.9723C5.09524 33.9906 5.04785 34 5 34C4.95214 34 4.90476 33.9906 4.86055 33.9723C4.81633 33.9539 4.77616 33.9271 4.74232 33.8933C4.70848 33.8594 4.68164 33.8193 4.66333 33.775C4.64502 33.7308 4.63559 33.6834 4.63559 33.6356L4.63591 29.3641L0.364409 29.3644C0.267762 29.3644 0.175072 29.326 0.106732 29.2577C0.0383928 29.1893 -2.22782e-07 29.0966 -2.18557e-07 29C-2.14332e-07 28.9034 0.0383928 28.8107 0.106732 28.7423C0.175072 28.674 0.267762 28.6356 0.364409 28.6356L4.63591 28.6359L4.63559 24.3644C4.63559 24.2678 4.67398 24.1751 4.74232 24.1067C4.81066 24.0384 4.90335 24 5 24C5.09665 24 5.18934 24.0384 5.25768 24.1067C5.32602 24.1751 5.36441 24.2678 5.36441 24.3644L5.36409 28.6359L9.63559 28.6356C9.73224 28.6356 9.82493 28.674 9.89327 28.7423C9.96161 28.8107 10 28.9034 10 29C10 29.0966 9.96161 29.1893 9.89327 29.2577C9.82493 29.326 9.73224 29.3644 9.63559 29.3644L5.36409 29.3641L5.36441 33.6356Z" fill="#13131A"/>
<path d="M17.3644 33.6356C17.3644 33.6834 17.355 33.7308 17.3367 33.775C17.3184 33.8193 17.2915 33.8594 17.2577 33.8933C17.2238 33.9271 17.1837 33.9539 17.1395 33.9723C17.0952 33.9906 17.0479 34 17 34C16.9521 34 16.9048 33.9906 16.8605 33.9723C16.8163 33.9539 16.7762 33.9271 16.7423 33.8933C16.7085 33.8594 16.6816 33.8193 16.6633 33.775C16.645 33.7308 16.6356 33.6834 16.6356 33.6356L16.6359 29.3641L12.3644 29.3644C12.2678 29.3644 12.1751 29.326 12.1067 29.2577C12.0384 29.1893 12 29.0966 12 29C12 28.9034 12.0384 28.8107 12.1067 28.7423C12.1751 28.674 12.2678 28.6356 12.3644 28.6356L16.6359 28.6359L16.6356 24.3644C16.6356 24.2678 16.674 24.1751 16.7423 24.1067C16.8107 24.0384 16.9034 24 17 24C17.0966 24 17.1893 24.0384 17.2577 24.1067C17.326 24.1751 17.3644 24.2678 17.3644 24.3644L17.3641 28.6359L21.6356 28.6356C21.7322 28.6356 21.8249 28.674 21.8933 28.7423C21.9616 28.8107 22 28.9034 22 29C22 29.0966 21.9616 29.1893 21.8933 29.2577C21.8249 29.326 21.7322 29.3644 21.6356 29.3644L17.3641 29.3641L17.3644 33.6356Z" fill="#13131A"/>
<path d="M29.3644 33.6356C29.3644 33.6834 29.355 33.7308 29.3367 33.775C29.3184 33.8193 29.2915 33.8594 29.2577 33.8933C29.2238 33.9271 29.1837 33.9539 29.1395 33.9723C29.0952 33.9906 29.0479 34 29 34C28.9521 34 28.9048 33.9906 28.8605 33.9723C28.8163 33.9539 28.7762 33.9271 28.7423 33.8933C28.7085 33.8594 28.6816 33.8193 28.6633 33.775C28.645 33.7308 28.6356 33.6834 28.6356 33.6356L28.6359 29.3641L24.3644 29.3644C24.2678 29.3644 24.1751 29.326 24.1067 29.2577C24.0384 29.1893 24 29.0966 24 29C24 28.9034 24.0384 28.8107 24.1067 28.7423C24.1751 28.674 24.2678 28.6356 24.3644 28.6356L28.6359 28.6359L28.6356 24.3644C28.6356 24.2678 28.674 24.1751 28.7423 24.1067C28.8107 24.0384 28.9034 24 29 24C29.0966 24 29.1893 24.0384 29.2577 24.1067C29.326 24.1751 29.3644 24.2678 29.3644 24.3644L29.3641 28.6359L33.6356 28.6356C33.7322 28.6356 33.8249 28.674 33.8933 28.7423C33.9616 28.8107 34 28.9034 34 29C34 29.0966 33.9616 29.1893 33.8933 29.2577C33.8249 29.326 33.7322 29.3644 33.6356 29.3644L29.3641 29.3641L29.3644 33.6356Z" fill="#13131A"/>
<path d="M41.3644 33.6356C41.3644 33.6834 41.355 33.7308 41.3367 33.775C41.3184 33.8193 41.2915 33.8594 41.2577 33.8933C41.2238 33.9271 41.1837 33.9539 41.1395 33.9723C41.0952 33.9906 41.0479 34 41 34C40.9521 34 40.9048 33.9906 40.8605 33.9723C40.8163 33.9539 40.7762 33.9271 40.7423 33.8933C40.7085 33.8594 40.6816 33.8193 40.6633 33.775C40.645 33.7308 40.6356 33.6834 40.6356 33.6356L40.6359 29.3641L36.3644 29.3644C36.2678 29.3644 36.1751 29.326 36.1067 29.2577C36.0384 29.1893 36 29.0966 36 29C36 28.9034 36.0384 28.8107 36.1067 28.7423C36.1751 28.674 36.2678 28.6356 36.3644 28.6356L40.6359 28.6359L40.6356 24.3644C40.6356 24.2678 40.674 24.1751 40.7423 24.1067C40.8107 24.0384 40.9034 24 41 24C41.0966 24 41.1893 24.0384 41.2577 24.1067C41.326 24.1751 41.3644 24.2678 41.3644 24.3644L41.3641 28.6359L45.6356 28.6356C45.7322 28.6356 45.8249 28.674 45.8933 28.7423C45.9616 28.8107 46 28.9034 46 29C46 29.0966 45.9616 29.1893 45.8933 29.2577C45.8249 29.326 45.7322 29.3644 45.6356 29.3644L41.3641 29.3641L41.3644 33.6356Z" fill="#13131A"/>
<path d="M5.36441 21.6356C5.36441 21.6834 5.35498 21.7308 5.33667 21.775C5.31836 21.8193 5.29151 21.8594 5.25768 21.8933C5.22384 21.9271 5.18366 21.9539 5.13945 21.9723C5.09524 21.9906 5.04785 22 5 22C4.95214 22 4.90476 21.9906 4.86055 21.9723C4.81633 21.9539 4.77616 21.9271 4.74232 21.8933C4.70848 21.8594 4.68164 21.8193 4.66333 21.775C4.64502 21.7308 4.63559 21.6834 4.63559 21.6356L4.63591 17.3641L0.364409 17.3644C0.267762 17.3644 0.175072 17.326 0.106732 17.2577C0.0383928 17.1893 -2.22782e-07 17.0966 -2.18557e-07 17C-2.14332e-07 16.9034 0.0383928 16.8107 0.106732 16.7423C0.175072 16.674 0.267762 16.6356 0.364409 16.6356L4.63591 16.6359L4.63559 12.3644C4.63559 12.2678 4.67398 12.1751 4.74232 12.1067C4.81066 12.0384 4.90335 12 5 12C5.09665 12 5.18934 12.0384 5.25768 12.1067C5.32602 12.1751 5.36441 12.2678 5.36441 12.3644L5.36409 16.6359L9.63559 16.6356C9.73224 16.6356 9.82493 16.674 9.89327 16.7423C9.96161 16.8107 10 16.9034 10 17C10 17.0966 9.96161 17.1893 9.89327 17.2577C9.82493 17.326 9.73224 17.3644 9.63559 17.3644L5.36409 17.3641L5.36441 21.6356Z" fill="#13131A"/>
<path d="M17.3644 21.6356C17.3644 21.6834 17.355 21.7308 17.3367 21.775C17.3184 21.8193 17.2915 21.8594 17.2577 21.8933C17.2238 21.9271 17.1837 21.9539 17.1395 21.9723C17.0952 21.9906 17.0479 22 17 22C16.9521 22 16.9048 21.9906 16.8605 21.9723C16.8163 21.9539 16.7762 21.9271 16.7423 21.8933C16.7085 21.8594 16.6816 21.8193 16.6633 21.775C16.645 21.7308 16.6356 21.6834 16.6356 21.6356L16.6359 17.3641L12.3644 17.3644C12.2678 17.3644 12.1751 17.326 12.1067 17.2577C12.0384 17.1893 12 17.0966 12 17C12 16.9034 12.0384 16.8107 12.1067 16.7423C12.1751 16.674 12.2678 16.6356 12.3644 16.6356L16.6359 16.6359L16.6356 12.3644C16.6356 12.2678 16.674 12.1751 16.7423 12.1067C16.8107 12.0384 16.9034 12 17 12C17.0966 12 17.1893 12.0384 17.2577 12.1067C17.326 12.1751 17.3644 12.2678 17.3644 12.3644L17.3641 16.6359L21.6356 16.6356C21.7322 16.6356 21.8249 16.674 21.8933 16.7423C21.9616 16.8107 22 16.9034 22 17C22 17.0966 21.9616 17.1893 21.8933 17.2577C21.8249 17.326 21.7322 17.3644 21.6356 17.3644L17.3641 17.3641L17.3644 21.6356Z" fill="#13131A"/>
<path d="M29.3644 21.6356C29.3644 21.6834 29.355 21.7308 29.3367 21.775C29.3184 21.8193 29.2915 21.8594 29.2577 21.8933C29.2238 21.9271 29.1837 21.9539 29.1395 21.9723C29.0952 21.9906 29.0479 22 29 22C28.9521 22 28.9048 21.9906 28.8605 21.9723C28.8163 21.9539 28.7762 21.9271 28.7423 21.8933C28.7085 21.8594 28.6816 21.8193 28.6633 21.775C28.645 21.7308 28.6356 21.6834 28.6356 21.6356L28.6359 17.3641L24.3644 17.3644C24.2678 17.3644 24.1751 17.326 24.1067 17.2577C24.0384 17.1893 24 17.0966 24 17C24 16.9034 24.0384 16.8107 24.1067 16.7423C24.1751 16.674 24.2678 16.6356 24.3644 16.6356L28.6359 16.6359L28.6356 12.3644C28.6356 12.2678 28.674 12.1751 28.7423 12.1067C28.8107 12.0384 28.9034 12 29 12C29.0966 12 29.1893 12.0384 29.2577 12.1067C29.326 12.1751 29.3644 12.2678 29.3644 12.3644L29.3641 16.6359L33.6356 16.6356C33.7322 16.6356 33.8249 16.674 33.8933 16.7423C33.9616 16.8107 34 16.9034 34 17C34 17.0966 33.9616 17.1893 33.8933 17.2577C33.8249 17.326 33.7322 17.3644 33.6356 17.3644L29.3641 17.3641L29.3644 21.6356Z" fill="#13131A"/>
<path d="M41.3644 21.6356C41.3644 21.6834 41.355 21.7308 41.3367 21.775C41.3184 21.8193 41.2915 21.8594 41.2577 21.8933C41.2238 21.9271 41.1837 21.9539 41.1395 21.9723C41.0952 21.9906 41.0479 22 41 22C40.9521 22 40.9048 21.9906 40.8605 21.9723C40.8163 21.9539 40.7762 21.9271 40.7423 21.8933C40.7085 21.8594 40.6816 21.8193 40.6633 21.775C40.645 21.7308 40.6356 21.6834 40.6356 21.6356L40.6359 17.3641L36.3644 17.3644C36.2678 17.3644 36.1751 17.326 36.1067 17.2577C36.0384 17.1893 36 17.0966 36 17C36 16.9034 36.0384 16.8107 36.1067 16.7423C36.1751 16.674 36.2678 16.6356 36.3644 16.6356L40.6359 16.6359L40.6356 12.3644C40.6356 12.2678 40.674 12.1751 40.7423 12.1067C40.8107 12.0384 40.9034 12 41 12C41.0966 12 41.1893 12.0384 41.2577 12.1067C41.326 12.1751 41.3644 12.2678 41.3644 12.3644L41.3641 16.6359L45.6356 16.6356C45.7322 16.6356 45.8249 16.674 45.8933 16.7423C45.9616 16.8107 46 16.9034 46 17C46 17.0966 45.9616 17.1893 45.8933 17.2577C45.8249 17.326 45.7322 17.3644 45.6356 17.3644L41.3641 17.3641L41.3644 21.6356Z" fill="#13131A"/>
<path d="M5.36441 9.63559C5.36441 9.68345 5.35498 9.73083 5.33667 9.77504C5.31836 9.81926 5.29151 9.85943 5.25768 9.89327C5.22384 9.92711 5.18366 9.95395 5.13945 9.97226C5.09524 9.99057 5.04785 10 5 10C4.95214 10 4.90476 9.99057 4.86055 9.97226C4.81633 9.95395 4.77616 9.92711 4.74232 9.89327C4.70848 9.85943 4.68164 9.81926 4.66333 9.77504C4.64502 9.73083 4.63559 9.68345 4.63559 9.63559L4.63591 5.36409L0.364409 5.36441C0.267762 5.36441 0.175072 5.32602 0.106732 5.25768C0.0383928 5.18934 -2.22782e-07 5.09665 -2.18557e-07 5C-2.14332e-07 4.90335 0.0383928 4.81066 0.106732 4.74232C0.175072 4.67398 0.267762 4.63559 0.364409 4.63559L4.63591 4.63591L4.63559 0.364409C4.63559 0.267761 4.67398 0.175073 4.74232 0.106733C4.81066 0.0383928 4.90335 -2.22782e-07 5 -2.18557e-07C5.09665 -2.14332e-07 5.18934 0.0383928 5.25768 0.106733C5.32602 0.175073 5.36441 0.267761 5.36441 0.364409L5.36409 4.63591L9.63559 4.63559C9.73224 4.63559 9.82493 4.67398 9.89327 4.74232C9.96161 4.81066 10 4.90335 10 5C10 5.09665 9.96161 5.18934 9.89327 5.25768C9.82493 5.32602 9.73224 5.36441 9.63559 5.36441L5.36409 5.36409L5.36441 9.63559Z" fill="#13131A"/>
<path d="M17.3644 9.63559C17.3644 9.68345 17.355 9.73083 17.3367 9.77504C17.3184 9.81926 17.2915 9.85943 17.2577 9.89327C17.2238 9.92711 17.1837 9.95395 17.1395 9.97226C17.0952 9.99057 17.0479 10 17 10C16.9521 10 16.9048 9.99057 16.8605 9.97226C16.8163 9.95395 16.7762 9.92711 16.7423 9.89327C16.7085 9.85943 16.6816 9.81926 16.6633 9.77504C16.645 9.73083 16.6356 9.68345 16.6356 9.63559L16.6359 5.36409L12.3644 5.36441C12.2678 5.36441 12.1751 5.32602 12.1067 5.25768C12.0384 5.18934 12 5.09665 12 5C12 4.90335 12.0384 4.81066 12.1067 4.74232C12.1751 4.67398 12.2678 4.63559 12.3644 4.63559L16.6359 4.63591L16.6356 0.364409C16.6356 0.267761 16.674 0.175073 16.7423 0.106733C16.8107 0.0383928 16.9034 -2.22782e-07 17 -2.18557e-07C17.0966 -2.14332e-07 17.1893 0.0383928 17.2577 0.106733C17.326 0.175073 17.3644 0.267761 17.3644 0.364409L17.3641 4.63591L21.6356 4.63559C21.7322 4.63559 21.8249 4.67398 21.8933 4.74232C21.9616 4.81066 22 4.90335 22 5C22 5.09665 21.9616 5.18934 21.8933 5.25768C21.8249 5.32602 21.7322 5.36441 21.6356 5.36441L17.3641 5.36409L17.3644 9.63559Z" fill="#13131A"/>
</svg>
