<svg width="32" height="32" viewBox="0 0 32 32" fill="none" xmlns="http://www.w3.org/2000/svg">
  <rect width="32" height="32" rx="16" fill="#13131A"/>
  <path d="M18.034 16.002c0 3.328-2.641 6.025-5.899 6.025C8.877 22.027 6.236 19.33 6.236 16.002c0-3.328 2.641-6.025 5.899-6.025 3.258 0 5.899 2.697 5.899 6.025zm6.458 0c0 3.134-1.32 5.676-2.95 5.676s-2.95-2.542-2.95-5.676 1.32-5.676 2.95-5.676 2.95 2.542 2.95 5.676zm2.548 0c0 2.802-.464 5.074-1.036 5.074-.572 0-1.036-2.272-1.036-5.074s.464-5.074 1.036-5.074c.572 0 1.036 2.272 1.036 5.074z" fill="white"/>
</svg>
