<svg width="91" height="30" viewBox="0 0 91 30" fill="none" xmlns="http://www.w3.org/2000/svg">
<path d="M20.1001 13.5528L13.418 17.4107V24.8091C13.418 24.964 13.5856 25.0608 13.7198 24.9834L20.0264 21.3423C20.0886 21.3064 20.127 21.2399 20.127 21.1681V13.6533C20.127 13.6174 20.1175 13.5829 20.1001 13.5528Z" fill="#13131A"/>
<path d="M7.01084 13.712L9.25343 15.0067L13.418 17.4112L20.1001 13.5533C20.0827 13.5232 20.0576 13.4976 20.0264 13.4796L13.5185 9.72225C13.4563 9.68633 13.3796 9.68633 13.3173 9.72225L9.02603 12.1998L7.01077 13.3633C6.87662 13.4408 6.87669 13.6345 7.01084 13.712Z" fill="#4D4D4D"/>
<path d="M6.7091 1.20156C6.7091 1.04663 6.54149 0.949798 6.40726 1.02726L0.100495 4.66848C0.0383109 4.70446 0 4.77087 0 4.84271V25.0415C0 25.0774 0.00957738 25.112 0.0269722 25.1421L6.7091 21.2842V13.5372V1.20156Z" fill="#13131A"/>
<path d="M0.0274136 25.1411C0.0447379 25.1711 0.0698804 25.1967 0.100867 25.2146L6.60897 28.9721C6.67123 29.008 6.74792 29.008 6.81018 28.9721L13.1167 25.331C13.2509 25.2535 13.2509 25.0599 13.1167 24.9824L6.70947 21.2832L0.0274136 25.1411Z" fill="#4D4D4D"/>
<path d="M78.6203 20.7102L77.3679 23.2958H74.3379L80.7009 10.0446L80.8625 9.70121L82.2967 6.69141L83.7511 9.72141L83.8117 9.86281L90.2555 23.2958H87.2255L85.9529 20.7102H78.6203ZM82.2361 13.1554L79.9535 17.9024H84.5793L82.2361 13.1554Z" fill="#13131A"/>
<path d="M71.0367 8.69145C71.5619 9.19645 71.9659 9.76205 72.2689 10.3882C72.5719 11.0751 72.7335 11.782 72.7335 12.5294C72.7335 13.2567 72.5719 13.9839 72.2689 14.6505C71.9659 15.2767 71.5619 15.8625 71.0367 16.3473C70.5317 16.8119 69.9661 17.1957 69.3399 17.4583L73.3395 23.2961H69.8247L66.0271 17.8825H63.2799V23.2961H60.3711V7.15625H67.1987C67.9057 7.15625 68.6127 7.29765 69.2995 7.56025C69.9459 7.84305 70.5317 8.20665 71.0367 8.69145ZM69.0369 14.2263C69.5419 13.7617 69.8045 13.1556 69.8045 12.5294C69.8045 12.3476 69.7843 12.1659 69.7439 12.0043C69.7439 11.9639 69.7237 11.9234 69.7237 11.8831C69.7035 11.8628 69.7035 11.8426 69.7035 11.8426C69.5621 11.4588 69.3399 11.1154 69.0369 10.8326C68.7541 10.5498 68.4107 10.3478 68.0471 10.2267C68.0269 10.2267 68.0269 10.2065 68.0067 10.2065C67.9663 10.1862 67.9259 10.1862 67.8653 10.166C67.6431 10.1054 67.4209 10.0852 67.1987 10.0852H63.2799V14.9736H67.1987C67.8653 14.9736 68.5319 14.6909 69.0369 14.2263Z" fill="#13131A"/>
<path d="M46.7901 22.6295C45.8205 22.2053 44.9519 21.6397 44.2247 20.8923C43.4773 20.1449 42.8915 19.2763 42.4875 18.3269C42.0633 17.3169 41.8613 16.2665 41.8613 15.1757C41.8613 14.0849 42.0633 13.0345 42.4875 12.0245C42.8915 11.0751 43.4773 10.2065 44.2247 9.4591C44.9519 8.7319 45.8205 8.1461 46.7901 7.7421C47.7799 7.3179 48.8303 7.0957 49.9211 7.0957C51.0119 7.0957 52.0825 7.3179 53.0723 7.7421C54.0419 8.1461 54.8903 8.7319 55.6377 9.4591C56.3851 10.2065 56.9709 11.0751 57.3749 12.0245C57.7991 13.0345 58.0011 14.0849 58.0011 15.1757C58.0011 16.2665 57.7991 17.3169 57.3749 18.3269C56.9709 19.2763 56.3851 20.1449 55.6377 20.8923C54.8903 21.6397 54.0419 22.2053 53.0723 22.6295C52.0825 23.0335 51.0119 23.2557 49.9211 23.2557C48.8303 23.2557 47.7799 23.0335 46.7901 22.6295ZM46.3457 11.6003C45.3761 12.5497 44.8509 13.8223 44.8509 15.1757C44.8509 16.5291 45.3761 17.8017 46.3457 18.7713C47.2951 19.7207 48.5677 20.2459 49.9211 20.2459C51.2745 20.2459 52.5471 19.7207 53.5167 18.7713C54.4661 17.8017 54.9913 16.5291 54.9913 15.1757C54.9913 13.8223 54.4661 12.5497 53.5167 11.6003C52.5471 10.6307 51.2745 10.1055 49.9211 10.1055C48.5677 10.1055 47.2951 10.6307 46.3457 11.6003Z" fill="#13131A"/>
<path d="M30.0098 23.2752H27V7.17578H30.0098H34.373C34.9992 7.17578 35.6052 7.29698 36.191 7.53938C36.7566 7.76158 37.2818 8.10498 37.7262 8.52918C38.1706 8.95338 38.5342 9.45838 38.7968 10.0038C39.0594 10.6098 39.2008 11.236 39.2008 11.8824C39.2008 12.5288 39.0594 13.155 38.7968 13.7408C38.6352 14.0842 38.4534 14.3872 38.211 14.6902C38.3726 14.7912 38.514 14.9124 38.6554 15.0538C39.12 15.478 39.4836 16.0032 39.7462 16.5688C40.0088 17.1748 40.1502 17.8212 40.1502 18.4676C40.1502 19.1342 40.0088 19.7806 39.7462 20.3866C39.4836 20.9522 39.12 21.4572 38.6554 21.9016C38.1908 22.3258 37.6656 22.6692 37.0798 22.8914C36.494 23.154 35.8678 23.2752 35.2214 23.2752H30.0098ZM30.0098 10.0846V13.66H34.3528C34.8578 13.66 35.3426 13.458 35.7264 13.1146C36.09 12.7712 36.292 12.3268 36.292 11.8824C36.292 11.4178 36.09 10.9734 35.7264 10.63C35.3426 10.2866 34.8578 10.0846 34.3528 10.0846H30.0098ZM30.0098 16.5688V20.3664H35.2012C36.292 20.3664 37.2414 19.4776 37.2414 18.4676C37.2414 17.4576 36.292 16.5688 35.2012 16.5688H30.0098Z" fill="#13131A"/>
</svg>
